<mxfile host="app.diagrams.net" modified="2024-04-02T06:59:57.470Z" agent="Mozilla/5.0 (Windows NT 10.0; Win64; x64) AppleWebKit/537.36 (KHTML, like Gecko) Chrome/123.0.0.0 Safari/537.36" etag="bJWYUbZ5whOtg3qs9C-Q" version="24.2.1" type="device">
  <diagram name="페이지-1" id="WviqVYhXiWxINRlGjmFv">
    <mxGraphModel dx="2261" dy="830" grid="1" gridSize="10" guides="1" tooltips="1" connect="1" arrows="1" fold="1" page="1" pageScale="1" pageWidth="827" pageHeight="1169" math="0" shadow="0">
      <root>
        <mxCell id="0" />
        <mxCell id="1" parent="0" />
        <mxCell id="_rLCLBlPRa0EdaRFuiWH-1" value="" style="shape=image;verticalLabelPosition=bottom;labelBackgroundColor=default;verticalAlign=top;aspect=fixed;imageAspect=0;image=data:image/png,iVBORw0KGgoAAAANSUhEUgAABGsAAAIHCAIAAACnrUbRAACAAElEQVR4XuydLbiyMBiGjUYqkWi0Go1Go9VoNFqNRKPVSDQarUSj0Wo08r0y3bezoQcP/gy87+u5vOYYY+fA43hhsFYGAAAAAAAA5WjZGQAAAAAAAHADIigAAAAAAICyEEEBAAAAAACUhQgKAAAAAACgLERQAAAAAAAAZSGCAgAAAAAAKAsRFAAAAAAAQFmIoAAAAAAAAMpCBAUAAAAAAFAWIigAAAAAAICyEEEBAAAAAACUhQgKAAAAAACgLERQAAAAAAAAZSGCAgAAAAAAKAsRFAAAAAAAQFmIoAAAAAAAAMpCBAUAAAAAAFAWIigAAAAAAICyEEEBAAAAAACUpVIE1Woh1AT5idtOhPyUn7jtRMgT+YnbToT8lA9UakX+N6wRqrU8saIL/kK1EA5C6CFhGYSqyBMHVWoFZkMNkCdWdMFfqBbCQQg9JCyDUBV54qBKrcBsqAHyxIou+AvVQjgIoYeEZRCqIk8cVKkVmA01QJ5Y0QV/oVoIByH0kLAMQlXkiYMqtQKzoQbIEyu64C9UC+EghB4SlkGoijxxUKVWYDbUAHliRRf8hWohHITQQ8IyCFWRJw6q1ArMhhogT6zogr9QLYSDEHpIWAahKvLEQZVa0UizbTZpp3NqtzP5lLTkpOm22z3qAr3eUXIKS7bs19UX5KjMxWKnK5S0+580CyfJuXIrUykIsuXyf1WTyUHaE4bZdLo3q1KSlh+PG6sqM306bUajcw3d7kn9jebqSnqtxij/o3ykkf/tW3Ld9CnfKZlmURuVzPX6vxPd+q0y36P8P+Aj7v6ttdwj//0ecdfSaaszcu1QuDk3RyUKO6PGKP8zfUT//79HrlnebyslOW2Tkzf3/M09A8yK/PVVyv8Vn6dSKwoPgrpLugHlDTlqw/CkMiUyUQaQT0nfKZn9PMoL/0WSKb2C/ippt5jpPbGrm6kS2+1WmqHSs9le2ianfaLJZD+fX0yoCkuHNB4fdOMLGym+FUlJ+YvcjTZVnljRpfH/eVOFbvqU7yyziAaDo3yVT7fw/TLfIBz0HhUe+e/3iLWuTpudUVZkB7eqOzmFnVFjhGX8UaFZ3m8rOX+TczY54OX8TY78OL5EXK2iM8CsyF9fJU8cVKkV7kHQAMnBKofybvfjopcc1pKfptsoOkn6TsmsnJ3k/ExZcb1OJe0W0zmSEDspM5uZKiGdljRJpcXSh8OlbZLQ+bqwOFP3cIWNlFV0De7SpsoTK7o0/j9vqtBNH/SdaRbtJvnc7/8bxFz9VplvEA56jwqP/Pd75FY9ZmdUaAe3qjs5hZ1RY4Rl/FGhWd5vK9mQHvUgCTNqcs8AC/31VfLEQZVa4R4EDdB+v5WwvpWPSTDvkCZJ2m5nq9X/nFslLTuZ0pnS2aiLB/Ipafc/aRYWOykbm5lKyuTWKkrSWjffrOF+prnUlFug7sr/KB9p5H/7lm656VO+M9P6iqB8WuMrdPpWmW8QDnqPbh35b/bIrXrMzqjQDoWbc3PcTTRP+V/nI83+txfqllnebCt9wpbl8Zt5/uaeARb666vkiYMqtcI9CBojOWTn8705JiG78ZvulrTs5K6iMjv5UFp1pcEtZnovy30ym+2tTMlRnlQyL9rdugelbz0XNtK8i+Uubao8saJL4//zrlw3ZTeOQLdk4SFt6iHfabOcTufBG61rjyhpybEK3ynzDcJB75R75GdFR3Jhyad4xMpUabMzumUHt6o7OYWdUWOEZXyTa5as6PgsLOnawVIZW+nzt9HosFzurFM18wzwlr++Sp44qFIr3IOgAZLjWF11kGPdHOqaOQf9rZIl7SSWaLczdSHBLaZztGdkc1Zmlj/jqG4NZ/ZzUAf5ahWWHDGnSne7J/XUrznKXA89X612etiu27aGyRMrujT+P2/qlpsy5wi8VfK5vtNmES+Mx/8fiJJMybEK3ynzDcJB79GtIz9zjuRbJZ/iEStTp3VndMsOblV3cgo7o8YIy/ijW2bJnOPzVslCO5gqYyvpcUTqEVxZqk/VVEnzDPCWv75KnjioUivcg6AB2m63ElHInybHq6TNRdbfe6ukZSdTZgGJc8ROx3zkq7WoMCEBj5spTu73/9+Gki4nCM7XJCaTgnfxSUm1uew6Zr31s/Hi3uHw/Poj+bv0YN/CP6FJyv8oH2nkf/uWbrkpe7vvlLRZrFeB5a9psi8u3CnzDcr/Dz5iHTl1160jP3uvR26ldWd0yw7u7riTU9gZNUb5n+kj7h5pvG6ZJXOOz1slLTuYMgv8aqtp/i4+KSP1q0DLLKDPAG/566vkiYMqteILzYaaJ0+s6IK/UC2EgxB6SFgG3ZG6E+XmIy1PHFSpFZgNNUCeWNEFf6FaCAch9JCwDEJV5ImDKrUCs6EGyBMruuAvVAvhIIQeEpZBqIo8cVClVmA21AB5YkUX/IVqIRyE0EPCMghVkScOqtSK1s9n5hCqqfzEbSdCfspP3HYi5In8xG0nQn7KByq1Iv8b7NAQoXrJEyu64C9UC+EghB4SlkGoijxxUKVWYDbUAHliRRf8hWohHITQQ8IyCFWRJw6q1ArMhhogT6zogr9QLYSDEHpIWAahKvLEQZVagdlQA+SJFV3wF6qFcBBCDwnLIFRFnjioUiswG2qAPLGiC/5CtRAOQughYRmEqsgTB1VqBWZDDZAnVnTBX6gWwkEIPSQsg1AVeeKgSq3AbKgB8sSKLvgL1UI4CKGHhGUQqiJPHFSpFU832+mUDIe9drvd7Ua73VLnT6fDMAyCoC0JndlqtRaLif66WIxb5wb9vshEZybJTKfvlBRJw6Ql+uuf1Vt20sNCf5V0f9VR6fV+3pq35FMvla9KQdxepJc/7ZQlw6TXnre7y2h3vPy7pIy5lk6XqXN7iKWq9rzVWYQbo6TSMp2M1wO3jNQZxEErz1nvz//GMjmmdEvCOFjtppIzSvoqoSRpyTFLKlmr60xp5/L6X/pVnljRRfurdZ0AIQxPSZJamf9tOBlkYZBNB+7feF2l4DjPbvjLf9XUQfvj0jpcfXZHGdXUQQUq4SC3U6iXreQYSHbX1hoHiVlAJ7RTRIt07B5U+pg0M/WRZmaavtNSjpisB1LPdPPj3+6a4unH7Qflv2XKqoRlauSOX1XTTsct4/rLlN4Knc59KrXiYbP9pslksF6f967EP73e5bicz0fiseMxkfRsNpKvKl/cKOGWXlfSZpd2Z5HO15LMKAoLC1hfZ7OhRHeFlTwqOQSl59BfJa0P0MGqK1/lUy/Vh2Z6iOWY1qsoa4mRxNhWSStdps7o6iXpYvVWlOS0T5wm5nfLyKal5bJImqF+TcrkmNItEW/LL0uW/8qI4ff574v8ykhactzyhV/V6tLaw+l/EH5HnljRRftLJzabNAztzP9aTbN2+/zp/I3XVQqO81v+8l81ddAynY6NZmd+u6OMauqgAv3mICW3j6iRreR4kKNUp62ElSmnejpf0m55fUxalWi5HtHSjpCDXyoxz8+yIlM8/bj9oPy3TFn9Zpl6ueNX1bTTccu4/jLlGpxOp5BKrXjYbL8pDIP9/vIvTtNLoC/2Ox5XKr3bLU03TqcDVSxNYzGkGSbdWaQSpiRTgrc4HrsFrK+r/JeisJJHJYeUHMrqKDTTcoyqHk4+1fGaGUfk9hAHV5PIKrqAvi5SaMXydSodTyvdyypNnEsIukwQt/VfIemSOaZMu+qfp91xISY/ns6+lXRh+cKvSvK7YP7S3ZEnVnS5cf53sjL/Sw7g3eL86fyN11UKjvNb/vJfNXXQKOnnlwPVNcjzRn12RxnV1EEF+s1BSm4fUSNbyfEguz7e5q29HhuFx7wkppuB8oWcrk03Q7e8eUwWHml3PKIdIY2RY1g1SavQFM89bj8o/y1TVr9Zpl7u+FU17XTcMoX+0io0OJ2OS6VWPGy23yQGO53+x7U6s/CrJDab+Xh83iXyKemSi0x0pvhZ4jf51JnW5n7N/IPG68uN0fyy9PmWqEg6KtWXyKekVWbLuHWrr3nIV+UBU7qk0qN1KslJnnU7WGx/OF1+8qwypltUukyOKbPBs2vzsvwGtGzXvflr1WCurhdJa63rMbfkiRVdtL9a1zFIUVQwis/9i26p8Dgvc8B7qzo6SBJqkXRC0hWpenQxM61ztN7vjjKqqYP+LNcyNbKVHAPHfO/Lpz4eCo9ASciBqu6XyucmH1CkF7nHZOGRpr+6HnH7FFOFTXrucftB+W+ZZ6le7iijOnY6bplCf5k5WnQ6d6jUiqebTd+DkjhKXbTIzpcrAnW3VyQmlK8qrVynnCmfOqfMIksqU7Y4mQzKeLsw8w/aHmJ1G1c+JZ1drweYJlFmU0ehugag7acvZkiOvoDnGuOhOiUhPwqF42J12iqjL8Poixllcgorlz9HjwmxFt3JLCxzJ98u1rIPbE/Q/io0WmHmfRUe57f8VQvV1EFa6mj32R1lVFMH/VmFfURdbKX2uxztk/VAHwOt61mdfLaNzCw/OFXEpXPMhHlMFh5RhR65U17rlinur1UX+W+ZZ6le7iijmnY6Vplb/rJWpNO5T6VWPN1s+XNQ5x08m40Gg8vQTz1kViQJ8zmoLH/GaTTqq6eerDDpziJLhrHDwt7xVvnqivLxqfre6zK9PJ+npJ/e00eeedkjH1Cb/7s2Iz1S1rVi+TrVT4N1f1ZJ294tI5tWA2qlHjWgtkyOKd2SzX5u3YYutFwZu+Z3wEv9LntiRRftr0KjFWbeV+FxfstfdVHtHCRNVf2uFOvnG/XZHWVUUwf9Wbf6iFrYSh8PcizpdHcZycmcOqVT90V1yWHSkwNePRClyxcek4VHmusRLe2IQhWa4rnH7Qflv2WepXq5o6Rq1+m4ZQr9pVVocGvRnczCMs81rycOqtSKp5tN7CSBU7vd6vU6h8P/31bxWBC03XfxyedyOZHEcpkfW1d/3l9kYpYXJclMp61Fv2b+TfPtKIgD+VRfpfdK87MrpTR/g0r284jsXd8GczwlYoP2vCU5+hE914rl65Tju+Xce1US26sXv7hlkt1MXSyRP0Q9Ilkmx5SuLXJeJmM1ozDTbI9eVH7QrSdWdNH+KjRaYeZ93TrOC/1VF9XOQdKZdRbn56AkfFJDLHx2RxnV1EF/1q0+oha20seAHHU6nZ6PyXNAJUem9WzGMp1IQk6zzHULj8nCI00nMuc9ZtoRltQqhaZ47nH7QflvmWepXu4oqdp1Om6ZQn9p6ZJ0Ovep1Iqnmw15q/z6wfmlLu4iD3XKXz5T8sUvnljRBX81Sf446CF3lBEOQn/QLUeYbx4z9fTj9oPCMugNumWx9+vp5vXEQZVagdm+SovzxAI/hmF4K2mn+7DjLXliRRf81TB54qCH3FFGOAj9TQ854unH7QeFZdB79JDFXqenm9cTB1VqBWZDDZAnVnTBX6gWwkEIPSQsg1AVeeKgSq3AbKgB8sSKLvgL1UI4CKGHhGUQqiJPHFSpFZgNNUCeWNEFf6FaCAch9JCwDEJV5ImDKrUCs6EGyBMruuAvVAvhIIQeEpZBqIo8cVClVmA21AB5YkUX/IVqIRyE0EPCMghVkScOqtQKzIYaIE+s6IK/UC2EgxB6SFgGoSryxEGVWvF0s12muW21wjBIkvMUfirTLKDT0+lQirnT7JrcL/xZWdMLSlrPDL3ez1vzljnNmZ6bLIjbehbCU5YMk1573u4uo911cndzajMzXabObT5rW/s8r6I9jVqWT604Xg/2x6U1V5rUGcTn+do6+UTd1lq6ZBgHalJtPbu2kqTV3NtmtarmwkxpQyNfi+nyfn9ZxRSS0+t10tQ4VtNFv38+Vt2ShRW+SDV1kFsGB72Ihx00GWRhkE1vTvt464C3Mkej/mpl7KDVVHLMkpYBTdyNPlFYRgnL3OJhy/wmfWDT6ahMHPQUeeKgSq14hdlUYrOJxW9Wppmez0cSCx2P55nCZrORfC2sp0zhT0kOQXOGZknrA3Sw6spXc2JBfWimh1iOab2KspYYSYxtlbTSZeqMrl5KdjO9FSUJnDr51GzLdDr+ObG0bFpaLoukGfrXREtvRXwrvxpZ/gsiZt7nvx3yCyJpc8Y3s83uV7V6p4lTs7m831+3cuQUcDIxjtXJQJ0guiVvZb5CNXWQWwYHvYiHHSRHdbt9/nQXGSo8ws3M0ynpdqP9Pt9Bu6WkJccsc9+ArxOWybDMXR62zG8qecy7OXQ6Jet03aGFg15NpVa80mzzQrPpdBSFx+NKpaWLkq+F9ZQp/CnJISWHsjoKzbSaRjrLjaGO18w4IreHOLiaRFbRBfR1kUIrlq9T6XhaqfJak+slhFHSzy9mqCso540GcVv/FZI218p+WlH/9MiKYuDj6exJVYlbvvCrknje/BWrKE+s6PJ+f93KkfM/Ka/OAs20W/JW5itUUwe5ZXDQi3jYQfE42y3On+4iQ4VHuJW52y16vc7xeA6lJG2VuW/A1wnLYJn7PGyZ31TymHdz6HTK16mEg95PpVa8wmyKKAqS5HJjUWcqdKa14p+/flDj9eXGaH5j5zJv9HQzjLfnLlw+Ja0yW8atW33NQ74qD5jSJZUerVNJwiTrdrDY/nA6R6GSUIvEQmIkVY8u5jrHbMzsuuksv7ksVbk3dq0aCv8caYm6jvIUeWJFl7f561Yxhcocjy8Dk5bLqaTvlNSJN6iODnLL6K1YaZ2jhYMe4ukOUio8wt3M5XIip33yaZZR/NrBvU5YBsvc4emW0Qc2nY7OxEHV5YmDKrXiFWa7n6nT4kY1Kk90PK7k661Vfi38QW0PsbqNK5+Szq7XA0yTKLOpo1BdA9D20xczJEc5TZc00w/VKQn5USgcF2vliNTtXX0Z5v7FDGmqKu8uupNZWOZO/h/kiRVd3u+vWzmi7Tbu9fJjtdeR9J2ShZkvUk0dZJXBQS/i6Q5SKjzCy2SWKfNqYRmrsJtZWOZO/h/0PZYpPLzdTDcno9MpXScO+hSVWvF+s+m0frRJJImSz0EVFv6sonx8qr73ukwvz+cp6af39JFnXvbIB9Se/TDbjPRIWdeK5etUPw3W/VklbXtpqvrVkGL9fKOyaTWgVuq5P6DWusVcaKcyVszvbj8tDPbEii7v99etHKUoCtfrmTkItrBkYebrVDsHuWVw0It4uoOUCo/wMpllyrxBWOZW+cKvSljmbyo8vN1MN0eJTufXOl13aOGgV1OpFe83m5mWWCgI2oWv13PruVP4s5pvR0EcyKf62l1GaR6fKKX5G1Syn0dk7/o2mOMpERu05y3J0Y/ouVYsX6cc363rNQ/LA2J7/eKXzuL8HJSET+oGcbKbqYsl8oeYL41R0rVFzotiCm3mWtFtUiMH1Lq8zV8mhTlK8/koCALzAkRhycLM16l2DnLL4KAX8XQHKRUe1WUyb5UxcQs8XVjGLV+4utkkLPM3FR7S7jHv5ijR6fxap+sOLRz0aiq14ulmQ94qv35wfqmLu+jNOuUvlmneS11c8FeThIPeDw6qtbDM+8EyTRIOejWVWoHZvkqL88QC/28rf0rSBvdBxiryxIou+KthwkFvBgfVXVjmzWCZhgkHvZRKrcBsqAHyxIou+AvVQjgIoYeEZRCqIk8cVKkVmA01QJ5Y0QV/oVoIByH0kLAMQlXkiYMqtQKzoQbIEyu64C9UC+EghB4SlkGoijxxUKVWYDbUAHliRRf8hWohHITQQ8IyCFWRJw6q1ArMhhogT6zogr9QLYSDEHpIWAahKvLEQZVagdlQA+SJFV3wF6qFcBBCDwnLIFRFnjioUiuebrbCqdCm02EYBtZkuKdTMhz22u12txvtdv/fMb9ez6US+TTrfOdUa+WlZ1hTkrSeGXq9n7fmLXOaMz03WRC31RRpWf6K/WHSa8/b3WW0y2eeViXNtXS6TJ3bfNa29rzVcaZRy85zYE/G68H+uLTmSpM6g/g8X1snn6jbWkuXDONATaqtZ9dWkrSae9usVtVcmCltaORrMV2e7q9brim0mJglSS57Uxun0E23Mkuu/mfV1EFuGddBZXJM6ZZ8xGXNcdBkkIVBNr057WPhUZ3dcJCHarBlTOmtfMQOZfRVllGIQZLk/y64c6omPlosLv/tln+Ok0Mi2V2bZBwzZgGd0MbJzi8WH7vHmD5EzUx94JmZpg21lEEm64HUM9382AuuR55+GH9QnjioUiseNttvMh2iNJ+PxCHH43lGsNlspKemnkwGynvitF7v0geIBoOuLJJPqx635o9LbGPO0CxpbaTBqitf5VMv1XZKD7FYRa+iOifxlXSNVkkrXabO6Oo0+YHQW1GSwKmTT822TKfjnxNLy6al5bJImqH7Yy29Fen5pN/N8j5YusN93vtKHyxpc8Y3s83uV7V6p4lTs7k83V+FrrllMbFMFIU6bdZz/+ujq/9ZNXWQW8Z1UJkcU591WXMctJpm7fb5012Uq/CovuUgD9Vgy5j6rB3K6KssoxKbTSwxj853T9V0yTT9X9JDx8nhIQekTlsJK3OY9HS+pN3y+hC1KtFyLaOlDSJekErMawRZkUeefhh/UJ44qFIrHjbbb3JPrcQ8x+NKpXe7pfaSGGy/vxwHaXq5qCY5qoB86qVKbs0flxzN4gf1O26m1TTSWd61qF/8zHDR9hAHVxfJKrqAvrJY6OTydSodTyv9G6E0uV69GCX9/HKgugZ53mgQt/VfIWlzreznL4XuvGVFsffxdO7VVCVu+cKvSvKLYJ4HVJQnVnR5ur8KXXPLYmIZ6eHieKzSZj33vz66+p9VUwe5ZVwHlckx9VmXNcdBcrjuFudPd1GuwqP6loM8VIMtY+qzdiijr7KMSmw2cx0XFZ6q6ZLbbRwE/yMo3xwnh4ccCfE2b9L1UCm0gCSmm4GyicQ/083QLW8eooUH3h3LaINIY+SQVk3SKvTIcw/jD8oTB1VqxcNm+03uqdWtcy9JnE7/ryEpTadD5TT5tO7tujX7oPH6MrQgv7FzmTdabKacIJ+SVpkt406uec9XOcSULqn0aJ1KEiZZAyqk4zyczr9ZklCLxLHSFal6dDH3J8BszOy66Sy/+yxVufeUrRoK/xxpiXUxpoo8saLLK/zluuaOxaSXkj5PPm+V0V9NHl29iuroILeM3opOl8kxZTb4/S77Kge5R/XrDu9XqKmWMWU25v12KKOvsowiigI9Hq/wVE2XDIL26npTq+Wf4+SQOOYHg3zqw6PwgJSEHK5qzI58bvJBrXqRe4gWHnj6q2sZ1yCmCpv03MP4g/LEQZVa8QqzWTniOnWvViQWkq8qra+myxmhsqIkxHimCc2TRbdmH7Q9xGoghHxKOrteLTA9o7orZQB1FU13YPpyoOToyw+ubR6qUxLSrRaOLLdyROrus76Qef9yoDRV3622Ft3JLCxzJ/8P8sSKLk/3l+ua7LbFlGWk2GQyuN9jFZqr/OpVVFMHWWVcB5XJKaz8Iy77HgcVHtW3HOSnmmqZwhU/Yocy+jbLmLp1qqZK7naLXq+jT948dJw6DOTgn6wH+pBoXa8syGfbyMzyY1VFXDrHTJiHaOEBVmiZO+W1bnnk/lp1kScOqtSKN5hND3gVSeLnc1DnH9PZbKSG0i6X09HockVNJGl9GaOwZk8U5SO89eiFZXp5wlVJP/+qD3rzwmE+JD3/J2xGeqy5aQ+VLl+n6lytEQ5KuuOUpqp+V4r1843KptVwW6nn/pB0a5BGoZOtzMIy+fiQp/1oemJFl6f7y3VNdttiRncVWva5//XR1Suqdg5yy7gOKpNj6rMu+x4HFR7VtxzkrRppGVOftUMZfaFltG6dqumSUmA8vhTw0HH68JBDS6e7y0hiqlN+WUGNzdElh0lPjn/1QJQuX3iIFh54rmW0tEEKVeiR5x7GH5QnDqrUileYzURlikOCoG29dEWcI6eA7Xar1+scDudjqNuN0vR8Zq8kackxazY35I/m21EQB/Kpvor30jw+UUrzdxBlP63Vu75P6XhKxCTteUty9NOBbmdWvk6xVut61dAys3Sc+tVJncX5OSgJn9Qd5GQ3U5cb5Q8xX7ukpGuLnFct3f+9sFY3m/TcsbyeWNHl6f5yXaNUaDFtmSSZWfZxv5o8unpF1c5BbhnXQWVyTOnaPuKy73HQraO60EHeqpGWMaVLfsQOZfSFltG6dapmlpQeSj2p66Hj9CEhB6FOp+fzonNAJWdH1vOBy3QiCQljzHULD9HCA08nMsOGStogltQqhR557mH8QXnioEqteLrZkLfKL12c3/riLnqzTvmrmZ74PhlPrOiCv5okfxxURg+5DAehV8gfyzxkhzLCMqi6bhnEfPulqacfxh+UJw6q1ArM9lVanGce+HET+SOSNriPAleRJ1Z0wV8NkycOKqOHXIaD0IvkiWUeskMZYRn0FD1kkKcfxh+UJw6q1ArMhhogT6zogr9QLYSDEHpIWAahKvLEQZVagdlQA+SJFV3wF6qFcBBCDwnLIFRFnjioUiswG2qAPLGiC/5CtRAOQughYRmEqsgTB1VqBWZDDZAnVnTBX6gWwkEIPSQsg1AVeeKgSq3AbKgB8sSKLvgL1UI4CKGHhGUQqiJPHFSpFfI3INQA+UneMPuHAyHfhIMQekhYBqEq8sRBfrQCABye3pnpSW+TZGbmr9dzyZRPt6SiZEmdYyUKC7tLH5U1vaCk9czr6/28NW+ZU23qaQqDuK1nITxlyTDpteft7jLaXSd3N2cwNNNl6tzmM4e2z/Mq2lN5ZvnUiuPrbIayOVlL1xzE5zlDZa31/rxr3BxTerthHKx254kaR0lfJZQkLTlmSSVrdZ0prarylltPOjOX1zkoCNqLxf//2HQ6DMPg1pzUZlrXoLiT+QrV1DL749I6YutlEFdfaBnz2DYTd5ber+QjqqmDVJpO5+n40QoAcHhFZ5blk7u32z+CqMGgO5kM5LOwvCm3pFtG59xZ9BTJT7Y5vbqk9Q/6YNWVr+bEgvqnPD3E0gfoVVTnJF2RdI1WSStdps7o2vcku5neipKcBXausx/ONkPp8/TqsmlpuSySZqj+2M0xpVeU/lJ64izvlaXCfd4fSzcpaXOaRfOvcL+q1TsVZlr0pDNzeZGDRGkaS8ik0vP5SAKn4zHfs7ORfLUKW+lfv75ONbXMMp3qs0ClehnE1fdYRun+AX//a2HOp1RTB2V0Oq/Bj1YAgMPTOzPdD0n4pNP7/TKKQknIp6QLy98p6fZtOufOoqdIfoKlw1C/2mZazdSe5V2L+n3PjF/w7SEOrt2MrKIL6CuLhZ1Z+TqVjqeVKq81MS65qU5Xrx7Ebf1XqGuEbo4pszPT3fnuuJAu8Hg692qSLixf+FVJek3zzOAhedKZubzOQdttHASXPS52OB5XKr3bXTxiFrbSv359nWpqmVHSz6+yq8v2543WyyCuvscySvcP+PtfC3M+pZo6KKPTeQ1+tAIAHJ7emRWe0k2nwzgeS0I+zTFIVvlbJVtX3LXcbk8Xtlb5s8bry0CC/Cr1ZWr26WYYb/N2bseSVpktY/CDvmooX1WfYUqXVHq0TiU557MGVEjHeThdzrP16lZCp90ca0Wt2bUxWT5gQ7biDo2wajBX14ukbdb1y/LypDNzeYWDFEHQXq2uR9GN8z8z/1YZ/dXEXPR01dEyklCL5CxNztVUPbqYmdY5Wj4YxNX3WEbJPeDLf1U5JtbSN6uODtLSleuETrs51opaPnjKEwf50QoAcHh6Z6b7Hn0P6nRK5FxQ90ySlhy3/J2SZhlrrTuLnqXtIVYDIeRT0tn1+pn+pdbX1dSvtrpmpjswfTlQclRfpUua6YfqlIR0q4XjyG/lmBc11cU/N6dwRWm8GlDhLrqTWVjmTv6v8qQzc3mRg3a7Ra/X0U6JokAN4RMdjyv5qgurMvLZbv/cBb+dMr5OtbaMSB3w9TKIq++xjNL9A/7+18KcD6rWDtI5roPcnMIVPfGUJw7yoxUA4PD0zkz1Q+ZzUMvldDS6XEUTSVpfWdfllW6VdPu2d0ZQ2XUUuB69sEwvz7Mq6add9S+1eeEwH5J+/j/MNiM91tztzMrXqTpXazyDku44tfTqsmk1AF3qUQPQ3ZzCFTf7uTVso7BDKtOZ5SNG6n050OVFDspyO4zHl0NCPwclkoR+DqrbjeJ4LOGTfEq6sJ7Cr69W7SwjTVWnqlKsn2+0XgZx9T2WUbp/wN//WpjzWdXOQVp6dddBbk7hip54yhMH+dEKAHB4emfWuqJfIyEndml6PjVRkrR5qmf2W7dKun2bztGbUxTmVNd8OwriQD7V1+4ySvOTLaU0f09R9vMXvHd9n9LxlEi30Z63JEc/0up2ZuXrlP6g5YxVUJKOU7+Oyaw8y58AVpcb5Q9RDxm7OdaKSpHz8qXCjsrKNFuoFzVgSLrLKxyk071eJ00vZy0SOAVB23oXn3ik0wlllU4n0iXdetTXp/vijmpnGTlH7CzOz0FJ+KRGJdXLIK6+xzJK7gF//6tlBzfns6qdg6zKsyIHuTnWikqeeMoTB/nRCgBweFFnhj4i9ViwHnfhlaRVUf1fi+SCg2otfyxT0SCusAx6g/xxkKuKnvLEQX60AgAc6MwapsV5ao7/AzP8kbTKfRS4vDzpzFxwUN3liWUqGsQVlkHvkScOclXRU544yI9WAIADnRmqhTzpzFxwEPJTWAahKvLEQX60AgAc6MxQLeRJZ+aCg5CfwjIIVZEnDvKjFQDgQGeGaiFPOjMXHIT8FJZBqIo8cZAfrQAABzozVAt50pm54CDkp7AMQlXkiYP8aAUAONCZoVrIk87MBQchP4VlEKoiTxzkRysAwIHODNVCnnRmLjgI+Sksg1AVeeIgP1oBAA5P78z0jIRB0F4sLi8SNSYqPKMy1+tZpxO12+1uN9puL/P66TJ6Qt5r4blkyqe7IcWdzCrScxQqSVrPpL7ez1vzljktoJ7LL4jbepLBU5YMk1573u4uo9117nZzKkAzXabObT7vYXve6jjTDmbnWeQn4/XALSN1BvF5VsROPtW9tZbeShgHalp6PT+9kqTV7PW6pJK1us6UNlR5jawrTzozl6c76HRKhsOe8sVu938mk+l0GIaBNaOuHOTaZaLFYnzfCy3DWfdL/lkNtkyZHFO6JR+xFZa5ZZmSFriVWXL1PwsHuS35Zgf50QoAcHh6Z6b7jzSNpfeyMk1Jx7bZ5L+z65lVUrqodvtHEDUYdCeTgXxalVg1F26oiuQH2pzRXNL653uw6spX+dRL9Q93eojlF1+vojon6Yqka7RKWukydUbXnibZzfRWlPbHZSef3NAtI5uWlssiaYbuj92tSM8n/W6W98HSHe7z3lf6YEmbcyaabXa/qtU7FaYydOVJZ+bydAfJca6uFEho1Otd9tR8PpKzwOPxvAtms5F8VflywMu5o15X0toChV6QzCgKCwsUlv+DGmyZMjmmPmsrLHPLMiUtUOiI8qv/WThICwdlRFAA3vL0zkz3ItttHAT3Iijp6haL8en0Yy5zXVLCJ53e75eq05JPSReWL/xaXfKDK52B+o0202oi9izvWtSveWb8Xm8PcXDtZmQVXUBfWSzszMrXqXQ8rVR5rYlzgU2XCeK2/iskbZbJfnZUuvPeHRfSvR1P5x5L0oXlC78qSY9ongdUlCedmcvTHRSGgT7I0/Tyb5cj/3hcqfRud7FDlh/w0+lAFUvTWE4ZtQUKvSCZcroZx2O3QGH5P6jBlimTY+qztsIytyxT0gKFjii/+p+Fg7RwUEYEBeAtT+/MWleCoL1aXa6c6UyFyjwek9ls1O1GEkqZo/jMqlRCzgtVjyWf5ngMq7z66m6oosbry7CBZTrVM69PN8N4mzdpO5a0ymwZgx/0VUP5qnoIU7qk0qN1Ko2SvjWgQjrOw+ly0mCVMfsSt18xGzO7bjrLh2dIne6wB6uGwj9HWmJdrawiTzozl1c4yLqsoDILv0pis5mPx+cTAvmUtLnIRGfKaaWcccqnzizcRBU11TJlckyZDX6/rbBM4dfyFtDeUTy6ehXhIJ2j9bUO8qMVAODwis4sO1/zW0hcpHu1+12LFHbH++l7UFKJBGO6G5O02Vm+rg/T2h5iNRBCPiWdXa+W6d9lfRVN/UarK2S6A9OXAyVH9VW6pJl+qE5JSLdaOGpcp60y5kXNO5f6pKlqsIS76E5mYZk7+X+QJ52Zy9MdpC+oy3GuLhxk5wvqgRqPlJ0vPazkq0qrA16dzykTaQsUekFlSrWTyeB13mmqZcrkFFb+EVthmTuWKWOBQkeUX72KcJBV+Tc7yI9WAIDD0zsz3Yssl9Px+HLxrLBrkW5vtZpKn7fd2k9Mmc9BST2j0aUekaT1rS235sINVVeUj/DWoxeW6eXpVSX9bKv+XTYvHOZD0s9/yGwz0mPN3c6sfJ2qc7VGLyjpjtMtI5tWw82lnvvDza1BGoWdTZmOKh8fUupSXxl50pm5PN1B+UMd+QEzG+kH//RDHSJJmA91ZPnjT+IL9UCUtkChF3RmFIUv9U4jLVMmx9RnbYVl7lgmK2GBQkeUX72icFCGg3L8aAUAODy9MzN7kV6vo0alt36ilqZp3OlErfzBXPVKCbOkfo1EtxtJSV2npCWncHO3NlRd8+0oiAP5VF+7yyjNrwsqpfk7iLKfv9e96/uUjqdEOon2vCU5+gFWtzMrX6f8+reckQlK0nGqVye5ZZLdTF1ulD/EfO2Ski4ZOa9asjZRmGluSy8qP9y8jDzpzFye7iA54ZOzwHa7JfY5HC4HTJaPZQ2Ctvtisex8lWEiieUyP/u5HvaFXtAJ8zlDa9FT1EjLlMkxpWv7iK2wzB3LZCUsYNpHLyq/ekXhINUSpW92kB+tAACHp3dm6INSjwXrcRcf1Cl/NVPJVx6VkSedmQsOqrX8sUwZPWQrLIPeIBz0avxoBQA40Jk1TIvz1Bz/B2Z8StIG9zHfKvKkM3PBQXWXJ5Ypo4dshWXQe4SDXoofrQAABzozVAt50pm54CDkp7AMQlXkiYP8aAUAONCZoVrIk87MBQchP4VlEKoiTxzkRysAwIHODNVCnnRmLjgI+Sksg1AVeeIgP1oBAA50ZqgW8qQzc8FByE9hGYSqyBMH+dEKAHCgM0O1kCedmYs0DCE/5Sd5w2yDI+SbPHGQH60AAAc6M1QLedKZueAg5KewDEJV5ImD/GgFADg8tzPTU+gqSbrfP88yrqcaXK9nnU7Ubre73Wi7vczlZ05WaFImU0+8+zq15q1kd9mKnpXPnLnPzFRzCyot0rG5SCmMAzXvu5lpzvenvwZx26xNaXl+b+xgsh5IPdPNj2kB1/t5EJ/nNOzkk9ln5ze3Dsq/udVzedKZuTzXQQg9S19iGTodOp0XyRMH+dEKAHB4bme2Wk0nk/+/sJKWnMzoroKgvdmcZxaXXi0MA5Wpl5b5amZKT9Zuv7w/a+UTouu0lbAyh0lP50vaLb/Zz9vztluJls5MD7H0WOai/XHZyeculO5QKtGdolJv2ZEcWSpdYH91PoeQdKf07IGey5POzOW5DkLoWfoSy9Dp0Om8SJ44yI9WAIDDczuz0ymRLko+rbTukHq9zmIxVpla93uvO51ZlvdnhQWeKOldJutBvB2rtM40C+jEdDNID+cLotIVTTdDt7x0ZlKbW4lb2/YQBz87s8n18p40ZndcqCZpBXFbTQwvn5JWmdKx6c3VWp50Zi7PdRBCz9KXWIZOh07nRfLEQX60AgAcntuZicbjvroEuFxOJa0ydX9zPCaz2ajbjaRXcwdU3Ppq4paxyj9d0rscT6swDuTT7ZzMtCSkrxrnnYd8StpcpDXbDN1Mt6R0SNYFP2nD4bQyc0wVNumQt9wtXDt50pm5PN1BCD1F32MZOh06nVfIEwf50QoAcHh6ZyZdlHRUWX7l71Z3JdrtFtUHVGTvuhyY5VfgJuuB2eXoa2/tnz2c6vZUF2KWV4n9cVlmQMXuuOgtO2oT1qJbki26lwN/Xasu8qQzc3m6gxB6ir7HMnQ6dDqvkCcO8qMVAODw9M5MFEXhej2TT52j+xvpwFar6emUSD9XvTN725B0lYgWoU53l5F0b9JtyKekzZLDpDdK+mpsutuZbfZzd4C7KZ25TKfj9eV6qpJ0V9IXuqsoDVZdNSRdVlRD0rO874wWXA58Ia9wEELV9VWWodOh03m6PHGQH60AAIdXdGbz+SgIAvnUObpDStO404nkq3R16ulec+mtryZW5qt7sszoXZLdTKfTQ9zJ+7bOIlJj0HXJZTqRhPQo5rqt6zAJ6cmkP7MylazNZflzurryLB+S7r4oSa8izQvidus8EiNYXzfBkPRXox0Ux/FsNptMJvv9/nA4uH+CK+O4PmNlBkF7sfi/u9drOUpa8lm4+p0clZAzyOGwp95IttvdPCXSq8u5ZpJc399lWDKOx6a1s/PQqcl4fD7G9LoKva42qVnPdDqUTcjfKAmVI5VIVWbNqIr8t8wTRafTotN5tjxxkB+tAACHV3Rm6EXKr+2dX4tk5Q9WXbdwlo+siHgt0otRDlos5JxDTiBmEj6NRqMkSXa7nftXFEqfollf5cxPXzIXDQbdyWQgn27JMjmyroq+JCpTQ54KpctvNgUX7N3wab9fdjqh+Zi+++foOwN6kVQigdPxeF5rNhupOqUSqepwaMLh6oM8twyqheh0Po4frQAABzqzemlxnprjxyiLO5KSTM3xapSD4jiWCGqfkyTDfr/f6/W63W4k0UMY3r8r5YYcKrHdxkFwiWEkUFFxiHxKunDF+zkSDukVzflzbpXfbOZWBOWGT1kemFk3jtw/R8rIuuYi+SuOx8vj6bvd5U/L8ujOfDM1qiLPLYPqIjqdz+JHKwDAgc4M1UKedGYuykHz+VxipPF4LMHS7kp6pXUe+XPzrpQbciiCoK3eMJblY95UECKfetibLumu61YuCeuFzoXSNURRYI6+k+1KQOWGXpJ5OPx4VZe5dfVVgiUpJp9mYwpXkarM226oijy3DEKeyxMH+dEKAHCgM0O1kCedmYty0HQ6VXefVqv+cnm+9bRYhO12e35+dqk1m83iON5sNu7flf9pBeHEbrfo9Tp6lhuJpq6hzTmysma8uVWVmaPvQcm6KhgrlFuDypzPRxLedLuRvnd0q3zhnyNbnEwGepGEZ2oIX3Z+2fRKvt5aHf1ZnlsGIc/liYP8aAUAONCZoVrIk87MRTlIvUBitRqo8ElCJgmfJGpqne/enFmtVuXvQamEntxGEqPR/1E0klb3ptxg405O/hzU+Z7SbDYyH6a6Vb4wc7uN+/0f65qDAwtrMKKmUKf1c1AiSejBgflgRe5BPUeeWwYhz+WJg/xoBQA40JmhWsiTzsxFO2g4HPZ6vU6nI+HTfD6XkGljcCt8yv+04pAjy+e3SdNFtxul6WWWmyx/w4TkuCvez5FYRQKndrsldd55W4Nbg5W5XP54VEnS5gsD3Rr0V2sWHQmcgqBtvosv4zmop8p/yyDkszxxkB+tAAAH+Y1AqBbyk7xhlx5XwqQkSZbL5Z2nnhom9YqLMk9Y/SqpRKq6E92hh1QLyyDkrTxxkB+tAAAHOjNUC3nSmbnU10EtB7dMGS0WEzXasKKkEuaDeqKwDEJV5ImD/GgFADjQmaFayJPOzAUHIT/lv2Va19vLYXhKktTK/O+sySALg2x6b3hn4XzTOqF4w0y4T5E1p62k+6vLBG7r/bw1b+m5a0V6btwgbuupb09ZMkx67Xm7u4x2x+vkB8a0uWa6TJ3bQyxVtc+T+f6fnFdreX7d+WB/XOoVVf1SZxAHrXyt9d7+5+uSYRysducHO0dJXyWUJC05Zkldc2GmtOG5L1L3xEF+tAIAHDj/Q7WQJ52ZCw5Cfsp/y+jEZpOGoZ35X6tp1m6fP52/UevOfNMqIeFTu12PIEoih8naeNRwPdBxxWDVla/mbLY6okgPsYQiehUVEUn8I/GYVdJKl6kzuoZAyW6mt6IkgVMnn3J3mU7HRrOzPBSUlssiaYYOArX0ViQkk2AvywM/idP2ecgngZ+kzZl8zTa7X9XqnadO5uuJg/xoBQA4FHRXCPknTzozFxyE/JT/lvkZQZ2szP+Kx9lucf50/kal+/NN64T1LhNvJZGARCkqeDDTElpIJJPl8YwKMzIjkNge4uAa28gquoC+nVUYQZWvU+l4WqnyWpPrnZ9R0s/vU6kbX+eNBnFb/xWSNtfKfkZQOmKUFSXuOp7OoZSqxC1f+FVJQjUz+KwoTxzkRysAwKGgu0LIP3nSmbngIOSn/LdM6zpaL4oKRvG5f9Et3Zpv2kpYaZ81Xl/Gs+U3di4PGU43w3ib/5nbsaRVphrD1spH3OlbVfLVvHtjlVR6tE4lCZOsUXwSrR1O5zniJKEWSeQj8Y+qRxdzAx6zMbPrprN8TKBU5Y7Hs2oo/HOkJdYtsiryxEF+tAIAHB7qqBD6lDzpzFxwEPJT/lum0DuFmXf063zTtbsHleU3f9ToO/mUdHa9jWPGNipGUsGDunWjoyZ9D0pyVICkS5rph+qUhMRyhY8zWTkiNSrPvJN25x6UNFWVdxfdySwscyf/D/LEQX60AgAcHu2uEPqIPOnMXFrOW9cR8kR+kjdMm7rQ6XbmHf0637RK1Og5KCX16JEeMrdML69VUNIvXdABg3m3Kn8OKp8+ezPSDzi5EVT5OlVEZw2rU9LRmjRVBXtSrJ9vVDatnoOSeu4/B2WNDCyMgspEUPmgRO5BAcBb0N1VHMez2Wwymez3+8Ph4P6auNKX/axuqfC1SCZ3SrrSa4VhkCTXUQpGJXE8ns9H5irL5WQ8Pg+GbhltM1eZTodSmzmbp5TnTco+y5PODAAq8twI6tf5pnUPUqPwSTTfjoI4kE/1tbuM0jw+UUrzl+NlPwMJ/RK/4ymR6KU9b0mOfrOCG0GVr1PCkpYzZE5JojX9vr7O4vwclIRPalxfspupe1zyh5jv+lPStUXO+/0KoyM3gnKbxHNQAPA+VHe1WMjPrvyEzSR8Go1GJecDVV2Ue23PfS2SWd7UrZKFa202sYQ9VqYbPu33y07nMsWnFFNPGJurSHkJnI7Hc4HZbKRWl/KyFrN5eitPOjMAqMijMRLyWepdFO5jV++XtCHiXXwA8DZUZxbHsURQ+5wkGfb7/V6v1+12I4k/wvDWXSkdk5jjywtfi2SV/7Vk4VqbzdyKoNzwSSQhmb6bJMXkq3rIWNcjmzsez1fIRLvdpQ1ZPjGoFLZqQ57Ik84MACpCBNUwLc7zQT1hTu2Kkja475+oIk86HT9aAQAOqjObz+cSI43HYwmWdlfSK/n4h4K7UmZEpNOFr0Vyy98vaa2liKLAHJIna0lAlab2yGzJPBwuAZIUk2BJcuRTb91qhv4qa+kIDb1Z/f6x5TzFIZm6gCedGQBUhAgK1UKedDp+tAIAHFRnNp1O1d2n1aq/XJ5vPS0WYbvdnp8fU2rNZrM4jjebjfP7cok99D2oW69Fssr/WrJwK1bmfD6SmKfbjfQNJbe8SkusNZkMdL5EYmoIn0jWla+F66J3arNJzdhJSTJ1AU86MwCoiOp0EPJcnnQ6frQCABxUZ6ZeILFaDVT4JCGThE8SNbXOt3rOrFarW/egzOegbr0WySyvdL+kqcKoRmdut3G//+MxqjAM3EkVoyjUaf0clEgSehxgPqqQe1Afk3UbyrwBlXnTmQFARYigUC3kSafjRysAwEF3ZsPhsNfrdTodCZ/m87mETBsDN3zKf18u6MF1t16LpMvr9P2Spu5HUFn+5j3z+SVJLxb/n4NSCWsmEAmcgqBtvosv4zmoT8u6DWXegMq86cwAoCJEUKgW8qTT8aMVAOBgdmYSJiVJslwuC596qovUCypujQm8JSkva/Euvs9K34aybkBl3nRmAFARIihUC3nS6fjRCgBw8Koz0ze1NG6ZMlosJuPxY68GkvLMB/Vx6dtQ1g2o7EZndjwe89dIAkBt8KrTQeiWCjud9+NHKwDAgc4MeaV+/+jegMpudGaLxWI0Gtm5AOAxT+909BW3IGibQ7hNVOZ6Pet0ona73e1G2+1lGLku87ep4Qszq0hPjKsk6f6qo9Lr/bw1b5mz0+opZYO4rWa2zfKZkYZJrz1vd5fR7nhzRt3ydW7zyXbb81bHmf1WtDy/zXzglpE6g/g8Fa/krPf2dMZ6K2EcrHbnp6BHSV8llCQtOWZJJWt1nSlt4G3mAPA+nt6ZIVRFm03q3oDKbnRmnU5nu92qNPejAGrB0zsdHbekacGs66YkxNps8pP79cwq+eep4Qs3VEUSOUzWxpO964GOKwarrnyVT71URxTpIZZQRK+iIiKJfyQes0pa6TJ1RtcQKNnN9FaU9sdlJ59R1y0jm5aWyyJphg4C3a1IuCXBXpYHfhKD7fOQTwI/SZsT9Zptdr+q1TvMqAsAb+PpnRlCr5AcqBIgzWaz0+mkDl2JnSSC0kcy96MAasHTOx0dw2y3cRDci6B6vc5iMbaektUl/zY1fOGGqkgiAYlAVPBgpiW0kCgly+MZFWZkRiCxPcTBNbaRVXQBfTurMIIqX6fS8bRS5bUmzp0fXSaI2/qvkLRZJvsZQemIcXdcSNx1PJ1DKUkXli/8qiShmhl8VhQRFADc4+mdGUKvkByoh8NBYqQwDFerlRy1kpaoSR/J5v0oAPCWp3c6l/Fz+Sg+PSuGzlSozOMxmc1G3W4koZQ5is+sSiXuTPhulldf3Q1V1Hh9Gc+2TKeSVpnTzTDe5k3ajiWtMtUYtlY+4k7fqpKv5t0bq6TSo3UqjZK+NYpPorXD6ceUjLqMGeS4AY/ZmNl101k+JlDqdMfjWTUU/jnSEusWWRURQQHAPVrONKYI+SmFhEndnHa7fTwedaZ5PwoAvCX3sn22WkUqbtntFhIX6ftL94MZKeyO9/vD1PDu16doe4jV6Dv5lHR2vY1jxjYqRlLBg7p1o6MmfQ9KclSApEua6YfqlITEcoWPM+m0Vca8k3bnHpQ0VY3icxfdySwscyf/D9KdzmfxoxUA4OCepyLkp0xGo5FEUOPx+HA4qK/m/SgA8Jbcy/bZahXpGGa5nOq3sBYGNhI1rVZTCYe2W/uJqb9NDe9+fZbUY0V6yNwyvbxWQUm/dEEHDObdqvw5qPMfMtuM9ANObgRVvk4V0VnD6pR0tOaWkU2r56CknvvPQVkjAwujoDIRVD4okXtQAAAAN+h0OpvNZjabBUGgPvX9KADwmddFUFn+pFOank/i9R0khVqapnGnE8nXKArVKyXMkn+YGv7Whqprvh0FcSCf6mt3GaX5zSilNH/xXfYzkNAv8TueEole2vOW5Og3K7gRVPk6JSxpOUPmlCRaU+/rc8sku5m6xyV/iPmuPyVdMnLe72dtojDT3JZexHNQAAAANzHH7O33e0m32+0kSX6WAgAfeXoEhT4o9S4K97Gr9+uUvw+Qd/EBAAAU475DQr7KZ7/f3+12RkEA8A4iqIZpcZ4P6rEp7F8haYP7/okqIoICAIBGEcdx4TsklstlEATj8ZgRfQDeQgSFaiEiKAAAaCzW/ajT6TSdTiWOYnZdAD8hgkK1EBEUAAA0FvN+lGa/3w8GgyiK1uu1tQgAPgsRFKqFiKAAAOAb2Ww2PBwF4BtEUKgWIoICAIDvZbFYBEEwmUzcW1UA8H5azlRvCPkpH/CjFQAA8H1I7CQRlMRRzLoL8HHyE1P7ej9CvokICgAAINvtdv1+X03Fay8DgHdBBIVqISIoAACAC+v1OoqiwWCw3+/tZQDweoigUC1EBAUAAPCDOI6DIJhOp6fTyV4GAK+ECArVQkRQAAAANsfjcTweh2G4XC7tZQDwMoigUC1EBAUAAFBMmqa9Xq/T6Wy3W3sZALwAIihUCxFBAQAA3CNJkiiKhsMhD0cBvBoiKFQLEUEBAAD8znw+D4JgNpvxcBTA69ARVBzHYrfJZLLf7w+Hg3sKW6jpdBgEbZEkdGar1UqSmU7r/PV6Ll/l063HXFcRhkGSTN1K4ng8n4/MVZbLyXg8UGl3E3pdXbNum6wl65pVIW9FBAUAAFAKOY0bjUZhGK5WK3sZADwDFUHlk7NJ1DGT8ElMlyTJbrdzz2ItSSQzm41Op+R4XEkEJenryW4rikKd1uUHg+5kMpBPtyotXX6ziSWIsjLd8Gm/X3Y6obRBfXU3YUZQ8inhU7t9CaJkLVn3cFiaFSI/RQQFAADwAOrhqG63y8NRAE9HRVBxHEsEtc9JkmG/31emiyQSCsNbd6WiKJDYSX81Ax4JYyTaUWmVKaGOCqvkU9JubXpdldhs5lYE5YZPItmQvo9UuAkrgsryIEqnF4uJ1GDViTwUERQAAMDDrFYrOZMbjUb5mRwAPAcVQc3nc3HWeDyWYGl3Jb2Sj3wruCtl3l8yv0pCIiuJf+RTZ06nQxVTyac55M9S64qEZ+ZQQFlLKkzThVVeMg+HSxRXuAk3gjLTsq6O09AH1e8fZZ9YkkxdgAgKAADgL5xOp9lsFgSBnO3xcBTAU1AR1HQ6VXefVqv+cnm+9bRYhO12e35+qqglvovjeLPZWGe9KkbK8ps/Eop0OtH1ZPdyy2gyGaj06ZQEQVtHR5LW4+4smXGOmTmfj2QT3W5k3vUyy9/ahC6gE+Y9KDMffVCbTepGUJKpCxBBAQAA/B0ejgJ4IiqCUi+QWK0GKnySkEnCJ4maWuebP2fEbu49qNns8hzUYNCVxHptvz0iikKVXi6no1Ffryjp1erylghLhfGMztxu437/x2NUEsWpAXu3NmFFUOZzUNll4B/3oLyQdRvKvAGVEUEBAABUZ7vddrvdXq+Xpqm9DABKoyIo0XA4VLOxSfg0n88lZNoYuOGT0mQykFgrCNqyquh6smvf7el2ozSN9VqSlhy3NnPdW5nL5Y8nlyS9WJyfg7q1CTOCUujwKeM5KJ9k3YYyb0BlRFAAAADPYrlchmE4Ho95OArgb+gISiRhUpIkYqvCp55+lRnAvE3q7RG3xgTel6wl6/IuPn+kb0NZN6AyIigAAIAnYj4cZS8DgN8wI6g3S98U0rhlymixmIzH/8fvlZesxXxQXknfhrJuQGVEUAAAAE9nv98Ph8MoipIksZcBwG0+GEEh5KrfP7o3oDIiKAAAgBex2Ww6nU6/388HIAHA7xBBIa+02aTuDaiMCAoAAOClLJfLIAjG4/HxeLSXAcBPiKBQLUQEBQAA8FokdppOpxJHxXFsLwMAAyIoVAsRQQEAALyD/X4/GAyiKFqv1/YyAMhRD+4j5L98wI9WAAAAvBgejgK4g3ueipCf8gE/WgEAAPAWFotFEASTyYSHowDAT5iSwX+IoAAA4LuQ2EkiKImjJJqylwEAfJp8RizwGvYQAAB8I7vdrt/vdzqdzWZjLwMA+BxEUP7DHgIAgO9lvV5HUTQYDPb7vb0MAOATEEH5D3sIAAC+nTiOgyCYTqen08leBgDwXoig/Ic9BAAAcH44ajweh2G4XC7tZQAAb4QIyn/YQwAAABfSNO31et1ud7vd2ssAAF7AfD5v/QZv5/MNIigAAIAfJEkSRdFwOOThKAB4Py3uQXkPewgAAKCA+XweBMFsNuPhKAB4J0RQ/sMeAgAAKOZwOIxGozAMV6uVvQwA4DUQQfkPewgAAOAePBwFAO+ECMp/2EMAAAC/s1qtwjAcjUaHw8FeBgDwV3iTRB0hggIAACjF6XSazWZBEMjZDA9HAcCLaHEPynvYQwAAAA/Aw1EA8FKIoPyHPQQAAPAw2+222+32er00Te1lAAAVIILyH/YQAADAH1kul2EYjsdjHo4CgGdBBOU/7CEAAIC/Yz4cZS8DAHgcIij/YQ8BAABUZb/fD4fDKIqSJLGXAQA8AhGU/7CHAAAAnsNms+l0Ov1+f7fb2csAAMpBBOU/7CEAAIBnslwugyAYj8fH49FeBgDwG0RQ/sMeAgAAeDISO02nU4mj4ji2lwEA3IUIyn/YQwAAAC9hv98PBoMoitbrtb0MAOAGRFD+wx4CAAB4ITwcBQAPQQTlP+whAACAl7NYLIIgmEwmPBwFAPchgvIf9hAAAMA7kNhJIiiJoySaspcBAFwhgvIf9hAAAMD72O12/X6/0+lsNht7GQAAEVQdYA8BAAC8m/V6HUXRYDDY7/f2MgD4boig/Ic9BAAA8BniOA6CYDqdnk4nexkAfCtEUP7DHgIAAPgYx+NxPB6HYbhcLu1lAPCVEEH5D3sIAADgw6Rp2uv1ut3udru1lwHAl0EE5T/sIQAAAC9IkiSKouFwyMNRAN8MEZT/sIcAAAB84XQ6zefzIAhmsxkPRwF8J0RQ/sMeAgAA8IvD4TAajcIwXK1W9jIAaDpEUP7DHgIAAPARHo4C+E6IoPyHPQQAAOAvq9UqDMPRaHQ4HOxlANBEiKD8hz0EAADgNafTaTabBUEwn895OAqg8RBB+Q97CAAAoAYcDofhcMjDUQCNhwjKf9hDAAAAtWG73Xa73V6vl6apvQwAGgERlP+whwAAAGrGcrkMw3A8HvNwFEDzIILyH/YQAABA/TidTtPpVD0cZS8DgDpDBOU/7CEAAIC6st/vh8NhFEVJktjLAKCeEEH5D3sIAACg3mw2m06n0+/3d7udvQwA6gYRlP+whwAAAJrAYrEIgmA8Hh+PR3sZANQHIij/YQ8BAAA0BImd1MNRcRzbywCgJhBB+Q97CAAAoFHs9/vBYBBF0Xq9tpcBgPcQQfkPewgAAKCBSPjU6XQklOLhKIB6QQTlP+whAACAxqIejppMJjwcBVAXiKD8hz0EAADQZCR2kghK4iiJpuxlAOAfRFD+wx4CAABoPrvdrt/vdzqdzWZjLwMAnyCC8h/2EAAAwLewXq+jKBoMBvv93l4GAH5ABOU/7CEAAIDvIo7jIAim0+npdLKXAcCnIYLyH/YQAADA13E8HsfjcRiGy+XSXgYAH4UIyn/YQwAAAF9Kmqa9Xq/b7W63W3sZAHwIIij/YQ8BAAB8NUmShGE4HA55OArAB4ig/Ic9BAAA8O2cTqf5fB4EwWw24+EogM9CBOU/7CEAAAA4czgcRqNRGIar1cpeBgDvggjKf9hDAAAA8B8ejgL4LERQ/sMeAgAAAJvVahWG4Wg0OhwO9jIAeCVEUP7DHgIAAIACTqfTbDYLgmA+n/NwFMDbIILyH/YQAAAA3ORwOAyHwzAMkySxlwHACyCC8h/2EAAAAPzCdrvtdru9Xi9NU3sZADwVIij/YQ8BAABAKZbLZRiG4/H4eDzaywDgSRBB+Q97CAAAAMpyOp2m02kQBHEc28sA4BkQQfkPewgAAAAeY7/fD4fDKIp4OArg6RBB+Q97CAAAAP7CZrPpdDr9fn+329nLAOCvEEH5D3sIAAAA/s5isQiCYDKZ8HAUwFMggvIf9hAAAABUQmIniaB4OArgKRBB+Q97CAAAAJ7Afr8fDAZRFK3Xa3sZAJSGCMp/2EMAAADwNCR8kiBKQikJqOxlAFACIij/YQ8BAADAk4njmIejAP4GEZT/sIcAAADg+eiHoxaLhb0MAG5DBOU/7CEAAAB4Fbvdrt/vdzqdzWZjLwOAIoig/Ic9BAAAAK8lSZIoiobDIQ9HAfwKEZT/sIcAAADgHaiHo6bT6el0spcBwBUiKP9hDwEAAMCbOB6P4/E4DMPlcmkvA4AcIij/YQ8BAADAW0nTtNfrdbvd7XZrLwP4eoig/Ic9BAAAAB8gSZIwDIfD4eFwsJcBfDFEUP7DHgIAAIDPcDqd5vN5EASz2YyHowAURFD+wx4CAACAT3I4HEajURiGq9XKXgbwfRBB+Q97CAAAAD7Pdrvtdru9Xi9NU3sZwDdBBOU/7CEAAADwhdVqFYbhaDTi4Sj4Woig/Ic9BAAAAB5xOp1ms1kQBPP5nIej4AshgvIf9hAAAAB4x36/Hw6HYRgmSWIvA2g0RFD+wx4CAAAAT+HhKPhCiKD8hz0EAAAAXrNcLsMwHI/Hx+PRXgbQOIig/Ic9BAAAAL5zOp2m02kQBHEc28sAmgURlP+whwAAAKAe7Pf7wWAQRdF6vbaXATQFIij/YQ8BAABAndhsNp1Op9/v73Y7exlA/SGC8h/2EAAAANSPxWIRBMFkMuHhKGgYRFD+wx4CAACAWiKxk0RQEkdJNGUvA6gtRFD+wx4CAACAGrPb7QaDQafT4eEoaAZEUP7DHgIAAIDaI+FTFEUSSu33e3sZQK0ggvIf9hAAAAA0hDiOgyCYTqc8HAX1hQjKf9hDAAAA0BwkdhqPxzwcBfWFCMp/2EMAAADQNHa7Xb/f73Q6m83GXgbgN0RQ/sMeAgAAgGaSJEkURcPhkIejoEYQQfkPewgAAACazHw+Vw9HnU4nexmAfxBB+Q97CKAhyO8tQs0QwNM5HA7j8TgMw+VyaS8D8AwiKP9hDwE0hPz3do1Q3cWZA7yONE17vV63291ut/YyAG8ggvIf9hBAQyCCQs0QZw7walarVRiGw+HwcDjYywA8gAjKf9hDAA2BCAo1Q5w5wBs4nU7q4ajZbMbDUeAbRFD+wx4CaAhEUKgZ4swB3sbhcBiNRmEYrlYrexnA5yCC8h/2EEBDIIJCzRBnDvBmttttt9vt9XppmtrLAD4BEZT/sIcAGgIRFGqGOHOAj6AejhqNRjwcBR+HCMp/2EMADYEICjVDnDnApzidTrPZLAiC+XzOw1HwQYig/Ic9BNAQvjOC2mzSTufUbmfyKWnJSdNtt3vUBXq9o+QUlmzZcxAV5KjMxWKnK5R04b96NtuHYSb1yxZ3u/MW1bq6gFmhTijJKsfjxso02/BVyv9qgI+x3++Hw2EURUmS2MsA3gIRlP+whwAawneebQdBpsKhJEnD8KQyJ5ODinnkU9J3SmY3ghxTktnt/i8vabfYfL6P493ptDmdzhvV5QsrtxKy1nh80O10K/82ceYAPsDDUfBBiKD8hz0E0BC+88y70znNZnt9z0dJYhLJT9NtFJ0kfadkdiPIsQpIhKOir/U6lbRbzNyQta6bdhPH40YCPHeV7xRnDuAPy+UyDMPxeHw8Hu1lAC+DCMp/2EMADeE7z7z3++1gcJS/XSIQCW90fpKk7Xa2Wv3PuVXSCnJM6czt9ryupOVT0u6/2ixsrVtY5v5Stw1fpfyvBvCF0+k0nU6DIIjj2F4G8BqIoPzn3XvIOjlAyFvVjrzN9snol+h43Mzne30bR6nwH+KWNIsVrqIy1dNT8llYLIpO+kEms0Bh5W5C1tUDC93Kv011dB80nv1+PxgMoihar9f2MoBnQwTlP+/eQ5wcoFqojr9d32kuCV3UjSYJb8ynmzInFLlVsjDIMaUy43jXbmfyWVhMPwclsVAc73WBbve0XJ5XSZJL9GWurhOz2X404jmoi+roPvgSNptNp9Pp9/u73c5eBvA8iKD85917iJMDVAvV8bfrO8213W4lMpG/XQIkSZuLrH/IrZJWBGXKLCChkURQ6kaTtUhJvYuvlb92Qr+7TzYkm7M2aq6u1O/zLr7/yv9qAH9ZLBZBEEwmEx6OghdBBOU/795D33lCgGqnOv52YS7UDNXRffBtSOwkEZTEURJN2csAKkME5T/v3kOc5KFaqI6/XZgLNUN1dB98J7vdrt/vdzqdzWZjLwOoABGU/7x7D3GSh2qhOv52YS7UDNXRffDNrNfrKIoGg8F+v7eXAfwJIij/efce4iQP1UJ1/O3CXKgZqqP7AOI4DoJgOp3ycBRUhwjKf969hzjJQ7VQHX+7Ws4L2RGqqQDqiMRO4/FY4qjlcmkvA3gEIij/efceyg8J+2y1MVLTxbTbmZo6RnLSdNvtnifiVOr1jpJTWNI5gSjIUZn6NV8iSbv/UslJksuEoebSyeQgWwzDbDrd66XuRtWi02kzGp3Ld7sn1ebC8k1V/tfVjGbvEfQ9qqP7ADQ8HAXVIYLyn3fvoWaf5AVBpsIhCWD0hDMSt6iYRz4lfadk9jPgKfxftfJ3JeuvknaLSY4788xstpetH4/n+Womk/18fgmizDJmWqIskcRRhfPYNF51/O36nr2Dmq06ug/AIkmSKIqGwyEPR8EfIILyn3fvoWaf5EmkIYHKbvdjUhoJQiQ/Tc/Twkj6TsnsRjBjFRiPDyr6Wq9TSbvFJEeCHxW26aUSpx0Ol61LQhpjlnfTUkCXd5c2XnX87fqevYOarTq6D6CQ+XweBMFsNpPu314GcBsiKP959x5q9knefr8dDI7yNwaBxDeXcXRZfqOp3c5Wq/85t0pawYwpnbndnteVtHxK2v2XSs7xeI6RJGAzVzTLSHvM8m7arVZluk1qpPK/rmY0e4+g71Ed3Qdwi8PhMB6PwzDk4SgoDxGU/7x7D33DSZ5EL/P5XkIjM7PwD3dLFgYzplSmenpKDa5zi6mcON7NZnu91LynVOYelHnPyl3aeNXxt+t79g5qturoPoD7pGna6/W63e52u7WXATgQQfnPu/dQs0/yJCxRN5okvDGfbsqc2ONWycJgxpSOjtrtTD4Li6mc0+m8Fb3053NQB/lqlbfS+jmo1Wqnn7xyt9VU1fG363v2Dmq26ug+gDKsVqswDEej0eFwsJcBGBBB+c+791CzT/K2222ncw5aJHTJrzP9X2T94bdKWsGMKbOAREESQcmnuYqbWC5/vKlPIqIgOI8bnEz+h09meTMtsdNweH4Xn7RTP69V2KRGKv/rakaz9wj6HtXRfQAlOZ1OPBwFv0IE5T/v3kOc5KFaqI6/XWYIrRSGJ/1e+wJNBlkYZNOBnf//n3AhDIMkmarM0ykZDnvtdrvbjXa7pS48nQ6lWBC0JeHWkCQzN1NhbfSzas1bye7SVElbCStzkU50/iIdm4uUwjhY7S7/N52pZGUGcdusTWmZTsbrwWQ9kHqmmx+7ab2fB3EgK3YW4Xp/brCUXDo11FR1dB/AQxwOh9FoFIbharWylwEQQdWBd+8hIihUC9Xxt8uMoFQiHyN6SRdoNc3Obzi5nOK70uHNZhNLdKTSk8lgvZ5n57fzT3q9jsqcz0cSOB2PSXYeLzqSr2YNEj612/+DKN+iJlMSk0SLUKethJU5THo6X9Ju+c1+3p633Uq0dGZ6iCVMMhftj0uJjk5ZIjGYVKIjMaXesiM5slTirv7qvBckLeUPp/8xbX1VR/cB/IHtdtvtdnu9Xpqm9jL4boig/Ofde4gICtVCdfztuhFB/Xge74ficbZbnD/dRZd6rpHAZq4jKEns95fT9DRdqEQUhcfjSqV3u6V8tWqQ8EmnPY+gJutBvD3/T9yIyMqcbgbp4fwfkPhnuhm65SWCktrcStzatoc4+BlBTa73lKQxu+NCNUkriNsSMmV54CRplSnRlN5crVVH9wH8GR6OAhciKP959x4igkK1UB1/u8wISimK7o7i+03XcXatKArMO0in0/nc3SpZ+NXMNzNNrKo+KwlpjqdVGAfy6UZEZloSEiCN84hFPiVtLtKabS5jGs1Mt6REQdZdJmnD4XQJSl0VNumQt9wtXDvV0X0AVTidTrPZLAiC+XxuL4OvJO8cwWvevYf0uR1Cnqt25G3WJ6D2WekfVBje6HtQEkfF1/tXEmKpIXzZ+TUnK/lq1VCje1BZfttnsh6YcY6+4dP+GVapWEvFLWZ5ldgfl2VG8e2Oi96yozZhLbol2aJ7D+rXteqiOroPoDr7/X44HEZRlCSJvQy+DCIo/3n3HnrWuR1CL1Udf7veE0Hlz0Gd70fNZqPBoKsy9XNQIknU+jkolYgWoU53l5HEVBKryKekzZLDpDdK+uqBKDeC2uzn7lNVpnTmMp2O131zkcRIEoC5qygNVl31HJSsqJ6DyvKALVpwDwqg3vBwFGREUHXg3XvoWed2CL1Udfztek8EJTGSBE4SEfV6ncPhx7v4gqDdgHfxqUSym+l0eog7eUDVWUTqwSddcplOJCFhjLlu6zo2T8InCaKsTCVrc1n+cghdeZY/B+W+nU+vIs0L4nbrPPwvWF83wXNQAI1huVyGYTgej4/Ho70MvoC8cwSvefceeta5HUIvVR1/uzBXk5TfUDq/i8/KH6wu9/0sScmId/EBNIjT6TSdToMgiOPYXgZNhwjKf969hzjJQ7VQHX+7MFfDtDjPB/VjaN8dSUnmgwJoHvv9fjAYRFG0Xq/tZdBciKD85917iJM8VAvV8bcLc6FmqI7uA3gpm82m0+n0+/3dbmcvgyZCBOU/795DnOShWqiOv12YCzVDdXQfwBtYLBZBEEwmEx6OajxEUP7z7j3ESR6qher424W5UDNUR/cBvAeJnSSCkjhKoil7GTQIIij/efce0id5reusO2F4d9LPySALg2x68wVTLeM1X+Z7vabTYRgG1pvB/Jf1Pi5J61cVr/MpO/V7t7L8rVxKQdzWr+06Zckw6bXn7e4y2l3fhmy+8stMl6lze4ilqvb5RWT/XyymtTw/qjFwy0idQRy08pz1/v972KythHGgJhIdJX1zRlFJS45ZUslaXWdKG577EEgdf7uIoFAzVEf3AbyT3W7X7/c7nc5ms7GXQSMggvKfd+8hM4JSic0mDcNLukCradZunz/dRZd6WlF0nXHlGkHp2WmyfNYaPTuN/5LIwXwfsaR1XDFYdeWr+SYuHVGkh1jN6alWURGRxD8Sj1klrXSZOqNrCJTsZnorSvvjspO/LswtI5tW89VIM3QQ6G5Fwi015aiUlBhMTYAjgZ+kzbeQmW12v6rVO099EVkdf7uIoFAzVEf3Abyf9XodRdFgMNjv9/YyqDlEUP7z7j10I4I6uZ3oRfE42y3On+6iSz2tyWQQ5wV0BCUx1fG4UundbqlDLP8lkYBEICp4MNPq1cZZHs/oeTZ1ILE9xME1tjEn4rTmrrHS5etUOp5WenpQpYlz50eXCeK2/iskbZbJfkZQOmLcHRcSdx1P51BK0oXlC78qPXcynDr+dhFBoWaoju4D+BRxHAdBMJ1OeTiqSRBB+c+795AZQSlF0d1RfL9JDjIJlsIwkE8dQZnD+dyvnmu8voxnW6ZT/S7j6WYYb89RonxKWmWqMWytfMSdvlUlX905ZHRJpUfrVBolfWsUn0Rrh9MlUrXKmEGOG/CYjZldN53lYwKlTnc8nlVD4Z8jLbFukVVRHX+7Ho6gSgyRVYi/kuR6gN0YN7tey85oyae5+mLxf1cuFmPToSa6zGdV0zG0Ki2b05cq3DG0bo4pvV1PRtXW0X0AH0Rip/F4LHHUcrm0l0E9yXtG8Jp37yEzgnI7zj9InX7F8XgyGehTsSgK1BA+kURW8tVd0VvJOZMafSefks6ut3H0CYq+vaNOVtStGx016XtQkqMCJF3STD9UpyQklis88dJpq4x5J+3OPShpqhrF5y66k1lY5k7+H1TH366HPVViiKxKbDaxBFE60x03KxoMuuJB+TRXHw57+qukdXl/oiZTNR1DK+nZZiiBll7dHUPr5pjSK3oyqraO7gP4ODwc1SSIoPzn3XvoRRFUlo/c02n9HJRIEjV6DkpJnTbpIXPL9HIBWElfHtYnLubdqvwc7nzKNduM9MmZew5Xvk4V0VnD6pR0tOaWkU2rMzap5/4ZmzUy0D0bczMLy+SDEp8WKtfxt+thT5UYIqsSm83cjKDccbP7/WWsrHxKWpecTgdpej4q0jQWJ3oeQZ1qO4bWMq87htbNMWX60YdRtXV0H4AnJEkSRdFwOOThqFpDBOU/795Dr4ugkmRmnpbJ6VoQtGv3Lj6l+XYk50/yqb7KGUya34xSSvOBPdnPExc9AEnOeCR6ac9bkqOvAbvncOXrlLCk5YzbUZIzJDXWyC2T7GbqHpf8IeY4JSVdMnLGJlmbKMw0t6UXVTljc1XH365neUqrdSWKAnPknjtuVlymYir51I6TpRJ6jcfnnSKfkjYjKBN3059SrcfQ6sp1QqfdHGtFLR9G1dbRfQBeMZ/PgyCYzWan08leBnUg7xnBa969h55+koc+KHUd3T1lfL9O+fsA/zxqyFUdf7uebq7C2EZlmuNmT6ckCNo6HJK05OiSKtZSt7B0hYU1+6CajqG1ctwxtG5O4YqejKqto/sAfONwOIzH4zAMeTiqjhBB+c+799DTT/LQZ7U4P8v+fzTgpyRtcK+UV1Edf7uebq7COEdn6nGzy+V0NDJGhI76q/zZKrV0OOxJjnogyv8IKqvhGFotvbo7htbNKVzRk1G1dXQfgJ+kadrr9brd7na7tZeBxxBB+c+799DTT/IQeoXq+Nv1dHMVxjk6U4+b7XajNDVGhKax5OiSy+VEEhJlmeu2fmJt4rOq3Rhaq/KsaAytm2OtqOTJqNo6ug/AZ1arVRiGo9HocDjYy8APZNdYPaOm3W6z4zzk3T3V00/y/rV3hlCq80AURlbWIiuRWCQSicQikUhsZSWyFlmJRGKRSCQWiew/zcBsNilN+78um7D3O/dwQpKm5T2y6SXTBIJ+QiHew6Fz/Sn5E0Nr6x+jakPsfQB4zv1+x8NRnjOfV+stGVDmer02qwIPePdIhZs8KAiFeA+HzvXX5EkMra1/jKoNsfcBEATX63WxWAyHw91uZ5aB38aehppMJmR6MQHlJ+8eqXCTBwWhEO/h0Lmgz1CIvQ+AgDgej+PxmO7OT6eTWQZ+FWMaChNQPvPukQo3eVAQCvEeDp0L+gyF2PsACA48HOUh+jQUJqA8590jFW7yoCAU4j0cOhf0GQqx9wEQIvf7fbPZ0G16mqZmGfglZBoKE1Ce8+6RqvNN3mpWDuNy/XJNJzHrjGS2KW1u5Fcki3qxKC1LD+8v6SAd6OtoyeJXcRbJqlz3spgXkyiNxnlyfi52rK+dpafbtHlUC4VF6WBkrdNVqj03l/uZXYfajLNqGbGRWhu6NkeXnHeYxbyysyzxzKI0LwAtNVnG4ZJJV/XXnsTo3LkgyEuF2PsACJfL5UI360mSFEVhloG3w9NQ4/EYE1Ce8+6RqvNN3m5dRlH1ahdpMmxPp7e1Ob8l8gn6EsCUFhcx243prWwyU2pe6HTNyHjIIeyIyP/w3qB6TSPdpk3eHqdUCyLLWViXWz5Sq4HZdejUvP8MXQabQDtHl5yXDBjv6Uk1yZXxjjdkBSmtLzumfwr7LR8++mOrgXXuXBDkpULsfQCEzvF4HI1GeDjKB8jQRlGECSjPefdI1fkmL1uW5231ahdpavZIzW9rc35LdN9PDoStgp7mlYtL5WdkG02xDcdrFj+9jb7Ppkxn1Tqo9m2ybvedsdvmyprnkTpxFsmnoHRtji7dQYmHPN+25Ltu98pKGZuKOh1U+fd2pOncuSDIS4XY+wD4DPI8Hw6Hy+XydruZZb1C3RyCPFczrvK+URdkjpf/rmaP1PyWc3SM0jdruX9Er+WntSxVvD7Ms2NlI+mV0pzJEWsDFXEnU1X0Vp+rMWqyurbJWhRTI4qP3Nr1vquto1saTts5uvTL2zwvplRRgnQWOx7PaEE/XIro2oxJs/Zy9hwP6dy5WofIDodxUTy/YN+hnMViutNmiSlNOe0P90eBxtDyDw2qTmLXkTY9iY9toxB7HwAfw/1+X6/XcRxnWWaW9UfnAQuC3ivnSOQq75sf6jPGrVint7U5vyi6Z+LoO3qldPmctNHvrtgj8Q0N3z+Ja5I5KMphgyQ19XSnNilBXq724SVJG3X0mTSecbJzapuii+coPruoIbO2TkO+U86e4yGdO5crRFb6xeGQkQuqLSLd78V4nFwuKt7ynFOacl4d7lVfMxRoDC1ZrPxUxcdSTfsnA2nTk/jYNgqx9wHwYVwul9lsliTJfr83y/qg84AFQe+VcyRylffND/WZZo/U/LY253fFt00SMke3R/wjMUt+QpabG322St3DVbdcm8NCbs7se7j2bbKjM4LoWOLW7Dp0an7qidrhH/LtHF36fZ4RK2jfw9mZtXVUmKJ5Q9lSzp7jIZ07lytEVrNAaYODKivjtJ1MRrdbZaUo3XC4b31N1z3kGNrbvepZZIf0OuX3nuVDfGwbhdj7APhIDofDaDSaTqfn89ks+zc6D1gQ9F45RyJXed/8UJ9p9kj2W53anN9VelzQ/RO98lu6yzmpySjWSQX2lN9vbiQAie6KyKtE6YBy5Hdi+x6ufZtkQgZWbA+L7qI41siuU5w3PMdFH4R/lbdzdMmxiRWtZJy0NlM/uxT9y32es+d4SO+dS3pEksRF8W0G0u4meb4im0SvzYdLJmM08usKNIaWThqlVedKn9POIv3UPsTHtlGIvQ+AD2a73cZxvFqtenw4qvcBC4L6lXMkcpX3DfrMJ4l/R7dvGX3QXa0Q+L9jjZw9x0N671wNDqe2yMhsU8c3BRpDy1IzV77Hx7ZRiL0PgM+GvBM5KPJR5KbMsv9F7wMWBPUr50jkKu8b9JkP07Z6lv0rGtAf0VXZv6+3l7PneEjvnavB7dQWfYCDKgOMoaVLZbNHr0akn96mJ/GxbRRi7wPgL3A+n6fT6Wg0OhwOZllHeh+wIKhfOUciV3nfoM9AQcjZczyk987V4HZqi1o6KB27wq8ruBhaOny0rdbrU82aXkuO9SQ+to1C7H0A/B32+32SJLPZ7HK5mGWt6X3AgqB+5RyJXOV9gz4DBSFnz/EQdK4/pd+Kof3H+Ng2CrH3AfDXyLIsjuP1en2/382yFnzSgHU4nEajexSV9EppyjmdjuPxTSpMJjfKqa05MDcgqsnhzO32LA1S2v4HbKjTtU2pGcflbveo86oRqZnnX619gNRnbMJV3jfyjw5BPsvZczwEneuv6VdiaP8xPraNQux9APxBbrfbcrkkH5XnuVnm4pMGLDIPbIeK4jQc3jlztbqyP6FXSjfULB9/9GrSeuZ4/FWf0na1hjp25Zb1j8cjXXNzI3bNz5BzJHKV903tfwAE+SZnz/EQdC7oMxRi7wPgz/L/Ho76pAFrNLpvNpfzuZplEt3vB8o/nY5Jcqd0Q82ynYNaLq/svvb7E6Xtag117Mot6/OkWXMjnCAHRZ/UrhCunCORq7xvav8DIMg3OXuOh6BzQZ+hEHsfAH+coiiSJJnP5y0fjvqkAetyOc5mt4GKZCMrIvlFcap2rd995byqqf9rDF4Ey5FFoWMpTa+Utv8BG+p0bVOvLJF+rxphsV3Uryd0qc/YhKu8b+QfHYJ8lrPneAg6F/QZCrH3AQCINE3jON5sNvbDUYaz+rwB63Y7pOnFiGSr/Zh2Tb1a7SGcyU9P8aSQXa2hjl25ZX0qkpmlhkY2mws7sU+ScyRylfdN7X9Ak1azchiX65frPt3vxXw+iaJoPE7O56+Hm9fr+XBIHTmihGQOBgN9Z09J2IuDvcpsefj/lizqxaL0dFftTkPaX9JBOtD3opUFsuIs4lW5SvWc97yYRGk0zpOzWuyYa+pHSbpNm0e1UFiUDkbWWl6l2pdz+VyVi04n29FQm3FWLSM2UmtDt8zRJVcyzGJe61kWfWZRmpeElpos43DJpOts//yGs+d4SOfOBUFeKsTeBwBgrtfrcrkcDof6w1Gn04nu0+hVcj5pwCKPwRNN5Df0p5vKx18zd029Wu2/DGdm2TmKSnqtrdZQx67csv7xeBwOzUy7kVKtlsEBgR8j50jkKu+b2v+AJu3WZTUJ+nXfbGi1mu331W39druaTB5mI00XZJxut2qVqs1mQW85nxxOkjx2RDHcTvPbrof/b5Er0JcJprR4htluTG9lkxmSuIXTNSObIYewIyL/w3uD6jWNdJs2eXscShTnjZyFdbnlo+dqYJvDnIyWHE6npiunIroMNoFtcnRJU2TbeCdQqkmn4D1wyK1RWl+ITP9c9ls+fNR6DTFnz/GQzp0LgrxUiL0PAKBDZmkymYzHY7oFp7fz+Zxuk+I4Jn/FFT5pwKLPOBpVyzCQQVKf96vI+JivaurVBi+C5Uo1eUV3xPSqH9KyTtc2WWotvocvamikVJ5wOv2oaSj10ZpwlfeN/Fu3VbYsz9vq1S5SGg7jy+VxT3w6PWZvyOfcbjtOn8+5bnvIcWWqtWYLVOuI2h/+v0V3+eRS2BjoaV65uFR+hi0ESUzC8ZrFT28j+2yWagrLqKmn27fJut13xo6cK21Wx9gSNM4i+RQ8MdUmR5fuoMRVnm9b8l23e2WljG1GnQ6q7LKPjbPneEjnzgVBXirE3gcAsNntdsPhcLFYRFFEt0kqXGjMAX4YsCDP5RyJXOV903ufoT55v5s7oryyN5QgZ0Wmi15f1ZG3Ol0P/xct949Ytfy0lqWK14d5dqycG71SmjMHWsSdTFXRW31mxqjJ6toma1FMjSg+cmvX+8OpyuFGQtJtcnTpF7x5Xl6p4gbpvHY8ntGCfrgU0dUa02iv5Ow5HtK5c7lCZOX7T9/5ovj6Muz39G864Llfo6aEuToz4zjabs3/xN9VoDG0dh07PtbO0SXn/ZWIWVsh9j4AQC3kl8hByV9+MlHzOQ3o3QcsCHqvnCORq7xveu8zMgdFPopnh8pqDirmEL6ymqDc0VtOD5TPoWqr1YzToua3XQ//F9H9EEff0Suly+cUjdygyNQN36zwtIy4JpmDohw2SFJTT3dqkxLk5WpvvF7l6DNpPL/UJqe2Kfo4HMVnFzVk1tZpyDerDcyvrv907lyuEFn5Vh8OGXU0yZ/NxtQF6NWoSU4pisxnBWszy2rG+FubPijQGFq7jh0fa+fokvP+SsSsrRB7HwDgFRzCJ5CJStO084AFQe+VcyRylfdN731GPQdV3T1sNgu5pZPnoEiU0J+D4kSSDA3P0/y26+H/KL4lkpC5/PT4AZglPw/LjYs+W6Xu4dQ/yGEhN2f2PVz7NtnRGSFzLD1ikCWH06n5jo3a4Tu2Njm1TdFdnRE9aN+x2Zm1dVTgYqu7dmfP8ZDOncsVIivf6sMhFbdzuTzCYulVAmilJjklSTdnHo/Vfvac9kT3YGNojTp2fKydo0vva++PmLUVYu8DALyCQ/h0VE5p930I8kfOkchV3je99xnySGScqDNOJqPr9etunoxTHEf2Wnyc0G/pjCJ5q9P18H9UelzQ/RO98lu6gzmpySjWSQXtlN9vXCQAie54yJlE6YBy5Ddg+x6ufZtkOQZW3A6L7pAkfklvvFQ/h/McF30Q/lW+TY7RFCux4pdq79iMTP2apaj9XZ2z53hI751Lvv9JEsskEnUonuylV+lc+vff7i9GJkN9c/d6+uu3FHQMrdSRs0jaztGlX977I2Zthdj7AAC13O9320Epvi1LAEEeqhlXed+oCzLHSyhQ8e/o9i2jn7qreKeWkUXOnuMhvXeuaoj7nnO/F+R8ZACkND+FKDVrp5vszPN5O5mM7CcYf12BxtAadez4WDuntqlfiZi1FWLvAwB0ovcBC4L6lXMkcpX3DfrMh2lbPcv+FQ3os+g67V/TX8nZczyk985lO6g8Xy8WWvDnYsrzSFyz9pGn2kxuarn08ZsTXAytXceOj7VzdMl5fyVi1laIvQ8A0IneBywI6lfOkchV3jfoM1AQcvYcD+m9c9kOajxOTict+POUUQ7XZGqX3TMyJT2ZjGQHAn8UXAytXceOj7VzdMmxvxIxayvE3gcA6ETvAxYE9SvnSOQq7xv0GSgIOXuOh6Bz/Sn5HEN77xIxayvE3gcA6AQGLMhzOUciV3nfoM9AQcjZczwEneuvydsY2k4Rs7ZC7H0AgE5gwII8l3MkcpX3DfoMFIScPcdD0Lmgz1CIvQ8A0AkMWJDnco5ErvK+QZ+BgpCz53gIOhf0GQqx9wEAOoEBC/JczpHIVd436DNQEHL2HA9B54I+QyH2PgBAJ2TAGjz33hkO70Vxsv8gPLSalcO4XL9cn0aWKapdxOjDJMsXsSgti6zuL+kgHegrBskyP3EWyR6e97KYF5MojdSe6S/XPWrf5lEtiRSlg5G1IlGpdhdc7meXW24sO0Rtxlm1GNJIrYJrHCU1h1nMK9bK0rUsSvPCtnqz3HJt5tLaib5BzpHIVd43nW/yWvQZJo6j7fbx7yKZDGfu95vRKImiaDxOjsfHQlhSx+hp+z39ew/o1T4R05D5Lwq0V3CaTidbzdi9ws7RJef9lX5iy9lzPKRz54IgLxVi7wMAdEJ3UJw4HE7D4SNdo926jKLq1S56tPN1Y1ZaG2l8mOiOSF/slNJyvzTbjemtbKdRand9p2smG52rvTeqOzq60+NdEPWaRrpNm7wRSKmWfjW2UyfjNFLrHqmNOr7dz9OpeacNuozmnTZ4r0KqSXekvJMH3XNSWl9OSb9m+y0fPmq9ypFzJHKV903nm7zWfeZ0yobDx/9ZrZkhi3U4VF8XslJGTbunzWbj1WpGr0YjRsu1J/oXBdorymoDnDl9leVwu1fYObp+t5/YcvYcD+ncuSDIS4XY+wAAnXjhoO72H4SHsmV53lavdtGjncdtgCT0zdw/THSHo++TLmleo7VUd258+1RqN0jHaxY/7+JkR8FS/Vhv1NTT7dtk3e47Y1/B1fMX7UUxVb/I80/81UllQ/l7427vdGco98a86fztXt0iGpslOu8Myy47bThHIld533S+yWvdZ47HLI6bHNRkMtpul/f7t8V/a3va5ZInifq6JENK19avffvvCrRXlMr76YfbvcLO0fW7/cSWs+d4SOfOBUFeKsTeBwDohO6gWEnSGMXnku2gjPSHabl/xOnou7qvD/PsWN0w0yulOXOgxRbJj/L0Vv9V2qjJ6tomi2ySEa9E96XX+44TXER3dPYuiPaNnH4xm+epSxX9RE3ZcUZGC7Ufh67EmAx4JedI5Crvm95v8gZP4jjaPaeqJJPhzNut2GwW43FCVkqP4tOb4sR6Pc+UZ6NXShunM97aJ/pHhdgrRNK4JCRt5xgHit7fT2w5e46H/FznGg7jomjqXK8y7TZ9VqAxtHadsCJmbYXY+wAAnZABq6+Ryx56PngOqlSjA8cZ0etRbdHOP0/LH2f52Zr/UPNP0nJ/KL+2Uw7fCkpNPd2pTUrQXWvtoGPkkDjaSJ8zaPhtnS6V69tFDZm1dRryzWqukchV3jd9dRURd4/zeUu+SOaXmvsMVbbj/aSnUSNkxuRekNL6tJXRcvOJ/p+C7hWSY/cKO6f2wF/pJ7acPcdDfqhzlVVwxVeIrFFU+7Yh02cFGkNr1wkrYtZWiL0PANAJGbD6GrlkxOGE/XTG54n/+EtwUH56/PjFkp/G5I+2/ru8Gq2qf5zNYSHDkD1atW+T712NcCGW3JfSpfJtLVWbqpPSqXm0onaaRysjBsoeiezM2joq/KrVb+vOkchV3jd9dRWR9Jk8Xy+Xj//m2ls3ugXc7dZkh45H84kpvadRO4uF9nVZTGVqy2659kT/ruB6hUgOt3uFnVN74K/0E1vOnuMhP9e5Dof0Lzioe7AxtEYd+UGk+dcKTyJmbYXY+wAAnZABq6+RS3dQzGfbJ1J6XNBIQa/8lv56n5Q/YZ1UeEL5/Y+2hFrQX3u6K4vSAeXI71/2aNW+TbrdGlgxCywaHSSqYrStnoMi+8QRTMV5w7/m0wfRIzJY0lpiRWHUjkT2aGVfUvvRyjkSucr7pq+uItLv0iaT0elUfTOk/zBcejplo1FCb5NkyEtK6DWlp43HCdWUNilNObWne3Wif1dwvcJovKzrFXaOcSDrV/qJLWfP8ZCf6FxMksTGUGR827/6gKK2ThAKOoZW6shZjLTkiHyImLUVYu8DAHSi9wEL8lb8i6E9OL5fHLXRMmLCORK5yvsGfeaT5E+vsNWpn9hy9hwP6b1zNVgg20E56wShQGNojTphRczaCrH3AQA60fuABfmsbfXU7lfc02+JrsH+lfCVnCORq7xv0Gc+TJ70Clud+oktZ8/xkN47V4MF+lQHVQYYQ2vXCSti1laIvQ8A0IneBywI6lfOkchV3jfoM1AQcvYcD+m9czVYINtB6TRk+q/gYmjtOmFFzNoKsfcBADrR+4AFQf3KORK5yvsGfQYKQs6e4yHoXH9K/sTQ/mPErK0Qex8AoBMYsCDP5RyJXOV9gz4DBSFnz/EQdK6/Jk9iaP8xYtZWiL0PANAJDFiQ53KORK7yvkGfgYKQs+d4CDoX9BkKsfcBADqBAQvyXM6RyFXeN+gzUBBy9hwPQeeCPkMh9j4AQCcwYEGeyzkSucr7Bn0GCkLOnuMh6FzQZyjE3gcA6ETnAWs1K4dxuX65Yo2sWjQcxkVRrW5Kieu1ej4zz1eUv9tVmdfrLkl6Wzj0tyTLF7EoLcuu7i/pIB3oawjJwj9xFskenveymBeTKI3ULuov1z1q3+ZRLYkUpYORtUZRqfYbXH5t4J7LNhuXW24vTWSfZZjFvGKtLF3LojQvbKs3Iu3YmUtrJ/oGOUciV3nfdO4zjZItdFmUnk6r75As/LXfb0ajJIqi8Tg5Hh+LX0mp9DemTeYbtrim/+bi/DiL/j3QK0hC39B2e1ra3xv52umZ8mXSM/WuJeIv/Wo/o3bWh29/uagvxVm1CNhIrf5cdvxqei5nz/GQfjsXBP2WQux9AIBOdB6wyP9EUfVqFynJDdvhkJF3osRiMWXXtFzOptPxalXdw1DOcvn7j4/+o+i+Tl/+lNJypzfbjemtbKdRajeNp2smW5+rvTcqn0M3frwLol7TSLdpkzcCKdVisMYG62STRs91jzaHORktOVxt3fHaFT+rkSXj3QupETqcd/IgJ0ZpfTkl/Zrtt3z4qPW6R86RyFXeN537TKOoJ3CXYFGae4t0pDiODofqK0JWinuUXtrmrZ5J9imKftxEDdQqw5I2EkbmvJhIPqXt+vK1MxoR2d1AJF966pnUiO77S/UTCO85Q92Pf/zo9NX0XM6e4yH9di4I+i2F2PsAAJ3oPGBly/K8rV7tIiXNQaV8v5fnKzZL43FCd26TSXWjQjl8oxi06HZL3zld0rxGa6n8DNuMUrvNO16z+HmbJzsKlmoKy6ipp9u3ybrdd8ZOgyvt53Vj88NFMVUzVzwVZu58qN/KimPkTedv98pKGYcYd7m1N73t995wjkSu8r7p3Gcadb8X1E/o1UhLR6IOs90uOVPUbJkaHFSpTFRthR5F/+X0v5sdqz8TtiMyMteHGX/1yf+sD3O7vv61q/0yNXQD+dLTxdDXlC9JFGeR9F6ZkG3/1fRczp7jIf12Lgj6LYXY+wAAneh9wFJxQhVJEvMv3ZdLniTVrXwcV7cocaymSpIhh/aFruX+Ec+m7+pO94F8q0avlObMgRZqpAcl2ZthSE1W1zZZZIqMKD5ya9f7Ts+RxqmIK9NNJu+LaFQTbZ6nLlV4FB1oBz1Js/bhUkRXYswWvJJzJHKV903vfUZ+Tsjzr5lZMTm3W7HZLMbjhKyUHcX36q2OXceo37vov/mm/oPpVf7L9a+FnknfPJ4ApdeDClSVIvtrV/tlkrd2N7C/9LpqL6n9V9NzOXuOh/TeuaQXSFg5i39HIHiCt6FybRittwo0styOI7cjbHVJTQnxfWdkeRuF2PsAAJ34iQHLzlTj0WP2iV73+/QDHoJi0ejA0Xf0elRbtPPP2fLHWX7m5j/UPHUjrknmoChHfh+Xv/OS7tQmJcjL1Q46zhySBEzZ1ehSjdLaFozM2joN+WY110jkKu+b3vsM3ZZJ33jlkUjn8/bfo/jKd81Blcrrr/Yz+W8ePH8toNdIyyxVN2DHJTl6Qv/a1X5partBQ32RPoMsc1DOo0KRs+d4SO+dS77qElZearGslJkkQ7vT6ZVrw2i9VaCR5XYcuR1hq0vO8iuR5W0UYu8DAHTi5wYsXYvFlG4O+XGP9XpO6Q94CErEA4SEzNFYwD9+seSnMfmjrc9WqdGqGlw2h4UMQ/Zo1b5NdnR2JF75PWKQJYfTxbP9owOn2mhoVKPRyogMtEciO7O2jgpKbHU34hyJXOV903ufKdWcLN2f8VwtSzoS3bTtduv7vaD7vH93UG97DooT9HWRNN3TkKfinwpkopNL58WEvtP8QJTUr/3a1X6Z7G4gsr/0uqjL8V0aHSh3ae2/mp7L2XM8pPfOpZmiR1g5Z0oXuN0KCZGtrVwbRuut7mFGlttx5LURtiL9j8P7I8vbKMTeBwDoxM8NWLr0Vfj4F/APeAhKlB4XNFLQK7+lv94n5UZYJxXCUH7/oy2hFvTXnu7ionRAOfL7lz1atW+T7v0GVswCi0YHY6EyfbAbbavxi+yTHfQkrSVWFEbtSGSPVvYltR+tnCORq7xveu8zpDRdxHFMr5IjHel0ykajZFDFxQ4l4qjZMg2+Y2T+tH0qtW9Acd5I+lR9ySpDRV81486M7qIoQTZGP7b2a1f7ZZJEaUUx2V96/RC6PJ7bpQ4skUjtv5qey9lzPKT3ziVfewkr50yjtKFybRitzwoxsnxoxZHrnVpPS47o/ZHlbRRi7wMAdKL3AQvyVvyLoT04vl90DUnriAnnSOQq7xv0mYD06kuvxx3p6vTV9FzOnuMhvXcucUdGphgkPai1trJID6P1WUFHlpfPOPJXEbbGgb8SWd5GIfY+AEAneh+wIJ+1rZ7a/f34SboG+1fCV3KORK7yvkGfCUudvvSdvpqey9lzPKT3zlVriiSW1Qhqra1cG0bruZLQIssTK468NsJWJGf5lcjyNgqx9wEAOtH7gAVB/co5ErnK+wZ9BgpCzp7jIb13rlpTVGpr8elBrbWVa8NoPVdwkeV2HHlthK1IWvuVyPI2CrH3AQA60fuABUH9yjkSucr7Bn0GCkLOnuMh6Fx/Sq+CbN+v3sN3Q+x9AIBOYMCCPJdzJHKV9w36DBSEnD3HQ9C5/po6Bdn+nHoP3w2x9wEAOoEBC/JczpHIVd436DNQEHL2HA9B54I+QyH2PgBAJzBgQZ7LORK5yvuGLgiCglBwqGs2/wRAUHAKsfcBADqBAQvyXM6RyFXeN+gzUBBy9hwPQeeCPkMh9j4AQCc6D1irWTmMy/XLFWt4fSNiOIyLolrdlBLXa/V8pr6v7vW6S5Jq4VCpH8fRdvuIQ5ZMRjKlAmm7XUoRab9P6S29So4cbrQsFbJsqW9h+j9k7N5JaVl2dX9JB+lAX0NIFv6Js0g2+byXxbyYPLdif7nuUfs2j2pJpKjattRco6hU+w0uvzZwz2Wbjcstt5cmss8yzGJesVaWrmVRmhe21RuRduzM5XMn+jZyjkSu8r7p3Gcg6Dfk7Dkegs4FfYZC7H0AgE50HrDI/0RR9WoXKYlFORwem2csFlN2TcvlbDodr1bVHTzlLJfqnvtZ/3T62mxD9zl6y/P5RN5SWq82m1Ut06tenxO1Lf+7fSqVc9CXP6W0+IrZbkxv9X07xVGcrplsfa723qh8Dvkf3gVRr2mk27TJG4GUajFYY4N1skmj57pHm8OcjJYcrrbueO2Kn9XIkvHuhdQIHc47eZATo7S+nJJ+zfZbPnzUet0j50jkKu+bzn0Ggn5Dzp7jIehc0GcoxN4HAOhE5wErW5bnbfVqFylpDipl35LnKzZL43FSFJvJpPIJlMO2Suofj1kcmz7HaHm9np1O1ZwPmaL1ei7VLpc8Sapd9eiV0kYjdsu92KdSOQF953RJ8xqtpfIzbDNKzUgcr1n89Dayo2CpprCMmnq6fZus231n7DS40mZ+jM0PF8VUzVzxVJi586HuoMQx8qbzt3tlpYxDnA6q7LL3hnMkcpX3Tec+A0G/IWfP8RB0LugzFGLvAwB0ovcBa/AkSWLeq1DsTRxX0xdsZiiHQ/ukPpWyp9IzGckkV7ZcVrfd9EppKSI3lSlTR6+UNhoxWqY6ZO3Yif27lrgNQPgAACFFSURBVPtHPJu+q/v6MM+O6nqOS0pz5kCLuJOpKnprb4YhNVld22SRKTKi+Mit8V6FImmcirgyeSHeF9GoJto8T12qmEA60I7Hk2btw6WIrsSYInsl50jkKu+b3vsMBP2EnD3HQ3rvXDIMSFg56X4v5vNJFEXjcXI+f02F0+BB1WjAkFGEW3gVPt5cpCOZsoFvc83/rUAjy+061GacVVvxjp5hFW1ydMmV+Bl9DgAInZ8YsOxMNXg9Zp/odb9P+SEoqX8+bymfxrWGRjiTmrrddjy7xTl0FA15MgBRmtt51XKaLq7XHQ2d1I59lq6iv/wcfUevR7VFOw1AvJc6i9LskfiPME/diGuSOSjKYYMkNfV0pzYpQV6udkBx5pA4Tq+2Gl2qUVrbgpFZW6ch36w2ML+0Bq7yvum9z0DQT8jZczyk984lY4mElZNWqxk/Mkv+h4clEg0MZJxuNxXlvFlIlMLgdfh4c5HkiwbVL4uPwACjQm39/6FAI8vtOnRqunIqostgE9gmR5dciZ/R5wCA0Pm5AUvXYjGlcYqfgKJBitIc16fXz/PHk1GvGuFMGqSoNR62OIcOpBypJo9dNbd8PGbT6def/X8R//GXkLn89PhhiyU/e8kfZH22So1W1cCxOSxkGLJHq/ZtsqOzI/HK7xGDLDmcLp7tHx041UZDoxqNREZkoD3K2Jm1dVRQIuagIOjH5Ow5HtJ759Ic1COsvFS/w0m0t0QjkLeRH9XO50fgBLfwKny8uYgTuiiTRkGOl/ghB3UPNrLcqCM/E/LPhy1zdOnjlofR5wCA0Pm5AUuXvgpfUWwkbdQnZ8WD0eA7ek1uikyR5IzHCQ1e0gilKaehZcmkptjU/aPS44JGCnrlt/SX+aTcCOukwhPK73+QJdSC/pKTcYrSAeXIb1v2aNW+TbIlAysegUV/+SVSQ2+8VIPdaFs9B0X2yYj042qsxIrCqB1l7JHIvqQeRyJXed9In8mybLPZ0Jfocrlcr1f70m0N6sJ4ytfhQzrGUbWRSLWH2JIKemiTXt9+UlA9zlj9hw1afwSqT0fpjUDvlLPneIh0rr4kX3UJK+dMCUvQa9a+HbwOH28u0pFMjqCgV8k0TvfvCjqyXOrIWSTdJkeXfsEeRp8DAEKn9wEL8lb8i6E9OL5fdxW10Vc0hKu8b7jPbLfkgGmk35B9WiwWRVGcz2f76q0PUxPG8yp8yKhmvK2NRGp5HybV9NAmybTt0+WSj0ZDiY5t+RGoPh3FzztC75ez53hI7wNSbY+QOSj6ivKMUFnNQcX8BSaRwzECze3w8TZFhjiTzkid91W//ncFGllu1NFn0nh+qU1ObeN+Rp8DAEKn9wEL8lnb6qndr2jA3xJdg/0L4Cs5RyJXed9wn8kyujVJL4qimE+n08lkMh6PE7IXw+GrWalBXRjPq/AhOaT2bW0kUsv7MKmmhzbJ7Z29TiVds8wmdfoI5O56meeF/oecPcdDeh+QanuE+vVBBU9vFrIDhvwKQKKE/hxUWRc+3qbIkN5fXvXrXhRcZLldh07NzzhRO/yMU5scXXIlfkafAwBCp/cBC4L6lXMkcpX3DfeZNE3JIy2XSzJL5yenJ4Mq1K1mVmpQF8bTfC/16u3gRSSSjlFqVzNCm16tUzmsdsV+GKRBl49AR4lDg94sZ8/xkN4HpNpeQB6JjFMUDSaTkT5HSsYpjiM7mLasCx93Funo9ctnLLucQi/qRcFFltt1ivOG57jog/DKFm1ydElrfkafAwBCp/cBC4L6lXMkcpX3DfeZ9XrNs0+73TTPq6mn7XYYRVGaVjdMm80my7LD4WB9mGokNsJ4XoUP6YfYb2sjkVreh9VWo8xX61Tq9bt+hNpzQW+Qs+d4CAakPyV/Isvb6N5r9DkAIHQwYEGeyzkSucr7hvsMLyCx283YPpFlIvtErmlQzeRU7Ha72jkoTuhhPK/Ch4xDjLe1kUgt7UptNcm016nUIwY7fQS1GRzmoH5Hzp7jIRiQ/po8iSxvo36jzwEAoYMBC/JczpHIVd430mfm8/lkMhmNRmSf0jQly3TQsO2T+jAPy2GE8dSGDxmHGG9rI5EG3zGasht5lWmsU0lp2TlUqrX5CHgO6hfl7DkeggEJ+gyF2PsAAJ3AgAV5LudI5CrvG73PkE0qiiLP89qnnj5GairpsRZfe1F9Ogpr8f2WnD3HQzAgQZ+hEHsfAKATGLAgz+UciVzlfRNWn/k+KVVh12mj7XYl+1K3FNXHflC/KGfP8ZCwOhcEvVKIvQ8A0InOA9ZqVg7jcv0yMGfwYr/N/b56wp43sJFSiQwqqzu0pdT/dsP3f2/53iBZvohFaVlSdX9JB+lAXx9IFvWJs0h2tr2XxbyYRGmkdkh/ue5R+zaPakmkKB2MrPWHSrWX4PJrc/ZcttCgNuOsWgxppFbBNY6SswyzmFeslaVrWZTmhW2lJss4XDKX1k70DXKORK7yvuncZyDoN+TsOR6CzgV9hkLsfQCATnQesHbrMoqqV7tIaVC33yZpNhuvVjN54p1LeQsNFqWlvs+uSRc5B31pU0qLr5jtxvRWttMoNS90umayrbnae0Nti3pa8S6Iek0j3aZN3gikVAu9GpunX2756Lnu0eYwJ6Mlh9OpeV8NuozmfTV4Z0KqSYfzTh7kxCitL6ekX7P9lg8f9bemkau8bzr3GQj6DTl7jofQNUPQZwgA8Nmobm6OvE3KluV5W73aRUqDuv02+TGKUi3fpa/ptV7PeO+Z0ylbr+fBOShyAvqu6JLmNVpL5WfYZpSakThes/jpbWRHwVJNYRk19XT7Nlm3+87YRXClzfwYmx/KhvL3xr3dyUGJY+RN52/3ykoZmyU6HVTZ674arvK+6dxnIOg35Ow5HoLOBX2GQux9AIBO9D5gDer22yR3xJ6KXmWlLio9HNLlsrqNpldK6w5Kxz6LP1ruH/Fs+q7u68M8O6rPe1xSmjMHWsSdTFXRW3szDKnJ6toma1FMjSg+cmvX+/dtfp6N6ybHNjz6xWyepy5VTCC1acfjGS3Ufhy6EmOK7JWcI5GrvG967zMQ9BNy9hwPQeeCPkMh9j4AQCd6H7DY8Oj7bd7vRRxHYocozWt6cSl7LXqVHD3hv47XjKPv6PWotmjnaRzd27BHYvPAUzfimmQOinLYIElNPd2pTUqQl6t9nOlVjj6T1jAHRZfKUXx2UUNmbZ2GfLPawPzSGrjK+6b3PgNBPyFnz/EQdC7oMxRi7wMAdKL3AUvMj+y3mefrxeJrES9K79RjVFw6n08ohx+ICtFBlc9HjyRkLj89llVgyaILYhj02Sr1HJTaFvWwkAecbAfVvk12dEZYHUuPGGTJ4XRqfg6K2ml+DsqIDKx1QW0clApKDHYOCoKCUHCoazb/BEBQcAqx9wEAOtH7gCXmR/bbHI+T06manGFRmnKkZp6vKEEuSz9WTVZ9YZzCN6XHRZzF9Mpvx3lyUpNRrJNaHK/8biRkEb/bvSD3EqUDypGVFWwH1b5NsiUDK2SORW5N1gDUGy/VshM8x0UfRF/rT6qxEmt9v1p3ZDso+5ICfg4KAPBD9D4gQdCvyDluAQBCBwPW3xGvRWE/dvV+0TUk4a7FBwD4ITAgQZ8h57gFAAgdDFh/SttqP6hu26L+hOga7PUnXsk5ErnKAQCBgAEJ+gw5xy0AQOhgwII8l3MkcpUDAAJBBqQsyzabzWq1ulwu1+vV/rtQK44dH6hlXiVTDwSXtJ5gZCd4PZORfENSYTiMi+K5vqpWP8uWafoI72bl+YrXn6099n4v5vNJFEXjcXI+f83Rr9dzqhbHkSxlq7fQfOV0OjqpVIDeI+e4BQAIHTgoyHM5RyJXOQAgEHhA2m63ZUkWaEP2abFYFEVxPp/tPw2GyEhEUWUnDocsSYbH4+PJUTYSRtpIyLH2IQ2SanRGXk9Wz7Tt0+WSj0ZDfS1a49jVarbfqx3Wt6vJ5LGkDzVCxul2U1uhbxbSZssrp9PRSa/XVjHTUF9yjlsAgNCBg4I8l3MkcpUDAAKBB6QsI/OTXhRFMZ9Op5PJZDweJ2SMhsNXs1IDbTaG/AYbFc7X67xKyNpHxiEN0lxQajgo2z6VyiDJdFDtsZSQLed5s/lSLWt7uz028jufH5vT6y04r5z8GJ3azod+Ts5xCwAQOnBQkOdyjkSucgBAIPCAlKYpeaTlcklm6fzk9EQ5pZpZKd1FMEa+Uae5VEcqGJIKSRLrs0Bkn8gLiQUSUeb1+vBCr44V46efpfatnq9n6nAmnVRMGvQeOcctAEDo8IAFQd7KORK5ygEAgcAD0nq95tmn3W6a59XU03Y7jKIoTStXsNlssiw7HA7WX4qvOShjWoZtCb1GkWk/JOGcybFVW40y03RBpmU8TmTuyK5fe6zMQdGlkg3jTLJYHMJXVnNrO3prtNDmyl/lQz8k57gFAAgdOCjIczlHIlc5ACAQeEDiBSR2uxnbJ7JMZJ/INQ2q6Z2K3W5nz0HJE0HGo0HkZMiNsCfhvQjVn5VvlsP5NFGtaqtJ5vGYTaePXdJZepBe7bHqOSi1w/pmMZs9jpXnoEiU6PocVKmevxLfBb1HznELABA6nR3UalYO43L9MqZ68J3mTPvwsCQb47IoPd09nv7dX9JBOtB3p5UtZeMskp1t72UxLyZRGo3z5Hx7uaNu+zaParPdKB2MrN1vSXm1mvnj/45OR0dxuvkoOcswi3fnatWoRTHlBIvSlKPXZBmHSyZdA1YzBwCYyIA0n88nk8loNCL7lKYpWaaDhm2fWDwbM/i+PN3plI1GQ8ocjRKJrNPHIfsQyWTsExmNvMrM828PIFF6uzWfg9JFHomMEzki+uj62g9knOI4+n9r8ZV4Duo35By3AACh09lB7dZlFFWvdpEm+dNd+7YhMyyRc1g9DQmJ0uIrZrsxvaVXKRVHcbpmZEXkEHZE5H/Ijxk1jXSbNpPtcH+pxtPivJGzsC63fPTcUXdzmJNlksMbjiq1s5C5IrNXKuNHh1+U5SMnRml9o179mu23fPgIO+oCAAz0AYlsUlEUeZ7XPvUUotRc0GMtvreJTkcnxVp8b5Zz3AIAhE5nB5Uty/O2erWLNP0RB0VOgPwGmwc9TdaCPEmpnAnbjFIzEsdrFj9dCh0iFWQ6q9ZBtW+TdbvvuL5opc38sNOzvY19lF6NHJQ4xvNtS5bvdq+sFKVr69e+ZZFj1M1ng5wjkascABAInQekd0mf2GHsOm203a6Wy7duak6nw35Q75dz3AIAhM4PDVjG+FI79PzvMcgrLfePeLb8tKY0Z64P8+xYmUx6pTRnDrSIO5mqorf67I1Rk9W1TdaimBrxeOTWrvfvDzZb3sY+iquJNs9TlyomkNq04/GMZms/Dl2JPdlVK+dI5CoHAATCDw1IEPRmOcctAEDo/NCAZTsoZ51AdbxmHH1Hr5Qu1WQU+Rnd27BHYvPAUzfimmQOinLYIElNPd2pTUqQl+OoPF2GsTFyXh2lV6NL5Sg+u6ghs7ZOQ75ZzTUSucoBAIHwQwMSBL1ZznELABA6PzRg/R0HVT4fIpLgt/z0WFaBJYsuiGHQZ6vUc1Bq7aXDQh5wsh1U+zbZ0RlhdSw9YpAlhzccpVc7XFIjxq/WBbVxUCooEXNQAACNHxqQIOjNco5bAIDQ+aEBy3ZQOg2ZISo9LuIspld+O86Tk5qMYp3UMnfldyMhi/jd7gUZpygdUI6srGA7qPZtki0ZWCFzLHJrsgag3nhZmcCXR3E1VmKt1GdXtjP1lqUIz0EBAEx+aECCoDfLOW4BAEIHA9bfEa9FYT929X7RNSRYiw8AYIABCfoMOcctAEDoYMD6U9pW+0G9dSGoWtE12OtPvJJzJHKVAwACgXo7BH2GAACfjerm5j0rBPkj50jkKgcAAAAAAKA/4KAgzwUHBQAAAAAAPAIOCvJccFAAAAAAAMAj4KAgzwUHBQAAAAAAPAIOCvJccFAAAAAAAMAj4KAgzwUHBQAAAAAAPKKzg1rNymFcrl/uhVq7Ty4lttuv1au326W+he5+n9JbetUbMRJ+SjbGZVF6uhtxen9JB+lgr+0/K1vKxlkkO9vey2JeTKI0GufJ+fZyR932bR7VZrtROhhZu9+S8mo189n5tqUrV3USrkNtxlm1qS4dtb9sjKPkLMMs3p3XlLMoppxgUZpy9Jos43DJpGvAauYAAAAAACBIOjuo3bqMourVLlKq9TyUOZ9P5C2l9Wqz2Xi1mtGr3Uhta/6InMNq/2UmKS2+YrYb01t6lVJxFKdrRlZEDmFHRP6HXI1R00i3aTN5WqDivJGzsC63fKR21CWLlZ/WlKCaXIdOTVdOOXQZYgLts5DdIrNXKuNHjVyU5SPjR2l9o179mu23fPgIO+oCAAAAAIAQ6eygsmV53lavdpFSreehzPV6djpV0zWnU7Zez6Xa5ZInyZAS9Eppo5Ha1vwROQFyIGwe9DRZC3IypfIzbDNKzUgcr1n89DZ0iFSQ6axaB9W+TdbtvuP6otX3mZ/bvSAfReaH0nEWyaegtH5U+d1BiWPkiSxqRM2efU3E6fVr37LIqunms0FwUAAAAAAAwCM6OyiXBt+RzMMhXS6rO2Z6pbQUkZvKlB+jV0pLfSPhrZb7RzwbuRFKc+b6MM+O6kMdl5TmTI5hG6iIO5mqorf67I1Rk9W1TdaimBpRfOTWrvcdp+mkURrRgalqUzc5tuHRL2bzPHWpYgKpTTsez2ih9uPQlRhTZK8EBwUAAAAAADziJxzUq8zhML7ddvQqOfd7EceR2C1KU47eSG1rXul4zTj6jl4pXT6ncXRvwx6JzQNP3YhrkjkoymGDJDX1dKc2KUFervZxJiNHzVxVM076TFrDHBRdKkfx2UUNmbV1GvLNatVXtAlXOQAAAAAAAP3xTgc1n08Wiyk/EMU5eb6mHKlG6Z16wiogB1U+Hz2SkLn89FhWgSWLLohh0Ger1HNQldXZHBbygJPtoNq3yY7OCKtjiVujS2WzR6982XRqfg6K2ml+DsqIDKx1QW0clApKxBwUAAAAAAAIjZ9wUDqSWVZ+aUUJck2SMx4np1N1K8+iNOVI6avWfFN6XMRZTK/8dpwnJ+VPWCe1OF753UjIIn63e0HuJUoHlCMrK9gOqn2bZEsGVsgci9war9dHh4+21Xp9qtnqMorzhue46IPoa/2xpLXEWt+v1h3ZDsq+JDwHBQAAAAAAgqR3BwV5K16Lwn7s6v2ia0iwFh8AAAAAAAgROKg/pW21H9RXNOBvia7BXn/ileCgAAAAAACAR8BBQZ4LDgoAAAAAAHgEHBTkueCgAAAAAACAR8BBQZ4LDgoAAAAAAHgEHBTkueCgAAAAAACAR8BBQZ4LDgoAAAAAAHgEHBTkueCgAAAAAACAR/TuoGT32+Ew3u2qzXP1zKLY6JX3+5Qy6dU+nGnI9EGyMS6L0tPdiNP7SzpIB/rutLKlbJxFvLNtqXZGmheTKI3GeXK+vdxRt32bR7XZbpQORtbut6S8Ws38sY8tnY6OkpbjrNqKl47aX779H+lnGWbx7lz9ny6KKSdYlKYcvSbLOFwy6RqwmjkAAAAAAAiSn3BQnDgc0ih63KBzJtmnKPpmomaz8Wo1o9dXjdS+9UfkHFZPQ0KitPiK2W5Mb+lVSsVRnK4ZWRE5hB0R+R/yY0ZNI92mzeRpgYrzRs7Cutzy0XNH3c1hTkZLDqdT05VTEV2GmED7LGTJyOyVyvjR4Rdl+ciJUVrfqFe/ZvstHz7CjroAAAAAACBEftRBkTsyMsk+SfpyyZNkSAl6pXRtI7Vv/RE5AXIpbB70NFkLcjKl8jNsM0rNSByvWfz0NnSIVJDprFoH1b5N1u2+4/qilTbzw05PDo+zSD6FTEyJdAcljvF825Lvut0rK0Xp2vq1b1lk1XTz2SA4KAAAAAAA4BE/4aCEzWYumXoFTqzX8yxbUoJeKW008qpNo+jXtdw/4tny05rSnLk+zLOj+mjHJaU5c6BF3MlUFb3VZ2+MmqyubbIWxdSI4iO3dr3v9BxpXDc5tuHRL2bzPHWpYgKpTTsez2ih9uPQlRhTZK8EBwUAAAAAADziJxwUJy6X3IjiK7U5qPu9iONITBGlKcdupPatVzpeM46+o1dKl89pHN3bsEdi88BTN+KaZA6KctggSU093alNSpCXq32c6VWOPpPWMAdFl8pRfHZRQ2ZtnYZ8s9rA/NIauMoBAAAAAADoj59zUIdDykF6kqk/B5Xn68XiMWNDorQsO6E3UvvWN/GjRxIyl58eyyqwZNEFMQz6bJV6Dqr6B9kcFvKAk+2g2rfJjs4Iq2PpEYMsOZxOzc9BUTvNz0EZkYG1LqiNg1JBiZiDAgAAAAAAofETDooh+0QmysiUZSTG4+R0qmZsWJSmHL2R2jYZvcgHpcdFnMX0ym/HeXJSk1Gsk1ocr/xuJGQRv9u9IPcSpQPKkZUVbAfVvk2yJQMrZI5Fbk3WANQbL9WyEzzHRR9EX+tPqrESa32/WndkOyj7kvAcFAAAAAAACJLeHRTkrXgtCvuxq/eLriHBWnwAAAAAACBE4KD+lLbVflBf0YC/JboGe/2JV4KDAgAAAAAAHgEHBXkuOCgAAAAAAOARcFCQ54KDAgAAAAAAHgEHBXkuOCgAAAAAAOARcFCQ54KDAgAAAAAAHgEHBXkuOCgAAAAAAOARcFCQ54KDAgAAAAAAHtHZQa1m5TAu1017oRbFhre+lR11y+o++BuSKXvs6pmMFDUczsRxtN22XR27R8nGuCxKT3cjTu8v6SAd6LvTypaycRbJzrb3spgXkyiNxnlyvr3cUbd9m0e12W6UDkbW7rekvFrN/Ov/Lj0ujN1v9TaHWbw7rylnUUw5waI05eg1WcbhkklnbL92uS04KAAAAAAA4BGdHdRuXUZR9WoXKZHtiaLK/BwOWZIMj8eM88X26KJMqmNU4IS003w4J06nbEi+zqrw0yIvsdIMCaXFacx2Y3pLr1IqHuN0zcicyCHsiMj/kB8zahrpNm0m2+H+Uv2jFeeNnIV1ueUjbUddsk/Zcam3b7RJBoysXalsHrmyizJ4ZPMorW/La7RgN0iVR633z7UFBwUAAAAAADyis4PKluV5W73aRUoDbe7odivu98et9isLtFrNMtWa4aDK51xW8+GcIJ8Wx7/goMgbkEthO6GnyWyQkymVn2HjUWrW4njN4qe3oUOkgkxn1Tqo9m2ybvcd1xettLkgtk96CyLdQYk/PN+2ZPBu98pKUbq2fu1bFvlD3Wp2EhwUAAAAAADwiM4OyiXd8zDGWyPzdtsNhzG96pkNrTFGZhxHu9fTYj+q5f4R4Zaf1pTmzPVhzv6EXinNmQMt4k6mquitPp9j1GR1bZO1KKZGFB+5tet9V2r2iVvQ6+htkjbPE5UqApBasOPxjBZqL57Oa0yItRccFAAAAAAA8IifcFAyB9VyEinLlqvVzK7Z8vDzeTuZjGSy6806XjOOvqNXSpdqMor8jO5t2COxneDJHHFNMgdFObWuhtOd2qQEeTmO5dMlzRomRz+dXo0ujKP47KKGzNo6DflOwUEBAAAAAACP6N1ByfNLnR5kSpKhYZY6HZ7n6+XyMf/zfvGjRxIyl58eCy2wZBkGsRD6bJV6Dqr6jJvDQh5w0s0Gp9u3yY7OCLRj6RGDItvYSM7hkhpxgHZlO7O2jgpBxBwUAAAAAAAIn94dVKmtxSf+p1RuR0cy9UOMmu0PJ00mo9Opxja8QelxEWcxvfLbcZ6c1GQU66QWxyu/WwtZxO92L8g4RemAcmStBdtBtW+TjMrgxeQSuTVZA1BkGx45NrFW87Mr25n62aUIz0EBAAAAAIAP4SccFOSneC0K+7GrnxadMcFafAAAAAAA4DOAg/pT2lb7Qb073JHOaK8/0V5wUAAAAAAAwCPgoCDPBQcFAAAAAAA8Ag4K8lxwUAAAAAAAwCPgoCDPBQcFAAAAAAA8Ag4K8lxwUAAAAAAAwCPo9hSCPFczrnIAAAAAAAD6Q92emr/6Q5A/goMCAAAAAAAeAQcFeS44KAAAAAAA4BFwUJDngoMCAAAAAAAeAQcFeS44KAAAAAAA4BFwUJDngoMCAAAAAAAeAQcFeS44KAAAAAAA4BFwUJDngoMCAAAAAAAeIQ4qy7LNZrNarS6Xy/V6tW9kbQ0Gg+12JW+32+Wgau5RpNO+/nAY73br5kaYOI701gxJNWqwKL4alApZtkzThX5Inq+Wy5leTRopig3nUAWqph8F/bTgoAAAAAAAgEewg9put2WZluWG7NNisSiK4nw+2/ey1q3tYD6fyFtK697j/9U/HNIoipob4cTplJE7sisY1Q6Hr2qSadunyyUfjYb3e6FX4wTZpyh6mCiqQNWu11w/FvpRwUEBAAAAAACPYAeVZRk5qIuiKObT6XQymYzH4yRJhsPhq1kpMhjr9ex0IvdV+Zn1em47oq71yUGtVtVEUEMjnDgeszhu46BSw0HZ9olEJ5XJJfuqyD5JertdyRVCbxAcFAAAAAAA8Ah2UGmakkdaLpdkls5PTk8GVRhbzawU5ZM/4cg3eqW07j10OtXfbOZ25sCqGceRxPvZkmpJEksMHr0l+0SGil2cLsq8XndSzUjoaarWMPcF9S44KAAAAAAA4BHsoNbrNc8+7XbTPK+mnrbbYRRFaeVxyNJssiw7HA7WrW1lKshO3G4PU1HrPTrVv1zyNlF85/N2Mhlx0F2tXh2bpguyQONxQtfwqr59VfoclFEZ+mnBQQEAAAAAAI9gB8ULSOx2M7ZPZJnIxpBrGlSTNhW73a52DqpUjzMtFlN+wMn2Hl3rHw5pkgydjZTVwg/r5XJqV2hz7PGYTadjvYgcHZk3oxon9OegSuXxkgRzUO8THBQAAAAAAPAIdlBlZWzmk8lkNBqRfUrTlCzTQcO2T+rWtjIYeb6iBPkZyeGETvv6ZJ/IRDkbYdH12vF4drXaTLoM/XEmSsvKfvq5GLFPJZ6DervgoAAAAAAAgEeIgyqr0LhzURR5ntc+9fTZUjNLj7X4GkQVqBrW4nun4KAAAAAAAIBH6A4qUMlMkWDXaaPtdtUQFsiiCtgP6s2CgwIAAAAAAB7xAQ4K+mzBQQEAAAAAAI+Ag4I8FxwUAAAAAADwCDgoyHPBQQEAAAAAAI+Ag4I8FxwUAAAAAADwCDgoyHPBQQEAAAAAAI+g21MI8lzNuMoBAAAAAAAAADyBgwIAAAAAAACAtsBBAQAAAAAAAEBb4KAAAAAAAAAAoC1wUAAAAAAAAADQFjgoAAAAAAAAAGgLHBQAAAAAAAAAtAUOCgAAAAAAAADaAgcFAAAAAAAAAG2BgwIAAAAAAACAtvwHynhzU5Nk2nwAAAAASUVORK5CYII=;" vertex="1" parent="1">
          <mxGeometry x="-30" y="30" width="1131" height="519" as="geometry" />
        </mxCell>
        <mxCell id="_rLCLBlPRa0EdaRFuiWH-2" value="" style="shape=image;verticalLabelPosition=bottom;labelBackgroundColor=default;verticalAlign=top;aspect=fixed;imageAspect=0;image=data:image/png,iVBORw0KGgoAAAANSUhEUgAAApUAAACMCAYAAAAtF1LdAAAAAXNSR0IArs4c6QAAAARnQU1BAACxjwv8YQUAAAAJcEhZcwAADsMAAA7DAcdvqGQAAC6YSURBVHhe7Z1Jsuy4rYZrSX6zOqt4s9pBnT3cmaduKt2Gu+dt1NmBw545HB5VhsMeubfXkI9gI4IQQFJSSslU/p8DLolgIwEgiVTmufrsZz/72e2///3v0wl4fr797W/HIwBsECfbgQ3HAb7YH9j4WMjeKTd76qRSK4c8j6SJr+kgkCSIk+0CG44j8MX+AhsfK2TvdHyqpPLXv/717ac//entP//5z0wHGU+siQ8/QrggTrYLNtlxBPG8v8DGxwrZOx2fJqn8xz/+cfvRj350++53v1uUQ8YVbeLDjxApiJPtYm2ykOMF8by/wMbHCtk7HZ8mqfzFL35x+9Of/nT77W9/e/vBD35w+9e//lXoNfnss88KadXRdLIsSat+rS2JrNvqz5KlbdeMw/V0rAmvn0Sb+Ev82DNGEk0v23PR6soyS2RfXJJetuHlvH4SWU8TXudMcq840cq1Y61M0yep6bhYY0iRen7ORbZLotWVNuxpk0TTy/ZctLqyzJKevjTp1fN6S8s0fRLSWSLrbo3nJK1xZB1NJ8uStOrX2pLIuq3+LNH6ScLrSXkGG5Nw/dK6mkh9Oufl/NgSq04ql0L2TsenSSq/+uqr29///ncfNN///vcLnSaagWTZ0nMurf7p2GovdVZdqz2XpW2turX6XGfV00Sb+Ev8KMeqjd26rq16S7R2Vl+pvNXGan9WuUecrLFpS5+kpuPSGkMru8e4JNKGsu2WcbbqubSu615jafVaZVv65rI1nkl6rn/pOZdW/3RstZc6q67Vnovsx9JJGcnGWj+abmldrpdi9WW1661rtSd7p+NTJJV0D3/4wx9uf/vb327ffPON/yRyuVyK+lwsw3DpMX6tH00n21rtpS4dy/pWey5L2tbqavU1nVVPEznx7+HHWlnt2np0tTqWWG1kOT/X2rT0Z5Z7xYm0W8umLX2Smi5JqiPram15Wa3vmk6KtGFrXFm29jp62nPR6vGyVj8946Q6sq7Wlpf19E3SqrfHuifFqtN7P5pOtrXaS106lvWt9ly0frhYfYxk41q9LXW5XkrSy3pWO628t4yE7J2OT5FU/uQnP7n9/ve/nwKGjp9hUsoyq7xVtyZL2rbq9pTLOjWRE/8efqyV1a6tR1erY4nVRpbzc61NS39muVecSLu1bNrSJ6npkqQ6sq7WlpfV+q7ppEgbtsaVZWuvo6c9F60eL2v10zNOqiPram15WU/fJK16e6x7Uqw6vfej6bS2sp5W3qpbE60fLlYfo9lY1tXK19S1pNWXFK28NQYXsnc6fvqkkv6Si358+8tf/vL2z3/+8/aXv/zFfyr5zne+Yz7i7jFWj/Fr/Wg6ra2sp5X3HFvS27Z2no6tOrKuJknPhU/8e/lRlrXOl5Zb9Syp1U+6njF4GR1rwuufSe4ZJz3HWpmmT1LTkUi97FeKVVeKbJdEqys3Wa2eLGudLy236nHR6vAyOtakpk+6pLfOpU6WaXpNWvX2WPekWHV670fTaW1lPa2859iSVn2rj9FsLOtq5UvraiLb1I651MotHReydzo+zW8qv/e9700BQ8dcJ6XHSD3Gr/Wj6ay26bilrx1b0tu2dq4dt/Q9Ijc6kq1+lGWt86XlVj1LavWTThtDitTz87PLPeOk51gr0/RJajoSqW/129InqemkSBu2xu05X1pu1eOi1eFlrT6W6lt9t/SatOrtse5Jser03o+ms9qm45a+dmxJq77Vx4g2TsctPT/uqavJ0nY9/dXqkL3TMZJKQ3qMX+tH01lt03FLL89luSa9belcCtfJ45a+R/aY+LKMzqVwPa9nlUvR6lnSqq/p17Q5s9w7TtI5L9ds2tInqelISC+F63hdWabpk9R0UqQNW+Omcylcz+tZ5VK0ely0Orys1UePXgrX8bqyTNNr0qo3YsIjRdNZbdNxSy/PZbkmtX6sMpIRbZyOW3p+3FNXE6nX+uPS6i+JVY/snY6fPqmk30r88Ic/9I+2//rXv/qAoXuiv/R6hq8Pes4tnSzXpKet1Y9Wt3Vu9aUJn/j38mPPtbTa1cpq5Zq06i4ZN8mS8c8g946TdM7LNZu29EnW6FK5pudla/rWRG6ya8dttauV1cqTtPpa0z6JpUvlmp6X1frm0qq3x7onxarTez+arta2dm7pZLkmtX6sMpJRbVw731JXitXWaqeV95aRkL3T8SmeVP74xz/2wfLnP//ZC/0Ql/4dKl5fSo/Blp5zafW/pG+rL61cSk9bq59ULvW1c6svTeRGt9SPS66rVd5bVivXpFV3ybhJlox/Brl3nKQyXm7V0Y6lrNGlck3Py9b0rYm0oWzbOq+V95bVypNIfetcSk1v6VK5pudltb65tOptjWeS1rWuOefS6n9J31ZfWrmUWj+19qPauHa+pa4UTU9lVjurfk8ZCdk7HZ8iqaR7oL/mokAh+d3vfuc/hfD6miQjJ2nVqem4WHrZlp9L4XqtruwznXNJ5amOrMvPuV6WW/oksi9NeP0kcuIv9WNrDGvc3rqt9vRfKVZdS9a20USrewa5R5xoZbI8lfXokvToeD9JuF6KrKdJSydF2rDVxuqnt26rPf1XilbO21rtSLie1+di6WR7LrKeJrxOqifLuGyN5ySt65B1ajoull625edSuF6rK/tM51xSuVUnlWsyko1lGReuX1pXE60uL9PKk84q56LVISF7p+PT/KaS/nmAP/7xj16sR9qQsUROfBL4ESIFcbJdNBtCHiOI5/0FNj5WyN7p+DRJ5c9//vPbb37zGy8UPFRGP8rldSBjiTbx4UeIFMTJdtFsCHmMIJ73F9j4WCF7p+PTJJUk9Bddrb/qgowj1kYHP0K4IE62i2VDyPGCeN5fYONjheydjk+VVP7qV7+afnz773//e6aHjCXWxIcfIVwQJ9vFsiHkeEE87y+w8bFC9k7Hp0oqIc8l2OggPYI42S6w4TgCX+wvsPGxQvZOx0+bVJLQjUCeW+BHSI8gTrYLbDiOwBf7C2x8rJC9SXxS+WzQhYPnB34EPSBOtgMbjgN8sT+w8bFweyOpBA8DfgQ9IE62AxuOA3yxP7DxsXB7I6kEDwN+BD0gTrYDG44DfLE/sPGxcHsPnVTSv+CugYA5B/Aj6AFxsh3YcBzgi/2BjY+F23vYpDK9FkgDAXMO4EfQA+JkO7DhOMAX+wMbHwu391M/qby8UeL5drtc3cn1cnuLiehnbxevv10/bu++DpW93z6oHhgG78eP9+AfJ2/ekeTKt6ns80+fsl+TryMf76k8ivSx9P/lPYwxjenK3P/eY/v3D2rD4mjreFzHoPtL9+pptPt4d/W97nIzuizg9gvy5u4ttJx0/mbL83k7kmADXUf2izibFvd0R7rnOzCxNlny6z38luODxUSkptszbkbF8gVYxvXj43Zxa6MWV4j3Y+H2fvKvv2kzdkESN0jiQpuyP7r6ZGHaTMmZkw6MwORHZaLRxGRuDecpKWRcnP9T0dXpU7Lk/S8StA+2oFCiNnVFCQofzLF8vKhj8aYnOxSXZRzW2tEY+ZYu7prK67Eo748S5zxmofNzKCSr2eahzB+xuvzeiTzXiPl93Yu++Q5q6Jvs/X1W84eu2y9uRkX3BViLFleI92Ph9j5BUnkRG190WEeiAh5L9qObaM5v2VtX78f5OdUrn9aViU5OhjT/c+pJ5YrxZhg6ShqrQVi2Kxem2ngls6SyuI98XiaYCX2cdO96GyrPT5vvSdd8JyjpZk98d7iUp0XdZEUs0vpIT4LfnJ/Dk5Zs5/CUPq+twcZajNgbpqXbK25GRfUFWI0WV4j3Y+H2PkVSyZOC5Eg1gXTB8UqL1+jwQCz8RX7izmP+lQkNT/L8k8hYr/UBIiwaTDaOJ6HxtVhrLSiynVyYaosYR97fbEyysbsX/VqspDL1V9pkQiza96JnviddvqzwweD+V/OcaJusFou+LNrWPzVn/iztacWIbXNTt1PcjIrmC7AeLa4Q78fC7X2OpJKO4uafHImkcnyKiV9J5GYJJ1PmRMfJe04q2kklG4ONTawZj0NfWfP+ONTeui6tnVyYaosYp7QhJVhze9h9WQto6FP6Z4IWS6XdVnrmu/QT0YqBV0LbZLVYLH1bxkEZL3feZHeIm1HRfAHWo8UV4v1YuL1Pk1SmxGByJDaZ4ZETP0xwOXkpIWKJHEkx8eOicBWJk+J/TrGYFEnlyvEi1G/td49WUmm1Kxem8HV8D+Vi6VDsYS+I1gIq+pTstFhivm8Hm+w4aL4A69HiCvF+LNze50kqHRQg+Y9x6AexFEQhYvCHOuMxm/jeRyIREE8RCb4QlImOi4fpR9Ah6cu6q2+XuioWEz7GxvF4U1pUpqqR+Vcw9Xb09PKSdHRtRVub4v5oDDeuuC0/jiiKWAso75MuR/iKFks5yB3om+9Bly+P7Ir5ntA2Wf3rQBHfzN6T//0HqvLDVqJmc1O3U9yMiuYLsB4trhDvx8Lt/dRJpXe0f5qUnO82Xf6XVZ3/xAt4DPOJTx8EuP/In9F/cRLSwpB8/uUX6TgnTJTo5H/KgZKp/CPs9CQw1KEyqudiJPZR/PNFC8f7ml/rJOxeEnJB6WhHCaEvL5Imm3x/WShRntrSNXAdW2hl2/I+c7nUE2Qrfn4v+uc7/lDHQttkZSyW8yJupHSe6rj6IVZpLjlbT7o8h7KkzbqmC+wVN6Oi+gIsJq8HUdj6iHg/Fm7voZNKC0zKc/CafhSJ82nY774w37ej23CEWDzrfLBBPO8P4v1YuL2RVIKH8ap+pE/Ivf/e5NNAn+p3uifM9+1YNnx4LO4YN6OCeN4fxPuxcHsjqQQPA34EPSBOtgMbjgN8sT+w8bFweyOpBA8DfgQ9IE62AxuOA3yxP7DxsXB7I6kEDwN+BD0gTrYDG44DfLE/sPGxcHsjqQQPA34EPSBOtgMbjgN8sT+w8bFwe/ukkgogEAgEAoFAIJClksCTSvAw4EfQA+JkO7DhOMAX+wMbHwu3N5JK8DDgR9AD4mQ7sOE4wBf7AxsfC7c3kkrwMOBH0APiZDuw4TjAF/sDGx8Lt/ewSSV/zZEEAXMO4EfQA+JkO7DhOMAX+wMbHwu395BJpUwk5TkC5hzAj6AHxMl2YMNxgC/2BzY+Fm7vJ08q5y9vf2Mvg+fl/AXu+UXyXN5vX7M26VVKvO63/vd/puMs8T2elfGAjvdjw+aff/oUX+pPMn8xf6rn5c35gr8B6+ri443pLvEVWdOY5LscQ95n18v9xuM6Bt1f8aquRruPd1ff6y43o8uCeXy/uXsLLSddDFB+Pm9HEmyg68h+EWfTvV4/luZ77dpBHWuTJRvew285PlhMRGq6PeNmVCxfgIVU1k3E+7Fwez/FbyrJQZwiYCgJYJvKh3NoPqWgu8TjkstbmTBcKCjpQHE6BUnq02znsccDcyY/NmxO+POUFDK4P65OnxOMq/NFudBQbKT2lKhNXYkYIpaPF3UpeXP3REngHHddYrGptaMx8i1dut9bW96fi0s2ZqGLMUun2eY5jnndeuzP7+te8PluXTuoo2+y9/dZGRMlum6/uBkV3RdgKbV1E/F+LNzewyeVMqEkioCRCUGRoNhJXtogy02KcE53wZCLrj440rndjrDHA3OyH+s2z+dUr0wiykSH2V9JVDmF/2ZJ5YrxZhg6WvyKsSRlu3Jh6o+v8v5Cu3wf+XxJHNdjn8rz0+Z7Um4Q9rVTUhyeEMyfXAQbZJ3/wBFVr4C6yYpYDPZzH7ycn4Mds33DU/poM2rn7ajFiG1XS7dX3IyK6guwkXLNQrwfC7f30EklOVKjCBj5pNJtNPlU3xyJS9pgWCAl8hMbhwso3n+tXW08MIf7sWZz7mOZSPAkzz+JjPWK/hTCosFk43gSGl9bOFoLimwnF6baIsaR9zcbk2zs7kW/Fj2O67HvEIv2vZhtENq1O5+VT3HdB4P3nEiHdSGeiSe3r4C2yWqx6MuiD/3TH+bPMvasGLHtaup2iptR0XwBtiHXTcT7sXB7D5tU0uZlUQQMJQDm5mknedWnLh1JhdquMh6YM/OjYfNZwsmUOdFxwpKIdlLJxmBjE2vG49BX1rw/DrW3rktrJxem2iLGKW1IT17n9rD7shbQWuw7aLHcIf61DUJeO/ls8ssk7DrJj6zc8sFZ0W04j8XSt2UclDa/8yb7Quum5guwHm3dRLwfC7f3U/yhjqQIGJEQlIhAYAkCf+KkEYJtHkj1dvZ4YI6c+LrNKSHiiYITpp/8cRWJU8P2xWJSxNDK8SLUb+13j1ZSabUrF6bwdXwPxf0Rij3sBdFaQEWfkp0WS32DENe+YK5dP5y/3XX21T4H2GTHQfMFWIe1biLej4XbG0llZPZki+oqSUO9nT0emDOb+JrNFf/yhaD0h7P/9LVmSPqy7urbpa6KxYSPsXE83pQWlalqZP4VTL0dfQq/JB1dW9HWplws3RhuXHFbfhxRFLEWUN4nXY7wFS2WcpA7oG8Q8trpml2Zap7op2xUJJUO/etAEd8sDib/+w9U5YethB1TFd1OcTMqmi/AUurrJuL9WLi9h00qpXDyDdBmwepxR5HjuC4KBZX+VZncdK+z311V21XGAzrziS9sTpt/smV0Di0MwbZvty+/SMfZd8FHqQ9KpvKPsNMn2uxHqpdjqPjnixaO9zW/1kmURUUuKB3tKCH05Z2JkBanlCjntbOMVR6jsm15n7lc6gmyFT+/F0WcVK6dbDn9MY7z19v08wTaLOiPc7Juj+scGW2TlbFYzou4kdJ5quPqh1ilueRsPenEOhzrBNfUdIG94mZUVF+AZTTWTcT7sXB7D/2HOhaYlOfgNf04/7ByDva7L8z37eg2HCEWzzofbBDP+4N4PxZubySV4GG8qh/pE3Ltd5dPCX2q3+meMN+3Y9nw4bG4Y9yMCuJ5fxDvx8LtjaQSPAz4EfSAONkObDgO8MX+wMbHwu2NpBI8DPgR9IA42Q5sOA7wxf7AxsfC7Y2kEjwM+BH0gDjZDmw4DvDF/sDGx8LtjaQSPAz4EfSAONkObDgO8MX+wMbHwu3tk0oqgEAgEAgEAoFAlkoCTyrBw4AfQQ+Ik+3AhuMAX+wPbHws3N5IKsHDgB9BD4iT7cCG4wBf7A9sfCzc3kgqwcOAH0EPiJPtwIbjAF/sD2x8LNzewyaV/DVHEgTMOYAfQQ+Ik+3AhuMAX+wPbHws3N5DJpUykZTnCJhzAD+CHhAn24ENxwG+2B/Y+Fi4vZ/i6+9qUnn9uL2nF8G/vd8+Luw1SFIXi8OL4+NL3vmL6d8u7CXzXEJdXRfe47m2z1fG+5Fe8h9tkvzG7fX5p0/ZlsqL+VM9L8zHHis2pjHJd65ObO9f8s99t3U8rmPQ/RWv6mq0+3h39b3OxVIsS6zVaczj9M3ZJLScdN5I5fm8HUl7zng6XluW5nvtGkAda5MlG7bs30P2M/NtpKbr8f/ZsHwBlnL1a5yPLbFuIt6Phdv7yZPKq9uMy2D6mIKGXtxOiUJQXsmZVNef0Sbu6rHN6BJ1FBChmOpc6MAHboqDi2vHYyK129LnqzL5UZlo2WYBf84/MES4P65OnxOMWmwI+1MiyQdzLB8v6li8UTI3h+IyxUyg1o7GyLd0Kd5bu1ZXo7SLi1d2rWXMhlim0/VzhpjbQ8IXLOsaQB19k23bfimlb0t03f2vYXR0X4Cl0FpQ7O9sLUa8Hwu393P/plJJRiaqiUrYjMqNTzo6b5CctEGWmxuxvs9XJQeim2jOVtmcV2+7+TnVK5OIMmFh9q3FhqPw3yypXDHeDENHSWMxlqRsV8bQfXQ1SruEdvn+8/k8/gl9HHvOBOgJcM1X5QZhXwPN72ndoPvnXYqnwf4DR1S9AuomK2Ix2M998HL+CnbM9g1P6aPNqJ23o+Zr266WruX/s6H6AmyiK6lEvO8Gt/dTP6nMSeIcVUeB550ZNz+WTMwDwNogKdjKAAys7/NV4YFY+EssENymMpHgSZ5/Ehnr1WKDCIsGk43jSWh8beFoLSiynYwhfr5WV0PaZXat5BtnA/0els6ZiFjsJbMNQrsG57Pyaaz7YPCeE2LyY3qqIZ/AvgLaJqvFoi+LvvBPzZlfyhiyfG3b1dQ1/H82NF+AldBaTWuLiy0eyYj3Y+H2fu2k0heFjW4eAFYQhfoy2djS56tSTPxKIlf4cvJhICcsTlgSUYsNohiDjU2sGY9DXz1bySa1t65LaydjiJ+v1dUobU9PbOd2tPtaOmcitMhW5oW2QchrIJ9NfpmEjUd+ZOWWD86KbsN5LJY+Kv1Z2tzytR1npq7h/7Oh+QJso+dJJeJ9P7i9n/s3lRRI6i7lUHQ5WWABEhOKeQBYQWRsjBv6fFXkxA8TXNqIEhueKDhh+skfV5EA1WLDUSwmRVK5crwI9Vv7/aKVVFrtyhgKX8cn1upqlIusQ7HjPK4TS+dMpLHI6huEuIaGvznXD+dvN15f7XOATXYcNF+A7fD4QrwfC7f3kEklbeQceZ5vIGzsOSjCX4OFwHEbqWtn/6FOdiq1ybqEFUTlBqkmqo4lfb4qs4nvfSQSNfEUkeALQekPZ9/pa81abJR9FGNsHI83pUVlqhqZfwVTb0dPLy9JR9fG2q7V1SjsQtfmrleYw1+fKIosnTMRWmTlIAx9g9DmlitTbzP6KenIHu46+yxyDjQb6l8Hivhm/pz86D9QlR+2EnZsVHQN/58NzRdgKfRB2cUj298pHlPoIt6Phdv7uf9Qx0MbX/6hbfG0R/w4P20qPkBi/RA0bpNhv7GSX6Ul/+tfsQX92j5fmfnEpw8CbCJ6G0abRYPRwpDs/OUX6Vj6KPWhx0b2BdWjhCP0UfzzRQvH+5pf6yTsXhJyQeloR4mdL2eLZmKtTkOLb0qwp7Z07VzH5poV31qfXE+Qjfm5pIiTyjWQLaf57vz1Nv08gdYB+uOcrKuNd0a0TVbGYjkv4kZK56mOqx9ileaSs/Wky3MoS9qsa7pAy/9nQ/UFWI6xvxOI92Ph9n6Kr78lmJTn4DX9KBLnl6dtD8z37eg2HCEWX28+IJ73B/F+LNzeSCrBw3hVP9In5NrvLl8KehrQsAXm+3YsGz48Fjv8fzYQz/uDeD8Wbm8kleBhwI+gB8TJdmDDcYAv9gc2PhZubySV4GHAj6AHxMl2YMNxgC/2BzY+Fm5vJJXgYcCPoAfEyXZgw3GAL/YHNj4Wbm8kleBhwI+gB8TJdmDDcYAv9gc2PhZub59UUgEEAoFAIBAIBLJUEnhSCR4G/Ah6QJxsBzYcB/hif2DjY+H2RlIJHgb8CHpAnGwHNhwH+GJ/YONj4fZGUgkeBvwIekCcbAc2HAf4Yn9g42Ph9h4+qaTXHEkQMOcAfgQ9IE62AxuOA3yxP7DxsXB7D51UpndnShAw5wB+BD0gTrYDG44DfLE/sPGxcHs/d1JJL4iPdYK85Re1Xy/xZfChnL8ZKb9InkusU2nnBrzNXxbv5O3itdML6UW5vE7+Mnn9Wl7jXbjej8w26fVV3Caff/pk+oNezJ/qeXlzduP+ujp/JZ+Q7hJfkTWNSXbOPvV+qfh/8Xhcx6D746/qun583C7vdM90PXM+nM5fk4sn2WVNpzGPN5ozoeWkiwHKz+ftSIJ9dB27l42vJkvzvXZ9oI61yZIN7/HauBwD8xiu6bbGxjNi+QKsI8RXGVuI92Ph9h42qSSn8P9y+A2QA/OecnWbepkIeH1KJiK5DSUBIfGjzbnVzkNJR7GJ5T4SF0oo4nFmXi9xEdestz8fkx+ViVb61fYHt93V6XOCQbHg7Miqf7g+UvvC3zOfrhkv6lKCRomr6m93Xdpi49D8TmPkW7oU762t6WqU905JdR63nAchZum0NWfqMWzfcw98vlvXB+rom+w2v2jU1i5dd/9rGB3dF2AdYQ3wa30sIRDvx8LtfbKk0lEkKFfv2Cs5Ut188gZZUmk3JSBWWyuYavXDRllumOcn+5HsTPZOJPsnbH+UyQyzceMTYZlYyaRyxXgzDB0lm8VYGS1uyrKyz5quRnnvoV2+x3yux6M+TiuG6SlvzR81yg3Cvj5aC8ITAidkGz6ceIosN6Gzo26yIhaD/dwHL+fLYMds3/CUPtqM2nk7anFg29XSbYmNZ0T1BVhF2v9lbCHej4Xbe8ikkhyY4McJfgOzpJInCOx4yQZZbUc6H4B6kBF6MBljOfLX5to1nhfTj24SF0lexR88yfNPImO9WVwIwqLBZON4EhpfWzhqC4oWN7KMn9d0NeS9z66H7O/uU79OK6lM/RkxLBb0Jcw2CO36nM/KJ7Xug8F7TpbJj+lrfvl09hXQNlktFn1Z9JN/2s58VsaXFQe2XU3dhth4RjRfgBWwdVrGFuL9WLi9T51UzhKV2W6nB0q13dS/3pbQg6lWP2zEeuJ7XoqJX0nkav4ofsfKkohZXAiKMdjYxJrxOPS1NO+PQ+2t69LiRpbx85quRmlfeio7t5Xdl7W4NmKYFlIj/ltoG4S8PvLZ5JdJ2LWQH1m55YOzottwHoul/0pflza34sCOQVO3ITaeEc0XYDk8VmVsId6Phdt72KRSCoffwCx5mJIA2ixFPzNHaoHSaCcSEA09mMRY03VSfWMjPjly4ocJLn1S98dku6tIjph9NYrFpPDpyvEi1G/tt43awpbQ4qYsC1/HJ2q6GuVC6lBsZS6IMo4jzRjesJDqG4S4voa/OdcP5293LX21zwE22XHQfAGWU1unEe/Hwu097G8qExQsEn4DZVIZNnofJEryN9tMtUBptTsgqWw9ZTsLs4lPNpGJWsMfpe2cjaevNVkseK6+XerK9OnG8XhTioOpakT7CiahxQ099bykQro21ramq1HcO123uyZxy+q1BKzFlfdJlyP8SAupHKQTfYOQ10fX5cpUE0Q/JR3Zyt1Dn7XOgWZD/etAEd/M15OP/QeqchNP2HFT0W2IjWdE8wXYhowtxPuxcHs/d1JJzuGfVNLXWrRppLLoPAqoVIcCRX5d1tPuq29oc0rnuU7C/OQ0u84gFODyOpKIrk/JfOJfy9+6Nfzx5RfpONsr2DP1QQlT/hF2eoKYbU71sk+Lf75o4Xhf82udRFlUlAVFixu+9FHSp5UTNZ2GFm+URE9tRayWSWzZtrRBLpd6guwobrubIk4q1+cuxG0KSUe/d002oc2C/jgn69Zey7OibbIyFst5ETdSOk91XP0Q4zSXnK0nnVgXY53gmpousCU2nhHVF2AlLL5YECHej4Xbe/ikUgOT8hy8ph9F4vwSbLtnzPft6DYcIRZfbz4gnvcH8X4s3N5IKsHDeFU/0ifk3n9T8hTQJ/4N94v5vh3Lhg+PxY2x8YwgnvcH8X4s3N5IKsHDgB9BD4iT7cCG4wBf7A9sfCzc3kgqwcOAH0EPiJPtwIbjAF/sD2x8LNzeSCrBw4AfQQ+Ik+3AhuMAX+wPbHws3N5IKsHDgB9BD4iT7cCG4wBf7A9sfCzc3j6ppAIIBAKBQCAQCGSpJPCkEjwM+BH0gDjZDmw4DvDF/sDGx8LtjaQSPAz4EfSAONkObDgO8MX+wMbHwu2NpBI8DPgR9IA42Q5sOA7wxf7AxsfC7T1kUlm+4igIBwFzDuBH0APiZDuw4TjAF/sDGx8Lt/ewSWUNBMw5gB9BD4iT7cCG4wBf7A9sfCzc3k+dVNKL2fnTzM/e3m8f8Q1I+WXxXNg7N68ft/f0AnnX7v0tvvSdXjpftHnLL3+/XuIL5kM5f9uSPl6o07yWF8X7kdk7vb6K2+vzT59Mm9f87xE+/rjEV2RNY5IPXJ3Y3vu54uPF43Edg+6veFVXo93Hu6vvdZeb0WXBPN4ohkPLSReDmp/P25F0xvCOrx9L87127aCOtcmSDe/htxwfLCYiNd2ecTMqli/AMnJcBeFxhHg/Fm7vp39SeUnJoOPqkga+wXAdcaENmx1PuutV9MMSSXoBvOjH61OCEsltKEG4+DJKBlKV2rW8KpMflYlW+kC3OWH7n/zmbMyqf7g+UnvuG9fw9sYHcywfL+pS8kaJa4yDEnddYrGptaMx8i1dut9bW94fJc55zEIX45VOt8Xw/L7uBZ/v1rWDOvome3+f1dY1Xbdf3IyK7guwFFqv5PqcQLwfC7f3U/ymUsJvoNzo8mZIJF25EQX4Ri6RCY3rgAUvJaDv7v9dcKgbWnkNidq1vCrZj2RLsmki2Thh29z0f+MTYeGHWVK5YrwZho6SxmIsiYxhvgDVxisp7y+0y/eRz/V41MdpxTA9ya3ZfC3lBmFfO83bad0gu/FLEU+D/QeOqHoF1E1WxGKwn9uonZ+DHbN9w1P6aDNq5+2oxYhtV0u3V9yMiuoLsJjFSSXifTe4vZ/iSaU85zfAN3n/JIoFzSVtIixYJsQmw/WzpJInHex42YZcuZYXhfuxsLmbxEWSV7G55f+ZDwVh0WCycTyJteC1FhTZTi5MtUWMI+9vNibZ2N2Lfi0rY1gs2vditkFo1+58Vj7FdR8M3nMiTX5MPwGQT25fAW2T1WLRl0Uf+qfmzJ9l7FkxYtvV1O0UN6Oi+QIsh9bKvMaV6z3i/Vi4vYdMKiUUNBx+A3mjc8I2EaL1ZGVCbDKzhIQlGYWONrdZx1bwdV7LC1FM/EoiV7O55f+ZDwXFGGxsYs14HPrKmvfHofbWdWnt5MJUW8Q4pQ3pyevcHnZfK2OYFkul3Va0DUJeO/ls8ssk7DrJj6zc8sFZ0W04j8XSt2UclDa/8ya7Q9yMiuYLsJXy2y7E+7Fwe58gqYxBEX8XyYNm0nXAg2uWkEyJBY3BNy0ns+Cob8ggIyd+8IG0X93mpv8nn+kUi0mRVK4cL0L91n73qC1shNWuXJjC1/E9FPdHKPawF8SVMbzTYqlvEOLaG/7mXD+cv9119tU+B9hkx0HzBdgOjy/E+7Fwe5/q62/vePbEUW6CU7JISYRzqssLIuWnnDKpDMmD70c80SJmm7cZfMa1vDCziU+JgbNTYZeGzW3/M795rr5d6qrwGx9j43i8KS0qU9XI/CuYejt6enlJOrq2oq1NGZduDDeuuC0/jiiKrIxhWizlIHdA3yDktdM1uzLVPNFP2ahIKh3614EivlkcTP73H6jKD1sJO6Yqup3iZlQ0X4Cl0J7t4jFOavlBEfF+LNzewz6p5E+KJOkGKEhSneQj2ujoB7b/5/+b9UU9v6nQj/VTOQsscnjRJm6c1CaVxcHy+KF9GDuVyWvK5VL/qswnvlso2IeCls2//CIdz/0fTimZSrZ3foxOzv6gepRwhD6Kf75o4Xhf82udRFlU5ILS0Y4SQl/OFs0aWrxRojy1FTHOF1rZtrzPXC71BNmKn9+LIk4q10625HP6bfp5Qkg4uW6P6xwZbZOVsVjOi7iR0nmq4+qHWKW55Gw96fIcypLW1JousFfcjIrqC7Ac8XcR/AMl4v1YuL2f4utvCSblOXhNP4rE+TTsd1+Y79vRbThCLJ51PtggnvcH8X4s3N5IKsHDeFU/0ifk3n9v8mmgT/U73RPm+3YsGz48FneMm1FBPO8P4v1YuL2RVIKHAT+CHhAn24ENxwG+2B/Y+Fi4vZFUgocBP4IeECfbgQ3HAb7YH9j4WLi9kVSChwE/gh4QJ9uBDccBvtgf2PhYuL2RVIKHAT+CHhAn24ENxwG+2B/Y+Fi4vX1SSQUQCAQCgUAgEMhSSeBJJXgY8CPoAXGyHdhwHOCL/YGNj4XbG0kleBjwI+gBcbId2HAc4Iv9gY2PhdsbSSV4GPAj6AFxsh3YcBzgi/2BjY+F23vYpJK/5kiCgDkH8CPoAXGyHdhwHOCL/YGNj4Xbe8ikUiaS8hwBcw7gR9AD4mQ7sOE4wBf7AxsfC7f3UySVEn8D9HL4+CQzvfYovyA+lE0viE/ydvH1POJl9O9v+aXvVjvef5bQTtfFd3yyaw3ydroXyq8hBWKwd7T/9RJf4u/E2T37wtmS6z7/FHSuTn7pVfQ5lc38QTafx0mW4Ct62X9R7mIjNptB/ZSv3Lq69rHvWTseb/ya21Cf/r5luxd5xV2Kk8lvcfLIc2BjbbLzGF5HnlNxzWPUdK8SwxzLF2ANbs1Pa67fI0Ip4v1YuL2fN6kkFAeRQ+Uec6ENPh4nqGxqeqVkJCeVCdku900JQkg0acNP7WQfvH15XdciiX1VciCSPd1kZ47Ltsu2Tkw68r9rNzUT59w3/kMEm+Q1X3Hd9eI+ELDryjgfikWDxpsSV7oW1q64lgULC40/deOS6vK9tfNrOCN8wSrs6O6cYqPPkq+NvsneP37kmsnRda8RwxzdF2A5lFC6fVz51I94PxZu72GTSi6SfAPOQc5xOaQoOeTnAc25PnGwHkFF7ICZJzpESkbKjS8wS3YXJBZnJfsx2JPbLdu+kVS6RSUlb2T/d5/Y+dPSD/7JdE5Aar7iSaU2vseNXXtCVk0q6YlrpS2njMH5tdCT1bPHUblBZD9K3+UnBE7Ibtwss28mrLl9TtRNVsRwsJ/7cOfiP9gx2zc8wc/zLthRWwNtu1q6V4hhjuoLsBwXh9Yying/Fm7vp/9NZZGsOedrm7XqXLHJaD62A0ZPNPJXteVmR8ySygWJxVnJfoz2ZDbJtp/betKRv52h/flHaMvtHBaGLHwi13zFk8oP15/mJ3NhSF/Ru2sqtFTu+n2jRcwlwo3PMxMyBmcxKRbKMzLbIMjvZEtuf2df+RT38p4/RFACmp4i+7mPp2NqDPuyGE/0wYjHVhl71hpo29XUvUAMczRfgOX4b3HooUJcx6f57UC8Hwu39/P/oQ5LRLSnTkTN8R5jk7HbWQEWxteuA0nlnOzHbM9ku2z7ua0nHSUXweBxUSntXPoh/MQh6epPKlPC6YQlJhyqU3OffFJ5dUnvtOa5eLtU2nJkDM5iku5dicUzoW0Q0g7k98lnkzDfkj9Yec13Z0S34TyGy/lQzr3S5tYaKOKTYepeIIY5mi/Acigh5L+jvF7cGhsOEe8Hw+39/EmlIwSG7nSi5viEnlxY7awAm/eRmCWVtMlZlV+E7Edmz5hsZ9tLW8cnk3So2NBOKh2sfs1Xky7+1lYuREQrqSR4/NBxHs7dU6txpIxB+rmHiLsX2JD1DULMzQXziRL8N2ezvtrnAJvsOGi+AMuRTx7pyWU6RbwfC7f3KZJKchL/Aw3JzLn+q0i3qUzBJH+bGbADxgqwMlHhCU6ZVIZkhdd9RbIfS3vSRH9jtqdz9Q9glETCTirp69C8qNR8VerctSlPsedfpVAMuXbsOmnhSDU++Ffe9FVtDgbP9Kk7nif8QpkKKW7F/ZINXu7rb8d8blIMMRsXRB8y+yOpDDEn46m+yUad/7Dl4lVdA+cxnKhusiePYY7mC7CCYh7Tv7xRf1KJeN8Pbu8hk0oifE0VRDIPGP0vqnwgsH6moPDBSD/WTzoeWJV2Dko+uC7Fhiwv9BRERTlPMF+X5Mds7zSJnX8Kf9Jkj3XSRPV1Ylk0ZkjMSN5unz7N/UHJaOje9lXuQ/pWxJe2MIjf6ZYJjnIPExS/rlz2F6FkOLSbJ0J0vUaz01DMdzGXik3CxQSf02/TTxfI9uV8P7vNJNomK2M4zwuKz7iR0nmq4+pPv1+7OFtPOmdfX84lrak1XeAVYpij+gKsgj50599UxkIH4v1YuL2HTSprYFKeg+f2o/5BZhU+QS4Xnj7ueA0Dg/m+Hd2GI8TPa8QwB/G8P4j3Y+H2RlIJHsaz+5E+6ZZ/cbwS8Qm6G/okfY/xBwfzfTuWDe8Ww2t5kRjmIJ73B/F+LNzeSCrBw4AfQQ+Ik+3AhuMAX+wPbHws3N5IKsHDgB9BD4iT7cCG4wBf7A9sfCzc3kgqwcOAH0EPiJPtwIbjAF/sD2x8LNzeSCrBw4AfQQ+Ik+3AhuMAX+wPbHws3N4+qaQCCAQCgUAgEAhkqQRut/8Huzihp5k5IUYAAAAASUVORK5CYII=;" vertex="1" parent="1">
          <mxGeometry x="-30" y="574.6899999999999" width="560" height="118.61" as="geometry" />
        </mxCell>
        <mxCell id="_rLCLBlPRa0EdaRFuiWH-3" value="" style="shape=image;verticalLabelPosition=bottom;labelBackgroundColor=default;verticalAlign=top;aspect=fixed;imageAspect=0;image=data:image/png,iVBORw0KGgoAAAANSUhEUgAAApAAAAClCAYAAADrnc1nAAAAAXNSR0IArs4c6QAAAARnQU1BAACxjwv8YQUAAAAJcEhZcwAADsMAAA7DAcdvqGQAADbxSURBVHhe7Z3ZjvQ6Ece/N+E1Tr/IeYMz7/DdccvW7DsSIBaBEFyAzlyAEItArBKrkGgQcNhXccEihIDGFbvicqXsOEnH4+7+/6Sa6bi8JFVluzrdM3n2n//85wyJ8pOf/OT8ox/96PzrX//6/Lvf/e6q5Ze//OX5+9///vm3v/1tco1/+ctfIBAIBAKBQFbLs//+979nSCqvvPLK+dvf/vb561//+lXLd77znfPvf//7yfVZgQCBQCAQCARSK0gg71CsQIBAIBAIBAKplWff/e53z5D7EisQIBAIBAKBQGrlmVXYo4Dr59WvfnV4BW6NS/n2Ix/5COb7BcBc6wf4Yn9g47aQvWmdvqoE0iqHXI/wJLd0kOsW9i0lgGuF21N/hB4DUi+Ya/0IfLG/wMZthexNv686gXzf+953ftvb3nb+85//PNFB+pPcJIcfr1/Yt5wArhHZntB6xEm9YEPtR7Du7S+wcVshe9Pvq00g6a+L3/zmN59f+9rXJuWQfsWa5PDjbQj7lhLAj370o6PQ8Yc+9KHzBz/4wfP73//+83vf+97zu9/97vM73vGO81vf+tbzm970pvMb3vCG8+te97qxPfVHyP4RJ8skt6FC2gvWvf0FNm4rZG/6fbUJ5Lve9a7zT3/60/PXvva18xvf+MbzH//4x0RvybNnzxKZq2PpdBnLXP1SWxJdd66/nCxtu2YcqafXlsj6LNYkX+LHmjFYLL1uL8Wqq8tyovuSwnrdRpbL+iy6niWyzlML+5YSwI9//OPnf//73+f//e9/wzv/P/zhD+c//elP53/961/nf/7zn+fT6TT8myySX/3qV8P/K51LINfEiVVuvbbKLD1LSSclN4YWrZfHUnQ7Fquunms1bVgsvW4vxaqry3JS05cltXpZb2mZpWchXU503a3rHsvcOLqOpdNlLHP1S21JdN25/nJi9cMi62m5BhuTSP3SupZoPR/Lcvk6J7k6XK6F7E2/rzaBpLsW9M+yKUBe//rXJzpLLGPosqXHUub6p9e59lqXq5trL2Vp21zdUn2py9WzxJrkS/yoxyqNPXdeW/U5sdrl+uLyuTa59j0J+5YSQPpH/F/+8peHfxn1j3/8Y0ggSej13/72t+H/k9L/Kf3BD34w/JP7j33sY+dPfepTY3vqj5D9L42TNTad07OUdFLmxrDKLjEuiZ5ruu2Wcbbqpcyd16XGsurNlW3pW8rWdY+k5vyXHkuZ659e59prXa5urr0U3U9Op6UnG1v9WLqldaVeS66vXLvaurn2ZG/6fZUJJH389b3vfW/YfH784x8P7zCOx2NSX0rOCFJqDF3qx9Lptrn2Wsevdf1ceylL2pbqWvUtXa6eJXqSX8KPpbLSudXoSnVykmujy+Wx1WZO35uwbzkB/PznP3/+4Q9/ONyJpGNKIP/6178O8o1vfGMQ8vsXvvCF4aPtL37xi0l7gvteGyfabnM2ndOzlHQsXEfXtdrKslLfJZ0WPdfmxtVla8+jpr0Uq54sm+unZhyuo+tabWVZTd8kc/X2WPe05OrUXo+l021z7bWOX+v6ufZSrH6k5ProycalelvqSr0W1ut6uXZWeW0ZCdmbfl9lAknfnaK7GBwc9PoaJqAuy5XP1S3JkrZzdWvKdZ2S6El+CT+WykrnVqMr1clJro0ul8dWmzl9b8K+5QSQPrL+5Cc/OXw8/fe//334PhKV0SNCKXkkf9NjNmmhpySSkk3ZnuC+18aJttucTef0LCUdC9fRda22sqzUd0mnRc+1uXF12drzqGkvxaony+b6qRmH6+i6VltZVtM3yVy9PdY9Lbk6tddj6ay2up5VPle3JFY/UnJ99GZjXdcqX1M3J3N9abHK58aQQvam31eXQNJfVNEXY+mL+HRX4+c///mwCb3mNa/J3qauMUyNoUv9WDqrra5nlde8zklt29Ixv87V0XUtYb0UOckv5UddNne8tDxXLyel+qyrGUOW0WtLZP2nFvYtJ4Ak9P1G+kMa+h4kJY+URNJi/s1vfvP8i1/84vz2t7/9/NnPfvb8rW99a6gj2xP0e2uc1Ly2yiw9S0lHovW6Xy25ulp0Oxarrt5QrXq6bO54aXmunhSrjiyj15aU9Kxjfe5Y63SZpbdkrt4e656WXJ3a67F0VltdzyqveZ2Tufq5Pnqzsa5rlS+ta4luU3otpVSe00khe9Pvq/0OJH3pnoODXkudlhqD1Bi61I+ly7Xl13P60uuc1LYtHVuv5/Q1ojc1kq1+1GVzx0vLc/VyUqrPOmsMLVovj3sU9q1MIEnoe46f+MQnhteUQNLdR0oeP/CBD5w//elPn7/yla8M/ie9bE9wHyRr46TmtVVm6VlKOhKtn+t3Ts9S0mnRc21u3JrjpeW5elKsOrJsro+l+rm+5/SWzNXbY93TkqtTez2WLteWX8/pS69zMlc/10ePNubXc3r5uqauJUvb1fRXqkP2pt9IIIPUGLrUj6XLteXXc3p9rMstqW1Lx1qkTr+e09fIHpNcl9GxFqmX9XLlWqx6OZmrb+nXtOlN2Lc6gST53Oc+N9xppL+CpATyM5/5zPnDH/7w+Utf+tL5lVdeGevJ9gSXk2yJEz6W5ZZN5/QsJR0J6bVInayryyw9S0mnRc+1uXH5WIvUy3q5ci1WPSlWHVk210eNXovUybq6zNJbMlevx+RGi6XLteXXc3p9rMstKfWTKyPp0cb8ek4vX9fUtUTrrf6kzPXHkqtH9qbfV5dA0ncb6H/H0e3p3/zmN0Nw0O1p+oura/gIoOY4p9PlltS0zfVj1Z07zvVliZzkl/JjzbnMtSuVlcotmau7ZFyWJeM/lbBvrQSShD7KJujja/Iv/dEMfZwt6xA6gbxEnPCxLLdsOqdnWaPjcksvy9b0bYneUNeOO9euVFYqZ5nra017lpyOyy29LCv1LWWu3h7rnpZcndrrsXSltqXjnE6XW1LqJ1dG0quNS8db6mrJtc21s8pry0jI3vT7Ku9AvuUtbxkC42c/+9kgtBHR/3mS9bXUGGfpsZS5/pf0nevLKtdS0zbXD5drfek415clelNb6scl5zVXXltWKrdkru6ScVmWjP9Uwr5dkkDqOoR1B3JrnHCZLM/VsV5rWaPjcksvy9b0bYmea7rt3HGpvLasVM6i9XPHWkr6nI7LLb0sK/UtZa7e1nWPZO5c1xxLmet/Sd+5vqxyLaV+Su17tXHpeEtdLZaeynLtcvVrykjI3vT7KhNIejdBf1VFQUFC/1OO3l3I+pawQVnm6pR0UnJ63VYea5F6q67uk4+lcDnX0XXlsdTr8pyeRfdliazPoif5Uj/OjZEbt7buXHv6rSVXNydr21hi1X0qYd/ukUCuiROrTJdzWY2OpUYn+2GRei26niVzOi16rs21yfVTW3euPf3WYpXLtrl2JFIv60vJ6XR7KbqeJbIO19NlUraueyxz56HrlHRScnrdVh5rkXqrru6Tj6Vwea4Ol1vSk411mRSpX1rXEquuLLPKWZcrl2LVISF70++r/Q4k/Uk+fUGfJHdbGtKX6ElOAj/ehrBv90ggSRAny8Saa5CnEax7+wts3FbI3vT7ahPId77zneevfvWrg1CgUBl9YVbWgfQl1iSHH29D2Ld7JZCIk2VizTXI0wjWvf0FNm4rZG/6fbUJJAn9ZdXcX1dB+pHcpgY/Xr+wb0sJJP3rHvpoaU0CSYI4qZfcXIO0F6x7+wts3FbI3vT7qhPI97znPeMXY+kfFWs9pC/JTXL48fqFfbuVUgKJOKmX3FyDtBese/sLbNxWyN70+6oTSMh1CTa12xXyLSV/lxDqD3GyTTDX+hH4Yn+BjdsK2Zt+X00CSUInDblugR9vV/R83SrWGJB6gQ37Efhif4GN2wrZ+9mQtncOnSi4fuBHUAPiZDuwYT/AF/sDG7eF7Y0EEjQDfgQ1IE62Axv2A3yxP7BxW9jeSCBBM+BHUAPiZDuwYT/AF/sDG7eF7d1VAkn/+dwCwXEbwI+gBsTJdmDDfoAv9gc2bgvbu5sEkh+dY4HguA3gR1AD4mQ7sGE/wBf7Axu3he19ZXcgH88PIdFkOTw8Bp3j5PSHoDs8nB+PD+fD8WTrQvH58SHp79mzw5m7PB0PSkfi2no1WAj78Tj44XAeXHM6ng9s28Mx6IKdpe6F517n6rDrXONYNvEV+dHXLPnx8UGVy9hQUD9jPA2cXPvQ96SdjDd5zvNQn8N163YuVtPxb5OaOAFlchvqNIbXEefUdD0s6e4lhiU5X4BlnB4fz8dhvZ3GFeK9LWzvK0sgHbSRiKTx0TnPH57chu0cKHxFOu88p3N9jwkFOZXqDkc+AGKX1E/YtBxH8Zo4inZgGdGPlFw53wg/RruSLk0QRt3gN+ErdUyJ1+gresMgJnTJj1J3cm86nonzilAMpb6n8ZKYEu2Sc1mwiND4Yzcu1h+SdtNzuEXq4gSUsDfUy8dPyR+27j5iWGL7AqzFiivEe1vY3lefQI6bc2mTNnQyaUwTSIeoz8lFkhCAVUQ/+iRR2jROvpkE8oHE1yTfPAxJ3HCY+mi44xzv4JX8mCaX0/EH3Nh2YukpJpA6Zguki9D0XOiOaW0yeq3UxYmDEuzxLu/DxK/3jLmhqhj2d05cgu7i399BiXb2d+bjvPM2ns4Le9P05HT3EMMS0xdgNVZcId7bwva+/juQIYGYJIECU0cbfnDqRC/GiB+pyiQDrCH6MSRGiZ158k2TplEXfDYcP/q20nd+EYgiJ23JjzKBHO5aJ8HgyS4CdA3UrzunREvlrt8DLVgu6c19LK7Ri9BkUVKL4i2yJE6iWUNchKN7x9pQrRgeyoJt6U2QjK3UntN5SZRsntXdQQxLLF+A9VhxhXhvC9v7OhPIkCDIJGG/BNInF9adK7CM6Mc4OdmucfJNJ+6oY5/RhHSJGbkoTSCljyihiLryHcgYT88e7O8rUp0kRhT6DuTJJbhj0nh6PB8LbSV6EZosSnTtxsJ2S1TFiZi/TGkNuDesDdWK4XQ+pHMvjb0Lb6g3HsMSyxdgPVZcId7bwva++juQI8aGMjKz2Uw2HlE//XgTbCH6UUzO4M84+fTEFXeWZvw4SQ4r/TjqTmnSKZlLIAm5gNDrOJy7prnGgXQROk0XMXdN95hATuJkJhbuHWyo/WD5AqzHiivEe1vY3reTQIY7TjE4/F/I+qr0RVYKJq8c7hYJZ6cbT9qPTjywSa0n+jGdnOQn6Q/vN+ErNvhM0pAuDs6PD3EBKfkx1blzM770PP04hJI7106cJy0SXONRfmztYlYnkNSf/Rd9D/FuJcW6ul6ywd19hB1I48TronXEGw1gbqj2R3oq9oW9x3kxvLFy8Sp0zOoN9cZjWGL5AqzHiivEe1vY3leWQNLmHj5qJJk4hZKG+AXZ5C9YL/ZvfObvRAEb9uMwOQdb8oR1iVKSTClfUdFQJ5QFB/gkjORwfv586itKPH33eT/GPqJffX21GFiLQC6mBoxrGPFvaHKLCiW+vt3043Q630yzm6E6TigxFzaW0/3esTZUHcNxXpBNw6Yp49LV93OO1lJn61Gn1uFQx9u/pPPcQwxLTF+AxcT1IIhYHxHvbWF7d5VA5sAEvA2u248X/HcMQyKULjJ1XPAcOgbzfTu2DXuIn/uIYQnieX8Q721heyOBBM24dj/SO9j0/zKuxLqbWQO9Q77E+J2D+b6dnA0vFsNruZMYliCe9wfx3ha2NxJI0Az4EdSAONkObNgP8MX+wMZtYXsjgQTNgB9BDYiT7cCG/QBf7A9s3Ba2NxJI0Az4EdSAONkObNgP8MX+wMZtYXsjgQTNgB9BDYiT7cCG/QBf7A9s3Ba29zN6AYFAIBAIBAKB1MiQQA4/O4dPFlw38COoAXGyHdiwH+CL/YGN28L2RgIJmgE/ghoQJ9uBDfsBvtgf2LgtbG8kkKAZ8COoAXGyHdiwH+CL/YGN28L27iaBlI8C0iA4bgP4EdSAONkObNgP8MX+wMZtYXt3kUDqpFEfIzhuA/gR1IA42Q5s2A/wxf7Axm1he19ZAjl9cPkhPBLOPxg9PF94eNZwqHM4psfJM4jDA9XFQ9mTsvHh61Lu6zmul2TwIz3GL9iSH/Ek7fzC8+cZX1FTLg9ycL4Q+vPJxQc/IJ90x/AYqXFM8l2MoSF0srGxYjypE9D1ycdZnR4fz8cHumY6nymPTjecUxKXnpLOYhrDB3fdvuWoC3NIHk/bkXj72DpxLRsf38XzvTinQZHchkq+u8Sj1WIMTGO4pNsaG9dIzhdgIYX1FvHeFrZ3FwmkhpwhSYKDNhLxHOFH5zx/SMHlgkXojhRk4TVBjn7gpIIhB7t2YzN1fHSvZXXdJ6hn9KMxqQbfCMOavnJIf5ycPj5T+uT8ny4qFBvcnhKvsSsVQ8Ty8YKOkzF3TXZik3+YvhVLNEa8pGPyHNeSrkR67ZRAx3ETnSt9CIlp9IcvG16JuuV5kb/mGuJ8n5/TwMbeULf5xaLkD1t3+XPoHdsXYCml9Rbx3ha2d3cJpE4eiSQ49OY/JiN+o0s3Oek4urP44H46h4ZNcoDaP5D4mhSkD64PHoI3ynSjBWuIfiQfkC8Y9g2T8ZUjTVxichPjwCZNonQCuWK8CRkdLXTJWJE0Pj1pWdpnSVcivXbfLl5jPLZj3B5nbl7Q3duSP0rEOPFjyzESG1ASLe5IrBzuJjE3VBWL9CaB7vDSG2Z/ByXa2d99D7amdoONrTiYxjCT022JjWvE9AXYSLouId7bwvbuKoEkp1kkwaE2f9pc/GEIKKHXmw2XJ5ueCxZy7lD30deJd1+oDwqsNNjAOqQfpY0HH4wHjpyvHDKhG+4whnpJfwZ+gRCycTwNjW8tEqXFw1pwdJk8LulK6GufnA/Z312nfZ65BJL7y8wLtXgvIcZJaU57XRw6zOFwdO9YG6oVi0NZsO1wV0f4LLVnLg7yNs/qNsTGNWL5AmxDr7eI97awvbtJIGkzypEEB20m5mYYHc5JgHToJGHhdvyanOw2Q6oj687daQH1TPwYjKxtm/WVIyYuTh5iApG0MUjGEGMTa8aT0EfLsj8Jtc+dl7Xg6DJ5XNKVSO1LidbUVvm+cgvpzLyg+WS0qyHGSWFOKz8RczFwT1gbqhWLqf9SX6cxceENdWVsXCOWL8B6rPUW8d4WtncXCSRtziWS4FCbf0Q4PNSJDqVNUyQCJFx3ZiOSd6DANvQk95NZT9SCrxyjP04qETL8KEkWjiSGVo4XoH5L30W0FjHGWnDSMv+ROlPSlUgXTYdhq+zi50rthVT1qdmwaMY4KczpmXl772BD7QfLF2AdufUW8d4WtvdtJpAOCpQDO9RoMwbSzEakN0psUuuZTHKyvU7KSr5ypP5wPh+/oOwTvKg7De24q2ThkGNsHE82pQVkrBqwPkZhrAWH3l0fuZDOTbQt6Uok107n7c5JXbJ5Lp7cQir7pNNRfqRFUw9SSYyTwpwOOmGdwjXcH9aGan+kp+Jb2Hv08fDmKX1jxZRsntVtiI1rxPIFWEp5vUW8t4Xt3U0CqUWSbCiynnDK4PChnIPAbbBus395+J3Wp8DydV91flVWdzg/f85ftk3lxmKhGdNJfkr/Qq3oq8P5pRf5dfQBJS7x3ydQchS/IM3vVH0dKqN6MYaSfxm0cLwkrkYxFhBj8YixGiRJhJyez0GVEyWdRbz2KJQwj23p/KROLLi6bWqDWK71BNlRXXY1HCe5OT12647xRzQ21oaqYzGdF2HTpGOu4+r7GKe55Gw96tQ6HOp4+5d0ni2xcY2YvgDLmFlvEe9tYXt3kUDOgQl4G9ynH1WSfBdsu2bM9+3YNuwhFu9vPiCe9wfx3ha2NxJI0Ix79SO98639n403Ab2T33C9mO/bydnwyWNxY2xcI4jn/UG8t4XtjQQSNAN+BDUgTrYDG/YDfLE/sHFb2N5IIEEz4EdQA+JkO7BhP8AX+wMbt4XtjQQSNAN+BDUgTrYDG/YDfLE/sHFb2N5IIEEz4EdQA+JkO7BhP8AX+wMbt4Xt/YxeQCAQCAQCgUAgNTIkkMPPzuGTBdcN/AhqQJxsBzbsB/hif2DjtrC9kUCCZsCPoAbEyXZgw36AL/YHNm4L2xsJJGgG/AhqQJxsBzbsB/hif2DjtrC9u0kg5aOANAiO2wB+BDUgTrYDG/YDfLE/sHFb2N5dJJA6adTHCI7bAH4ENSBOtgMb9gN8sT+wcVvY3t3cgZTkE8jpg8sP4Snl8UHpUvxDzUedrpt5UHq5z/t6juslGfxID7gPtuRHPEk7v/D8uXho/vSh9FxvkIPzhXxK1Mn5kh+QT7pjeIzUOCb5Lvp7cHPykP6N40mdgK4vfZzVyfUdrrnQTjKNxYM7f98wjef0eNqORM2LRMhGgSd6DBfP9+Ng2+AT6afDcdCDPLkNlXx+CZ/G2BHxEijpniqmnpKcL8BS8usm4r0tbO8rSyAdtJGEjZJ4dM6jQ3KiL6ZN3W8wFGzsO/ma64yHmT6J4yFNKo4UuOE1WMboR2NSRf95hmNOAAXSHyen56TJHTmfposK+ZHbJ/5X/iaWjxd0nMRRkmomNtOH6dO5jMkf2UKdS470GigRjv3m4ntuXpTje3ruLYjznc7Z+TCxefvzuUbsDfXy/iz5w9Y9TUw9JbYvwFJK6ybivS1s724SSJ/Be9EkwaE3/0kyEjfKlLippputo9Anb7CTNmAx0Y9uUrnJFs15Gibf9JjqiUTfkSY8wteTOEhJ/DdJIFeMNyGjc+clk07NpgQyOddCfA/Y5zcX33QXtmTXPYhx4s9ZnluySDs/yjvAjU+za8wNVcUivbmgO7wHFwN+7Y129nffg62p3WBjK36WbqhPE1NPiekLsImqBBLxvhts7+u/A+k2l3T/zWzkBAWdC56JMwt9+o/R0mAD65B+jHfGHGoxkP7QiY1M6IY7jKFe0p+BXyCEbBxPQ+Nbi0R28aAx6TzcomNoTfQ1TPrNxfdALoHk/jLxrRbhFsQ4Cecs/BMXaa+Lp+zfBLQ9036xNlQrFoeyYNvhLrrwdWrPXPws31CfIqaeEssXYCWZdRPx3ha293UmkGEDNTfRjOMZ08mFPufu0IB6Jn4Mk0rbdpJcJv6Ifnr2EBOI+QRSjCHGJtaMJ6GPtmV/EmpfOq/VdyCHhGl6zfkFLrcgzsQ3LX6F+bQHMU7iOfP5jden/ETMxcA9YW2oViymfk9jJI2lC2+ojWPqKbF8AbZRcwcS8b4fbO+rvwM5xXY8Yzq50Ke8AwW2oSe5n8zaX5QYiaSNJJnkwR8nlUAZCYUkWTgSf68cL0D9PhTGnUsgidKiJEkXP4dxzfm+cgui6lPzBItfjBNxzsFn4/UZ144EMoINtR8sX4DtyPhCvLeF7d1FAkmbtkQfJ8HxxAkkNqn1TCY5JQE6KTN8ISd96g/n6/ELyj7Bizr/F3vcVbJwyDE2jiebUmyNVQPTj1Hoe5auT/XHN7qdRbr4ufFd3+rUh3NQRYHcgij7JHMof9D56UF2JsZJes50/Yfx+rwunjr5I3ft94e1odof6an4FvYeY2N485S+sWJKNs/qniCmnhLLF2Ap5XUT8d4Wtnc3dyDlHSBNsqGIetoptPnJfiYbodDFwMr3qftjuaO176JMJ7lbFORfqFEyx3YORqZFwNv9cH7pRX4dfeB9xH1QUhW/IM13BqMfqV70d/IvgxaO97I811GMBcRaPCr//Y/EikVKfONamIvvadv0WmK51hNkD336e8NxMiziwznxwk42T+MFf0RjY22oOhbTeRE2TTrmOq6+j3GaS87Wo06tmaGOt39J53mKmHpKTF+A5RTWTcR7W9je3SSQJTABb4P79KNKkq+Kpzl3zPft2DbsIRaveT6sA/G8P4j3trC9kUCCZtyrH+mdb+l7kt1C78if4Lwx37eTs+GTx+ITxdRTgnjeH8R7W9jeSCBBM+BHUAPiZDuwYT/AF/sDG7eF7Y0EEjQDfgQ1IE62Axv2A3yxP7BxW9jeSCBBM+BHUAPiZDuwYT/AF/sDG7eF7Y0EEjQDfgQ1IE62Axv2A3yxP7BxW9jez+gFBAKBQCAQCARSI0MCOfzsHD5ZcN3Aj6AGxMl2YMN+gC/2BzZuC9sbCSRoBvwIakCcbAc27Af4Yn9g47awvZFAgmbAj6AGxMl2YMN+gC/2BzZuC9u7uwSSHgWkQXDcBvAjqAFxsh3YsB/gi/2BjdvC9u4qgeRnSWoQHLcB/AhqQJxsBzbsB/hif2DjtrC9ryyBnD64/MBPKT8dw4PQSdKHmdPjhGSb4WHp/HDKgo4egp7o1APcwTIGPwp78yOe4kPun51feP4868dZf+iH7R/DY6TGMemZpDGGBj8X4mbxeFInoOtLHmc10+7xwdUfdMez7rKks5C29ULx7VuOuhDw8njajsTbx9aRbQMbH9/F8/042Cj4RPrJXTsok9tQyXeXeLRajAHh90BJtzU2rpGcL8A6fHylsYV4bwvbu5sEkhwgf0uS4KCNZMz+nH+c88Th4MwHThwEQ/lY7+Q28JgslHTHpJ5LRORgYBGjH41JlfogHBt+zPuD/OYmsKhOscHtKfEau1IxRCwfL+g4GaMk1Uxspg/TL7WjMeIlHZPnuJZ0JdJrpwQ6nk+ic6UPITGN/vBlwytRV9qFOJLtw2vXenLNS4jzncZ2Pkxsvr7fe8LeULf5xaLkD1t3+XPoHdsXYB1+PRrW+lBCIN7bwva++gQyTUZOgxNP5LSwETI6QZHtSrp0o4ybKVhO9CP5h/zEsN+YvB+z/kjiYEo5gVwx3oSMjhLEZCxN2i5dhOp1JSYJpGsXrzEep8kkY4/DdrHbUHm8w7yUGCd+7DRxFTagJFrcyV053E1ibqgqFmndozu8B+fLwYbiDry/+x5sTe0GG1txkN8cc7otsXGNmL4Aq+C9WscW4r0tbO8uEkhyFiNfM0lwqM2fNpfxUOj0xjZJEkXdkk4mEMMdraQiWIL0Y2JzN2ETuxb8mPPHxIcKv0AI2Tiehsa3Fom5xUO304uQPC7pSuhrn5wP2d9dp32euQSS+0vtNaIW7yXEOAljJ/ORrzkmvh7/JmDdiLeHtaFasTiUBdsOd8OFz1J75uIgb/OsbkNsXCOWL8AKzHXAg3hvC9v7OhPIsBHqzXCSlOR0hAjGki5ulE4e0rtTYBkTPwYbF5N95cecPyY+VCRjiLGJNeNJ6KNl2Z+E2ufOy2qnFyF5XNKVSO1LidbUVvm+cgup71P7boQWTaNdDTFO4tg8znieyk/EXAzcE9aGasVi6r/U12lMXHhDXRkb14jlC7AcGas6thDvbWF7d5NAapEkwaE2/whtjKof4bTJ5iI2oJJuvAN1sjdeUI+e5H4y64la9mPWH0ZCIUkWjiSGVo4XoH5L30W0FjEi1y5dhPxH6kxJVyJdNB2GrfILY24hVX1qNiyaMU7E2MFn43ka14AEMoINtR8sX4DllNZpxHtb2N5dJJASCgxNEhy5BNIol8GSbi4+GajRpRulC6o7+wL4JZlMckoCdFI248e8P1K/0TG1466ShUOOsXE82ZQWkLFqYPoxSrkd3ZU8so7OTbQt6Uok107ju3NSlzycgyoK5BZS2SedjvIjLZp6kEpinKRj03UcxvP0OmGdwjXcH9aGan+kp+Jb2Hv08fDmKd2wmZLNs7oNsXGNWL4A29CxhXhvC9v7yhJI53D5DoSdQpupKqPg8fUO5ze81zmQ9aFs9Cc5N6OLfcQNlzZK88/1wSzTSX5KE/IZP770Ir/O+YOSo/gFab7D5+tQGdWLMZT8y6CF470sz3UUIy704lHRjhK8oTxJkDwlnUW89iiUMMc1NI3/NGFN26Y2iOVaT5Ad5fESOE7iHQde2Ml2abzgj2hsrA1Vx2I6L8KmScdcx9X3sUpzydl61Kl1ONTx9i/pPFti4xoxfQFWIuJLBBHivS1s7+4SSAtMwNvgPv2okuS7YNs1Y75vx7ZhD7F4f/MB8bw/iPe2sL2RQIJm3Ksf6Z1v7f9svAnonfyG68V8307Ohk8eixtj4xpBPO8P4r0tbG8kkKAZ8COoAXGyHdiwH+CL/YGN28L2RgIJmgE/ghoQJ9uBDfsBvtgf2LgtbG8kkKAZ8COoAXGyHdiwH+CL/YGN28L2RgIJmgE/ghoQJ9uBDfsBvtgf2LgtbO9n9AICgUAgEAgEAqmRIYEcfnYOnyy4buBHUAPiZDuwYT/AF/sDG7eF7Y0EEjQDfgQ1IE62Axv2A3yxP7BxW9jeSCBBM+BHUAPiZDuwYT/AF/sDG7eF7d1FApk+BsiLBMFxG8CPoAbEyXZgw36AL/YHNm4L27ubBLIEguM2gB9BDYiT7cCG/QBf7A9s3Ba295UlkNMHlx/CU8rjg9Kl+Iea27rwfEp64Loov7WHnvfE4Edhb37Ek/TPC8+fhwfak0wfSs/1Bjk4H8qnRJ1cfPAD8kl3DI+RGsckn8cYGnx9Ol5uPKkT0PUlj7Oaaff44OoPuuM502XCNL4P7tp8y1Gn54k7nrYjqZgzxI6P6OL5Xjp3UCa3oZINL+G3GB8iJgIl3Z5x0ys5X4BlxLjyIuMI8d4Wtvf13YGkDV9sII/OeXRITvTFtDkfvc5txOy74yFNDo60cYfXsg3Yj9GPxqSK/vMMx5wACqQfT04fk4mT86HzqahOscHtZSzoGCKWjxd0nKhRkmrG0PRh+qV2NEa8pGP1c1zT66MkOY6Z6EKs0+G2OTO9rksh53vu3EEZe0O9vM/SmEixdfvFTa/YvgBLofUql4wh3tvC9u4mgZSiSYJDb/6TZMROBnkzTDckxm4DLkv0o5tUbrJFN5yGyTc9pnppwpAmNcJvM+/00gRLJ5ArxpuQ0VGCmIylSduli1B9XKbX59vF64jHS+K/PGeoPL0LcCnSzSB/7rShjOsG2U2eirrLO7y5CKp7wNxQVSx6+7lN2fnZ2zHa1999DzajdoMdrRjJ2zWn2ytuesX0BVjM4gQS8b4bbO8u70Dq4yQ49B1It6mk+3NuM6QASYMmYrcBl0X6kSbz6Dc3YZOETvhYJw0yoRvuMIZ6SX8GfoEQsnE8TW5xm1s8dDu9CJUWLIm+vsmYZGN3Lfa5rJkzDrVAX4rJZmCdu/NZenfWvQl4iEmzXxfCkbojew9YG6oVi0NZ8OFwN1z4M429XIzk7ZrV7RQ3vWL5AizHJ4BxTZIhhHhvC9u7iwRSQwEiSYKDNvsxiIyNMut4vwnqBMFjtwGXZeLHMKm0TybJpVDGpMaJSBjmE0gxhhibWDOehD52ziWW1D53XlY7vQiVFixJakO6ozq1R76vNXPGQQvjDvPG2gz0uaebCYs4T/KjKM/54FaxbTiNxdS3aRykNr/whnpH663lC7CV9FMsxHtb2N7XmUAWd4PyZmij2qgkAlwGPcn9ZNb+ouRHJgVOhH7040klSTM+SxaOJIZWjhegfkvfU8wlkLl26SLkP1KvIV0YHYY98ovfmjnj2GlhtDcDde4L5ujp0fnbnWdd7dsAG2o/WL4A25HxhXhvC9u7iwSSNm2JPk6C40IJZHrHSrVZsDmBeiaTnOyskzLDv3LSp350fhs/mvQJXtSdhnbcVbJwyDE2jieb0gIyVg1MP0Ypt6O7kkfW0bklbfOkC6Mbw42rLmsYRxUF1swZBy2MepALYG8G+tzpnF2ZaZ7gp2hUJJAO+yM9Fd8iDkb/D2+e0jdWTD6mCrqd4qZXLF+ApdCbaReP4x8fpnMa8d4Wtnc3dyDlHSBNDA7aGGI97RT9sRar7Y+7gp6ca+iQQF6e6SR3i4L8bhpt9OyD4DxaBLxPDueXXuTX2rfcByVO7GuX7AQfRv9TvRhDyb8MWjjey/JcRzEWEL14VLSj5G8oFwtkCSu+KSmO62Qa4zK2ddv0OmO51hNkK3l8KZI4KZw72XL8Qxnnr8P4FQPaGOgPZ6Juj/PsGWtD1bGYzouwadIx13H1fazSXHK2HnVqHQ51vGtKOs9ecdMrpi/ActQfxsk3j4j3trC9u0kgS2AC3gb36UeVJN8M+10X5vt2bBv2EIu3Oh/yIJ73B/HeFrY3EkjQjHv1I73zrf1/jlcDvVvf6Zow37eTs+GTx+KOcdMriOf9Qby3he2NBBI0A34ENSBOtgMb9gN8sT+wcVvY3kggQTPgR1AD4mQ7sGE/wBf7Axu3he2NBBI0A34ENSBOtgMb9gN8sT+wcVvY3kggQTPgR1AD4mQ7sGE/wBf7Axu3he39jF5AIBAIBAKBQCA1MiSQw8/O4ZMF1w38CGpAnGwHNuwH+GJ/YOO2sL2RQIJmwI+gBsTJdmDDfoAv9gc2bgvbGwkkaAb8CGpAnGwHNuwH+GJ/YOO2sL27SSDlo4A0CI7bAH4ENSBOtgMb9gN8sT+wcVvY3l0kkDpp1McIjtsAfgQ1IE62Axv2A3yxP7BxW9jeXSaQmhgc0weXH+RTyoeHrYcHph8ezscHJ8NThGraBZ1rR33c2dO2mjD4kR5wzz4IRo4PuX92fuH58/BAe5LpQ+m53iDqgfqTh+0fw2OkxjHpmaQxFoYQOB0vN57UCej65OOs5PWS6EddPT64+kOfx3OmywTdH13HQziZURfiXR5P25F4G9g6sl+gwaMMS+cOyuQ2VLLhJfwW40PERKCk2zNueiXnC7CGk9vXRXyFUEK8t4XtfWUJpIM2fLGBPDrn+cOT28xjQNHxUSaC2XZnV48TTcdJtQMXY/SjMaloEsq8YDjmBFAgfXNy+phMaP97H3N7SsrGrlQsEMvHCzpO1ChJdQnflOnD9Gms3KJCY8RLOlY/xzW9PkqS45iJzpU+hMQ02tyXDa9EXT0PaJ7E65he16WQ8z137qCMvaFe3mdpTKTYuv3ipldsX4DlUPLo9mq5yAcQ721he3eTQErRJMGhN39ORuYy/Vw7h0wEwH5EP7pJ5SZbtDgl7dYx1UsThjSpiYnPnP/LCeSK8SZkdJRYJmPR8PkEMl2ESuOlTBLI5DricZqQMfY4fO12Gyqf3j29BOlmkD93suO4bpDd5KlMPlW4vUW8hLmhqlj09nOx6Pzs7Rjt6+++B5tRu8GOVozk7ZrT7RU3vWL6AizHxaFaSkcQ721he3d5B1IfJ8GhNn/aVOgw3k3JkGk3oDabO1rbmiL9mPjLTdgkoRO+0kmDTOiGO4yh3pz//QIhZON4GhrfWiSsxcMvZHwu6XnrRai0YEn09U3OhWzsrsVeyHIJZDxHu9k0Ob4Ek83AOnfns/TuLN2diEmzn9/hSN2RvQesDdWKxaEs+HC4iy78mcZeLkbyds3qdoqbXrF8AZYzfDrz4NaCcd2MsYx4bwvb+zoTyCGA0o1SJhDJBh0LzXYT7nCzacXEj8E3OmlLkkFKHoQyJjXk25gwJG0MkjHE2MSa8SS0sOUSS2pfOi/Xerg7xv3qRai0YElSG9Id1ak98n3lFkvfp/bPCC2MRrutWJuBPvdkjo8izpP8KMrLPrg9bBtOYzH1bRoHqc0vvKHuEDe9YvkCLMe/SXYxFeL1dDyO8YV4bwvb+zoTSGs3UBs/UUoaSmQ3TLAJPcm9nfVEpeSHN/4gySQPvgnfVR1davhfko+FleMFqN/S9xTnE8h04UkXIf+Reg2TmDXskV/8coul6lOz08Jobwbq3Gf8LTk9On+786yrfRtgQ+0HyxdgOfqOIr1x50PEe1vY3reTQA6brXOg2CXySYOAyp1zXX4QSO8IgcsxmeSUBOikzPCT9GOa1LhJPt4t9gle1J2GdtxVNhY2jieb0gIyVg1MP0ah+HJ9hkDVyc2wKHKfdG5J2zzJ9dG5uXHVZQ3np4oCucVS9kmno3xFC6Me5ALYm4E+dzrndL5Hgp+iUZFAOuyP9FR8izgY/T+8eUrfWDGrN9Qd4qZXLF+AFSTzmNb38h1IxPt+sL27SCAJeQdIE4ODNoZYb+IU+V1G+thqjJRCuyEo6Uv2sZ2KOXAhppPcJVPy6wLkC+Uj/7GF98tLL/LrmBz5jzK5D0qc4hek2f/x406qF2Mh+ZdBC8d7WZ7rKMYCYi0e6ju3Ogmi5M/r6pIe6+NcSorHtnQOUicCXLdNrzOWaz1BttKXdgmSOCmcuzvJZN4exq8YkH3TOb3HefaMtaHqWEznRdg06ZjruPo+xmkuOVuPOrWehjreNSWdZ6+46RXTF2AVw9eFQkzJGEK8t4Xt3U0CWQIT8Da4Tz+qJPlm2O+6MN+3Y9uwh1i81fmQB/G8P4j3trC9kUCCZtyrH+mdb+3/c7wa6N36TteE+b6dnA2fPBZ3jJteQTzvD+K9LWxvJJCgGfAjqAFxsh3YsB/gi/2BjdvC9kYCCZoBP4IaECfbgQ37Ab7YH9i4LWxvJJCgGfAjqAFxsh3YsB/gi/2BjdvC9kYCCZoBP4IaECfbgQ37Ab7YH9i4LWzvZ/QCAoFAIBAIBAKpkSGBHH52Dp8suG7gR1AD4mQ7sGE/wBf7Axu3he2NBBI0A34ENSBOtgMb9gN8sT+wcVvY3kggQTPgR1AD4mQ7sGE/wBf7Axu3he3dRQKZPgbIiwTBcRvAj6AGxMl2YMN+gC/2BzZuC9u7yzuQSCBvE/gR1IA42Q5s2A/wxf7Axm1he19ZAjl9cPlBPqX85PT8gPTDw/mRHrzOjxHSuqE4PFD9cHSvmFD2wvO8jsrGB7NL8c+89A9pDw9UPx3DA9qdZNulD1+/VQY/0gPuw3Wzb6RNXnj+PNrLeCg91xtk9GMg5/9xTPJPjKEhdKR/to4ndQK6vuRxVjPtHh9c/UEnY8+zVmcxjcWDs4lvOerC/JLH03Yk3na2juweqHi0F8/30jmAMrkNlWw4Z/8aop+FbwMlXY3/b42cL8AS4ro9ilgHEO9tYXt3l0CSIzRJcNCGLwLn0TnPH57cpuwcKHxFOu88eqA5JQxeeSKnUl06GF5zH+q4pHMc3WsZG0fuk4Ld6eR5so6CzRdTnSO9cN3eUQJJkB3VBUe7eIZj+QYgIG1+cvq4iJT8r2ysYohYPl7QiZiixG3K9GH6pXY0RrykY/Ic17W6EqldaJGO55rGpY9XOpyL4fy8IKb20Mj5njsHUMbeUOdtv5TUtym27vLn0Du2L8Ay4lozoNZwxHtb2N5Xn0C6HcZv+kZSMlJKWEj3QOL7pM3vwW1as7pw7IdON0xXMgR7uqnqIFIT4g6IfnSTytkjmozu7FrHVC9NGNLkRNiw5H9H4iMdQ2vGm5DRufMq3zFL26VxchldidQuvl28/ng8jXHCHic/Lzx0Z7fkq3QzyJ8DzWH/zt8JXb/sUt3lHd5cBNU9YG6oKha9/dybLOcvb8doX3/3PdiM2g12tHydt2tON+f/W8P0BdhEfBPrQby3he19/Xcg3aZChzqgJKbOBcng1PB7cP6j73usX9I5/EfVaSB6wsYqznUaXPbme8tIPyY+ITuPBw5hN500yIRuuMMY6pX8T/gFQsjG8TQ0vrVIzC0eup2OE3m8VldC22VyruQbZwP7GnIJJPen50XA9VlKqiebgXUOzmfpXVY3Tx9i8uvXhXCk7qzeA9aGasXiUBZ8MdwNF35JYyjn67xds7oZ/98ali/ANnRsId7bwvbuKoGkTcciCQ7a7I0Nr5RAmDralKit+E0bHtUb65d0jvydlhh8rJsGlx2gt8zEj8GQ2n6Jv9gHgZicOBEJQ8n/RDKGGJtYM56EPj7OJZbUPndeVjsdJ/J4ra5Eant6szS1Y76v3CLr+5zOiwDNp0LsW5uBPgfy2eiXUcR45EdRnvPBrWLbcBqLqY9Sf6Y2v/CGekdrn+ULsAG1fhOI97awva8zgbR2A7XxJxi6MWlYq3PIu1MpIvjC+U6Dyw7QW0ZPcj+ZtR0oiZFJgROhH21+UslOyf+OZOFIYmjleAHqt/R9w1wCmWuXxon/SJ1ZqyuRLqgOw47ZhTETw/l5EXBjbE0grfPMcaJPD9x4dbVvA2yo/WD5AmzAmPuI97awvW8ngRwSARkcpyFYfFW3obq+s39Eo4JxbQIZdWnw0XmM443YAXrLTCb54IdozwHDv3LSpzZ3Nhw/miz5P+0jGWPjeLIpLSBj1cD0Y5RyO7oreWQdnZtou1ZXIrELnZs7X2WO4fxUUSC3yMo+6XSUj2lB1YMI7M3Amj+uzLzM4CfWkT3cedZZ5DawbGh/pKfiW/hz9OPw5il9Y8XkY6Ogm/H/rWH5AqwnjVkP4r0tbO8rSyBpYxB3iiZOoQ0wfkE2ucOjvlQ/bC60sai+KOh8+1edX5XVHc7Pn1sfofnNdwi+4ZgDksaJwUUbqm5zD0wnOSX2YtIV/XE4v/Qiv44287bkPmz/R3tTvRhDyb8MWjjey/JcRxHXwujFo6IdJXFDuZH0rNVZ6DgkoWR6bEvnLnViPuVi2OpT6gmysTzWJHFSOAey5Tinnb8O41cMaK7TH85EXWm8W8TaUHUspvMibJp0zHVcfR+rNJecrUedWodDHe+aks4z5/9bw/QFWAnN7en6hnhvC9u7qwQyBybgbXCfflRJ8t0zbw/M9+3YNuwhFu9vPiCe9wfx3ha2NxJI0Ix79SO98y19T/KuoHf5M7bAfN9OzoZPHosV/r81EM/7g3hvC9sbCSRoBvwIakCcbAc27Af4Yn9g47awvZFAgmbAj6AGxMl2YMN+gC/2BzZuC9sbCSRoBvwIakCcbAc27Af4Yn9g47awvZFAgmbAj6AGxMl2YMN+gC/2BzZuC9v7Gb2AQCAQCAQCgUBqZEggh58AAAAAAABUcT7/H1T1TkNc18LeAAAAAElFTkSuQmCC;" vertex="1" parent="1">
          <mxGeometry x="564.27" y="566.5" width="536.73" height="135" as="geometry" />
        </mxCell>
        <mxCell id="_rLCLBlPRa0EdaRFuiWH-4" value="" style="shape=image;verticalLabelPosition=bottom;labelBackgroundColor=default;verticalAlign=top;aspect=fixed;imageAspect=0;image=data:image/png,iVBORw0KGgoAAAANSUhEUgAAApQAAABSCAYAAADq4US8AAAAAXNSR0IArs4c6QAAAARnQU1BAACxjwv8YQUAAAAJcEhZcwAADsMAAA7DAcdvqGQAABwQSURBVHhe7V1bsuu0Ej0zudM4mQgzYM/h/PHLKzyLVzEN9gwo+AOKL1IUfPGGMeSqbbfVandLchw7irNW1QJL3Xq4uyV1nOzjF99///0ZfFz+999/IAiCIAiCi/jCqmydwP3jjTfeGK4AwAfiZDlgw3YAX6wP2HhbkL05N7vbhNKqB++HvOgtGQgyESfLCRu2Q/hifcLG25Lszde7SSi//PLL88cff3z+999/JzKwPXqLHn4EJREny4kDth0intcnbLwtyd58vYuE8s8//zx/8MEH57feeiupB9ultejhR1ATcbKc3gELbk/E8/qEjbcl2Zuvd5FQfvbZZ+eff/75/M0335zfe++9899//53ILb548SJhSceS6TpmST/Xlqh1S/15nNv2knGknK4tSn2mtejn+LFmDKYl1+0lLV1d51H3Jcly3UbWS32m1rModfbEa8WJVW9dW3WWnJmTSXpjaGq5LEvqdkxLV9uwpg3Tkuv2kpaurvNY05fFWrnUm1tnyZkk86h1l8YzszSO1rFkuo5Z0s+1JWrdUn8erX6YUk/zHmxMlPK5uha1nMuyXl579HS4XpPszde7SCjffffd8x9//NEFzDvvvJPILFrG0XVzy5Kl/unaa69lnq7XXnJuW083py9lnp5Fa9HP8aMeKzd2aV5L5R6tdl5fXF9q47XfK68RJ5fYtCRn5mSSpTGsumuMS9Q21G2XjLNULlma17XGsvRKdUv6llwaz8Sa+c8tS5b6p2uvvZZ5ul57Sd2PJ9NsycZWP5Zsrq6Ua3p9ee1qdb32ZG++vvuE8pNPPjn/8MMP599///38008/dZ9Ajsdjoi/pGUWyxvC5fiyZbuu11zK+1vpee8k5bXO6lr4l8/Qs6kV/DT/m6nJzq5HldDx6bXS9LFttSvI981pxou1WsmlJzszJmKyjda22si7Xd06mqW1YGlfXXTqPmvaSlp6sK/VTMw7raF2rrayr6ZtY0ltj39P0dGrvx5Lptl57LeNrre+1l7T6kfT6aMnGOb0lulKuyXKt57Wz6mvriGRvvr77hPKjjz46f/fdd2Ow0PU9LEhd59WXdHOc07akW1OvdXLUi/4afszV5eZWI8vpePTa6HpZttqU5HvmteJE261k05KcmZMxWUfrWm1lXa7vnExT27A0rq67dB417SUtPVlX6qdmHNbRulZbWVfTN7Gkt8a+p+np1N6PJbPaaj2rvqSbo9WPpNdHazbWulb9JboeS31pWvWlMSTJ3nx91wkl/cUW/dD2888/P//111/nX3/9tfs08uabb7qPtWsMVWP4XD+WzGqr9az6mmuPtW1zZb72dLSuRZZLykV/LT/qulJ5br2n5zGnz7KaMWQdXVuU+nviNeOk5tqqs+TMnIyo5bpfTU9XU7djWrr6gLX0dF2pPLfe05O0dGQdXVvMyVnGcq+sZbrOklss6a2x72l6OrX3Y8mstlrPqq+59ljS9/pozcZa16qfq2tRt8ldS+bqPZkk2Zuvd/EbyrfffnsMFrqWMs0aA9UYPtePJfPa8nVJnrv2WNs2V7auS/Ia6kOOuNSPuq5Unlvv6XnM6bPMGkNTy2V577xmnNRcW3WWnJmTEbW81G9JzszJNLUNS+PWlOfWe3qSlo6sK/UxV17quyS3WNJbY9/T9HRq78eSeW35uiTPXXss6Xt9tGhjvi7J5XWNrsW57Wr6y+mQvfkaCaXBGsPn+rFkXlu+Lsl1WddbrG1LZU0p09cleQ3XWPS6jsqaUi71vHpNS89jSd+SX9Jmz7x2nHBZ1ls2LcmZORmR5JpSJnV1nSVn5mSa2oalcbmsKeVSz6vXtPQkLR1ZV+qjRq4pZVJX11lyiyW9FpMdTUvmteXrklyXdb3FXD9eHbFFG/N1SS6va3QtarnVn2SpP6anR/bm67tOKOm3Ee+//373OPu3337rgoUeZ9NfdN3DVwY1ZU+m6y3WtPX6sXRLZa8vi3LRX8uPNXMptcvV5eotlnTnjMucM/4eeO044bKst2xakjMvkXG9JZd1l/RtUR+wl45bapery9UzS31d0p7pybjeksu6XN+SJb019j1NT6f2fixZrm2u7Ml0vcVcP14dsVUb58pLdDW9tl47q762jkj25uu7f0L54YcfdoHyyy+/dKQf3dK/MyX1NWuMNbcsWep/Tt9eX1a9Zk1brx+u1/Jc2evLoj7k5vpxzrxK9bV1uXqLJd054zLnjL8HXjtOuE7WezrWteYlMq635LLukr4tahvqtqVyrr62LlfP1PJSWTMn92Rcb8llXa5vyZLe0ngmluZ6SVmy1P+cvr2+rHrNXD+59q3aOFdeoqtpyanOa+fp19QRyd58ffcJJX3aoL/aoiAhfvvtt92nD6lvkQ3MLOnkZJKeXLeVZU0pt3R1n1yW5HrW0bqyLOW63pMzdV8WpT5TL/q5fiyN4Y1bq1tqT//X9HQ9XtrGoqW7B14jTqw6Xc91NTJmjUz2w5RyTa1nsSTT1DYstfH6qdUttaf/a1r1sq3XjijlUl/Sk+n2klrPotRhPV0nuTSemaV5aJ2cTNKT67ayrCnllq7uk8uSXO/pcL3Flmys6ySlfK6uRUtX1ln1LPPqJS0dItmbr3fxG0r6JwB+/PHHjt5jbLAt6kVPhB9BTcTJclo2BG9DxPP6hI23Jdmbr3eRUH766afnr7/+uiMFDtXRD3ClDtgWrUUPP4KaiJPltGwI3oaI5/UJG29Lsjdf7yKhJNJfbpX+egtsh94hBz+CkoiT5fRsCG5PxPP6hI23Jdmbr3eTUH7xxRfjD23/+eefiRxsi96ihx9BScTJcno2BLcn4nl9wsbbkuzN17tJKMH7Ig45sIaIk+WEDdshfLE+YeNtSfbm67tMKIl0E+B9E34Ea4g4WU7YsB3CF+sTNt6WZG/iiy6VvyPQpIH7B/wI1ABxshywYTuAL9YHbLwtpL2RUAI3AfwI1ABxshywYTuAL9YHbLwtpL2RUAI3AfwI1ABxshywYTuAL9YHbLwtpL2bTSjpX2a3gGDZB+BHoAaIk+WADdsBfLE+YONtIe3dZELJr/qxgGDZB+BHoAaIk+WADdsBfLE+YONtIe19308oT8/np8PwrsnD0/n5+HQ+HE+2rKs+nY9UdziGK8ZQ9/KVL6O642FMdCNDv0Gr03lxOHdDn47nA8vddoMuqT8/n49PpNP39Sjo/Pj8NNqE/Sbt9fLVq2hLYTPC8xPXDxx9PMCLjXFMsnfQGdo/kfGl75aOJ2UCdH9jjBIK7Z5DbHRzSuKyx6UyC9M4PQSb9C1HWWektDxtR+xtZ8vI7gOCLxJbGOD1npsDkId3wJINS/avQfSz8O2AnKzG/3uD5wtgHnLnJuJ9W0h733FCeQoHcXCa8M/zGDBBFtqPByI5knSp0F3TYdmJ0nJOFnAM1zIejtxn+O9TkB3E4cYyCrC+mnSOdBG6TfshxL4eA6MfycbKGNFmPbqy/LAwQPrjFOQxucjFhrI/JZFysID54w0yEW+UyE1BcZn6OdeOxoi3dAxzivO5VJZDahdKtuNc05jtY5mKpfj21wxhag8NuVl5cwDysA/Ysu3nIreH2bLrz6F12L4ALoUVV4j3bSHtfb8JpZGIjMglKSR7IvZupQPvKRxURdlQpm7Tg43QH27pQaoDJx64FnLBuUfEIAyLLNx7NCc9FbbKpJcmEGmyIuybi42AxH+ThPKC8SZwZGFe+Sdqabs0Jq4jyyG1S98u3n8sT+OfYI/jr5ke9OQ356v0cPDnQOu7fzIQSPcvu1RPgbsPG4PoEWAesCoWe/uFD13BX70do337p/ODzahdZ0fL175dPVnJ/3uD6QvgYlhxhXjfFtLed5tQxicjU5iyEBidI4f/dw5/7pOJUT8nC+i/2k6Dr8dwmIrkZBpQ9oHLyAXnHiGDMPEX+WAsBAib6iRCJnjdE8hBLxcbhH7DEFw4ngaNb20apc1Et9MxIcuXynLQdpnMlXwTbGDfg5dQcn96zQwIfeaS7MnhYM1h8hQ2rOGnmAyTH/nbCv3k9RFgHbBWLHZ1gy+6p+XCL2kMeb727erKCv7fGyxfAJfDiivE+7aQ9n7YhLJzbDjkSG/Uz8kC/KctMeBYNg0oOygZueDcI5JFn0niEl+yfwbEZCVQJBC52CAkY4ixCZeMJ0FfN3uJJrX35mW10zEhy5fKckhtTx+spnb0+/I23b7P6ZoZQGstsy6sw0HPgXw2+mWkGI/8KOo9H+wVtg2nsZj6KPVnavMrH7AZ/+8Nli+Ay2HFFeJ9W0h7321C2R0S5gkVYMjGROFSWYB8QpVCBNyQoEwDyg5KRi449wi96PvFrW1ESY1MEgKFfPTHSSU/udgISDaSJKG8cLwB1G/u94peQum1S2Oi/wqecaksh3SDDTDs6Mept+mqPjXCGEsTSmueHk70zUMYr057H8AB2w4sXwCXw4orxPu2kPa+34SyO/xlQJy6AOmDJhyiob37Rznq8Lk0oYyyNOBoHuN4I+ygZOSCc4+YLPrOR9HWHdTTQ4LcBFJ/BPuOX2XmYiPtIxlj4XiyKflzVB0w/dol346eWh5ZRnMTbS+V5ZDYheYW5qvM0c1PVQ3wNl3ZJ01H+Zg2WD2IgH04WGsr1Jm3OfiJZWSPMM86i+wDlg3trwBVfAt/jn7sPkylH7QYuT3MlRX8vzdYvgAuhxVXiPdtIe19xwklgQ69+KPa5CmP+iF+d6DQYdLpBg5OpUDr2//v/D9Xdji/emV9rdYfuF3AdWUOQhonBhQdoroNI7Yd+CCH3XTR04cAsQizvjqcX3+Nr6M9eztzH3ZsRF+QHiUbfR/JP1E0c7yv5FxHinth6M2koh0ldV29EReXyizoGCVScj22pblLmVhrXnxbfUo5gWwsyxpJnGTmQLYc13vw12H8SQLtA/SHOFGWG2+PsA5YHYvpuhgOUSqzTtDvY5XWUrD1KItrKJIP6pysR8n/e4PpC2A2cucm4n1bSHs3m1B6wILcBx7TjyppfniU7YH1vhy2DVuIxcdbD4jn9YF43xbS3kgogZvgUf1In4xzv7N8KNBTgIItsN6Xw7PhzWOxwv97A+J5fSDet4W0NxJK4CaAH4EaIE6WAzZsB/DF+oCNt4W0NxJK4CaAH4EaIE6WAzZsB/DF+oCNt4W0NxJK4CaAH4EaIE6WAzZsB/DF+oCNt4W0NxJK4CaAH4EaIE6WAzZsB/DF+oCNt4W09wsqgCAIgiAIguBcMvCEErgJ4EegBoiT5YAN2wF8sT5g420h7Y2EErgJ4EegBoiT5YAN2wF8sT5g420h7Y2EErgJ4EegBoiT5YAN2wF8sT5g420h7d1kQilfXaSBYNkH4EegBoiT5YAN2wF8sT5g420h7d1cQqmTSF1GsOwD8CNQA8TJcsCG7QC+WB+w8baQ9r7jhHL6IvaDeLF7X0fvzYx640vZT6GOXwZ/CDrD25DiC+MlxcvdnXbAfHR+HP0UfDcYWfrg5atXwwv6idOX7LNeR+0P7avj8NqrXGycjtcbT8oE6P7k67d0zOlXcz0/Bf2uz+PZ6TLBNIYP4d76lqNsWAiyPG1H7G1gy8h+A1Z8pRiv99zcgTy8A5ZseA2/xfgQMTEgJ1szblqF5wtgJjL7LeJ9W0h7N5dQapBzJJJgoQRAHCjPwZlcpIN49F2iRy9opwSiF57IyRSQdD22p2A90oXox28HzMfoR2ORRT/06MqcEAocD9HHpyCPyUXwldpkKDa4vR8bPeaPN8hEbFACOAXFUBozNJa3ydAY8ZaO1e+hTe+PkuY4ZiIb4pyK+dhP751wTGJ/el/Xglzv3tyBPOwD9vo+S2MihS1bL25ahe0LYC5y+y3ifVtIezedUOpkkpAEi04GRHLiJg0VCQwfVgmq2gG1iH4MiywsvmjZU7cYp2XSSxOINMkRPjN8JeHGRocLxpvAkdHGpwIml1Cmm1JuvBTp/fXt4gixnCZoDHscvne7DdVPn65eA+nh4M+d7Ng/GZg+sehtEGXdh41B9AgwD1gVi739QiwGP/d2jPbtn84PNqN2nR2tGPHt6snWiptWYfoCWIh0z0K8bwtp72YTSnKihSRYVDJAhwwX+6AQHARmEhiCJnXy9FCtawfUQvoxsS3ZVBpa+FgnETLB655ADnqmrwS82OhwwXgaNL4VF9ZmQrpxLum89aaU28Ak9P1N5kI2Dvdix66XUMY52s2myfI1MDkcrLkHn6VPb8OHgqeYRPf7wlBST2wfAdYBa8ViVzf4sHvqI/yZxp4XI75dXdlKcdMqLF8Ay6D3W8T7tpD2bjKhpIPLQxIsdPg7B2eSDIgkwUw26JBKgg0J5dqY+HEwrk7iErsre8ckJ1AkEKavBLzYIFwyngR9TS37k6D2uXmF1iHu4tNZvSnlNjCJ1Ib0xHVqD78vb/Ps+9T+GUEbpdFuKazDQc+dfDb6ZaSYJ/lR1Od9sD/YNpzGYurbNA5Sm1/5gF0hblqF5Qvgclj7LeJ9W0h7N5dQ0qafQxIsKhmQcJMGlSQQpgmIEUBV7YBa6EXf+0vbnZIhmSQEJot+8PFJJU2GryTc2Lh0vAHUb+53juWEMt2I0k2p/wq+BulGGWDYw98Mvc1T9amx0kZpHw5q7gV/S5yeg7/DPOu09wEcsO3A8gVwGbz9FvG+LaS9Hy+hpIM5jJH/4xorgGraAbWYLPrOnipJM/wr/ZomOcFn41eZfcIXZaeuHXflxsbC8WRT2lBG1QHTr10oSQx9jjEVxg9xxxr06fvIfdLckrY+kvujuYVx1W1181NVA7zNU/ZJ01G+oo1SD3IF2IeDtV5DnWmewU/RqEgoA+yvAFV8izgY/d99mEo/aDEuPmBXiJtWYfkCmIv8fot43xbS3k0mlJoScfJ0UAg94aT4FRg5NeqNAaV+pC8PIv31WeL7TDtgHqaLnhJ2sQjp4Gc/DE6gTaH3y+H8+mt8HX3U+477oESKfRk2n8H3Xmwk/0TRzPG+knMdKe6FYW0mhZiiZLCX1SVBOn6JlCSPbWkOUiY2WS/2rT6lnEC20rd2DSRxkpl7mGS0Y/DXYfxJAtmX/hAnytaYZ8uwDlgdi+m6GA5RKrNO0O9jnNZSsPUoi2sokg/qnKzHWnHTKkxfAPNQ2G8R79tC2ru5hLIELMh94DH9qJLm3WC9+8J6Xw7bhi3E4l7Xgw/E8/pAvG8LaW8klMBN8Kh+pE/Gtf+e5N2APs2vdE9Y78vh2fDmsbhi3LQKxPP6QLxvC2lvJJTATQA/AjVAnCwHbNgO4Iv1ARtvC2lvJJTATQA/AjVAnCwHbNgO4Iv1ARtvC2lvJJTATQA/AjVAnCwHbNgO4Iv1ARtvC2lvJJTATQA/AjVAnCwHbNgO4Iv1ARtvC2nvF1QAQRAEQRAEwblk4AklcBPAj0ANECfLARu2A/hifcDG20LaGwklcBPAj0ANECfLARu2A/hifcDG20LaGwklcBPAj0ANECfLARu2A/hifcDG20Lau8mEUr66SAPBsg/Aj0ANECfLARu2A/hifcDG20Lau7mEUieRuoxg2QfgR6AGiJPlgA3bAXyxPmDjbSHt3eQTSgk3oaSXvQ9PMYmTF66fns9P/ML3w9P5Wb7xSMuOwyuRkpfOpy91jy+Tl0x1gHp0fhQ+5FdSSTu/fPXK9Qe9ZJ/1Otb6eByT3qkaX+bfxU/G/7PHkzIBuj/5+i0dV/rVXM9PQb/r83h2ukwwjdNDuLe+5SgbFossT9sRexvYMrLfgBVfKcbrPTd3IA/vgCUbXsNvMT5ETAzIydaMm1bh+QKYi1O3N3axpfZbxPu2kPa+34SyAx3ix+Fagl7CTklC77wTOZKCri+FNmkAPqtAo6B44gRkQFfXdRDHpIB+sP3wahj9aCyyaOselj8Ix0O0/ynIY3KR93HiN0oiVVIyf7xBJuKNEsApKC7TjYbG0uMwaIx4S8fq99Cm90dJcxwzjdk+lqlYim9574TjuJ4I0/u6FuR69+YO5GEfsNf3WRoTKWzZenHTKmxfAHNBe0Fyvou9GPG+LaS9m0wo+wy/p0YaLPHwS5BLUgxZilMXDCdyvnlgOWMCsxD9SHYmezPY/gzfH2mSI/xS8HGacOmE8oLxJvDjUj9RyyWU6aZUH3fp/fXt4gixnCZoDHscvne7DdVPn65eA9Z6t+ZOdhz3DbKbnIp6etx92BhEjwDzgFWx2NsvxGLwc2/HaN/+6fxgM2rX2dGKEd+unmytuGkVpi+ARahKKBHvq0Hae5dPKMfkUYKCLjjSlEmIBGPOgQvMg/Rj4hO1OeT8IRO87gnkoFfycb9hCC4cT4PGtzYNazMh3TiXdN56U8ptYBL6/iZzIRuHe7E3Ni+hjHO0m02T5WtgcjhYc588vQ0fCp5iEk1+5KcZ+ontI8A6YK1Y7OoGH3ZP2YU/09jzYsS3qytbKW5aheUL4ELQXk17UogtGcmI920h7Y2EUiGRD21S2GMC85D4MZPE5fwRk5xAkUCUfJyMIcYmXDKeBH1N7SWa1D43r9A6xFbcHPWmlNvAJFIb0hPXqT38vrzNs+9T+2cEbZQrrAvrcNBzJ5+Nfhkp5kl+FPV5H+wPtg2nsZj6No2D1OZXPmAfaD+1fAEsQ80TSsT7epD23ldCSYHVn3qTRHBMFAxZBB2+8lAKnDjfDi5gHvSi7xe3tm3eH+MTw5NKmrI+5rGGQpJQXjjeAOo39ztHa1PTkBtRuin1X8HXIN0oAwx7+Juht3mqPjXCGGtslPbhoOZe8LfE6Tn4O8yzTnsfwAHbDixfAMsh4wvxvi2kvZtLKOkQl9DlNFiUo8eDJRy+oZ33Rznp4dj/tVgXbOppFWFyODvBBczDZNF3PlJJWsEfqR+DX8avMjM+Dkh8KsdYOJ5sShvKqDpg+rULJYmhzzFO02SHnnYeuU+aW9LWRxqzYW5hXHVb3fxU1QBv85R90nSUr2ij1INcAfbhoOdOcw51pnkGP0WjIqEMsL8CVPEt4mD0f/dhKv2gxbj4gF0hblqF5QtgLvS+2SdpHLqI920h7d3kE0r5hEhjnDw5Rugxx6BRP8RPDxs6ZOOPcbunSnTQcD+DwykIWadXSb9ae6B98OqYLnr6ECAWYcEfr7/G19EPvX+4D8PHVDv6kPQo2ej7SP6JopnjfSXnOtLYUKzNJBunYWPiOYgNMwcdo0RKkse2at3ITdaLb6tPKSeQrfStXQNJnGTmHiYZ7Rj8dRh/kkD2pT/EibI15tkyrANWx2K6LoZDlMqsE/T7GKe1FGw9yuIaiuSDOifrsVbctArTF8B8ZPZNxPu2kPZuMqHMAQtyH3hMP6qkeTdY776w3pfDtmELsbjX9eAD8bw+EO/bQtobCSVwEzyqH+mTce2/J3k3oE/zK90T1vtyeDa8eSyuGDetAvG8PhDv20LaGwklcBPAj0ANECfLARu2A/hifcDG20LaGwklcBPAj0ANECfLARu2A/hifcDG20LaGwklcBPAj0ANECfLARu2A/hifcDG20LaGwklcBPAj0ANECfLARu2A/hifcDG20La+wUVQBAEQRAEQXAuGXf3hBIAAAAAAABoCefz/wGpUtvsyirExQAAAABJRU5ErkJggg==;" vertex="1" parent="1">
          <mxGeometry x="-40" y="740" width="570" height="70.82" as="geometry" />
        </mxCell>
        <mxCell id="_rLCLBlPRa0EdaRFuiWH-5" value="" style="shape=image;verticalLabelPosition=bottom;labelBackgroundColor=default;verticalAlign=top;aspect=fixed;imageAspect=0;image=data:image/png,iVBORw0KGgoAAAANSUhEUgAAAoUAAAC2CAYAAACvWPf+AAAAAXNSR0IArs4c6QAAAARnQU1BAACxjwv8YQUAAAAJcEhZcwAADsMAAA7DAcdvqGQAADmSSURBVHhe7Z1ZsuO4sYZrJ95GayO9g9Ye6s2vnuQxPG+jzw5u2G+2w09WOOwnz/YadJEAkkgkEwAHkYLI/+vILpGYyPwTQIrnVPHT73//+wfsvPa///0PBoPBYDAY7PHJOtm7gffnm9/8ZvwEzgD0Xg982A/QYnvg430hf1N+9bZJoXUe9j7GE94qgx3PoPd6gw/7MWixvcHH+xr5m/48TFL461//+vGTn/zk8d///ndUBuvPShMeOh7ToPd6wybZjyGetzf4eF8jf9Ofh0gK//nPfz5++MMfPr797W9n52H9mjXhoeNxDXqvt9ImCdvfEM/bG3y8r5G/6c9DJIU///nPH3/+858fv/nNbx7f//73H//+97+zcss+ffqUWauOVabPsbXq19qS6bqt/ko2t+2ScWQ5fbZM1mezJvwcHaeMwWaV6/bSrLr6XMl0X9K4XLeR52V9Nl3PMlmnR3uW3tZ567N1zipnq5VJK42hTZfLY2m6HZtVV/twShs2q1y3l2bV1edKNqUvy6aWy3pzz1nlbFRWMl13bTyztcbRdawyfY6tVb/WlkzXbfVXMqsfNllP2zv4mEyWz61rmS7nY3lefi5ZqQ6f10b+pj8PkRR+73vfe/zjH//wwfLd7343K7PMcow+N/dYWqt/+lxqr8tKdUvtpc1tW6pbqy/LSvUssyb8HB31WLWxW9e1trxkVrtSX3y+1abUvnd7ht5LfNMqZ6uVSWuNYZ17xrhk2oe67Zpx1pZLa13Xs8ay6rXOrelb2tp4Jpty/XOPpbX6p8+l9rqsVLfUXprup1SmrScfW/1YZXPrynJtpb5K7abWLbUnf9Ofb58U/vSnP3384Q9/ePz9739//OlPf/LfIG63W1ZfWskh0qY4vdaPVabbltrrMv6s65faS5vTtlbXqm+VlepZpif8M3Ssnatd25SyWp2Sldro8/LYatMqfwd7lt76/lu+aZWz1crYuI6ua7WV52p918q0aR+2xtXnll7HlPbSrHryXKufKeNwHV3XaivPTembrFVvi/VLW6nO1PuxynTbUntdxp91/VJ7aVY/0kp99OTjWr01dWW5Ni7X9UrtrPNTz5GRv+nPt08Kf/zjHz9+97vfDYFCn99hMupzpfOtujWb07ZVd8p5XadmesI/Q8faudq1TSmr1SlZqY0+L4+tNq3yd7Bn6a3vv+WbVjlbrYyN6+i6Vlt5rtZ3rUyb9mFrXH1u6XVMaS/NqifPtfqZMg7X0XWttvLclL7JWvW2WL+0lepMvR+rzGqr61nnW3VrZvUjrdRHbz7Wda3zS+qWrNWXNut8awxp5G/6862TQvobSPRLp7/4xS8e//rXvx5//etf/beJb33rW8VHy1OcNMXptX6sMqutrmedn/K5ZFPb1o75c6mOrmsZl0uTE/5ZOupzreO550v1Slarz2VTxpDn6LNlsn6P9ky9p3y2zlnlbLUyMl2u+9VWqqtNt2Oz6upN0qqnz7WO554v1ZNm1ZHn6LNltXIu4/LSsS7T56xyy1r1tli/tJXqTL0fq8xqq+tZ56d8LlmrfqmP3nys61rn59a1TLepfZZWO18qk0b+pj8P8TuF3/nOd4ZAoc+yTNsU50xxeq0fq6zUlj+3ymufSza1be3Y+twqn2J6gyNbq6M+1zqee75Ur2S1+lxmjaFNl8vjd7Fn6j3ls3XOKmerlZHp8la/rXK2Wpk27cPWuFOO554v1ZNm1ZHnWn3MLW/13Sq3rFVvi/VLW6nO1Puxykpt+XOrvPa5ZK36pT569DF/bpXLz1PqWja33ZT+anXI3/QnkkLDpji91o9VVmrLn1vl+lift2xqWzrWJsv051b5FNtiwutzdKxNlst6pfParHola9W3ype0eQd7tt58LM9bvmmVs9XKyKhcmyyTdfU5q5ytVqZN+7A1Lh9rk+WyXum8NqueNKuOPNfqY0q5Nlkm6+pzVrllrXo9JizarLJSW/7cKtfH+rxltX5K58h69DF/bpXLz1PqWqbLrf6ktfpjK9Ujf9Ofb50U0u8Y/OAHP/CPlP/2t7/5QKFHyvQ3lN7hsf2U41KZPm/ZlLalfqy6reNSX5bJCf8sHadcS6td7VztvGWtunPGZZszfk/2bL35WJ63fNMqZ1tSxuetcnluSd+W6U1y6bitdrVztfNsrb6WtGcrlfF5q1yeq/UtrVVvi/VLW6nO1Puxympta8elMn3eslo/pXNkvfq4drymrrZS21I76/zUc2Tkb/rz7Z8U/uhHP/JB8pe//MUb/QIq/ftFsr62KY6aeyyt1f+cvkt9Wee1TWlb6ofP6/Lacakvy/QGN1fHOdfVOj/1XO28Za26c8ZlmzN+T/ZsvfmcPF+qY33WtqSMz1vl8tySvi3TPtRtW8e181PP1c6z6fLWsbZaeamMz1vl8lytb2mtemvjmax1rUuOpbX6n9N3qS/rvLZaP7X2vfq4drymrjarnM6V2pXqTzlHRv6mP98+KaRvC/S3kChAyH7729/6bw+yvmXsXLZWnVqZtFK5biuPtclyq67uk4+l8Xmuo+vKY1muz5fK2XRflsn6bHrCz9WxNUZp3Kl1W+3pT22luiVb2sYyq25P9gy9rXP6PJ+bUsY2pUz2wybLtel6lrXKtGkfttqU+plat9We/tRmnZdtS+3IZLmsL61UpttL0/Usk3W4nj4nbW08s7WuQ9eplUkrleu28libLLfq6j75WBqfL9Xh85b15GN9Tposn1vXMquuPGed57LSeWlWHTLyN/15iN8ppL+W/sc//tFb6VEyrC/TE54MOh7XoPd6s3wIe40hnrc3+HhfI3/Tn4dICn/2s589/u///s8bBQ2do19GlXVgfZk14aHjcQ16rzfLh7DXGOJ5e4OP9zXyN/15iKSQjP4mUutvI8H6sdIGBx2PadB7vZV8CNvfEM/bG3y8r5G/6c/DJIW//OUvh186/c9//jMqh/VlpQkPHY9p0Hu9lXwI298Qz9sbfLyvkb/pz8MkhbD3Mmxw5zLovd7gw34MWmxv8PG+Rv6mP98yKSSjG4C9t0HHcxn0Xm/wYT8GLbY3+HhfI39/8qn4G0EXDd4f6HguoPd64MN+gBbbAx/vC/sbSSF4CdDxXEDv9cCH/QAttgc+3hf2N5JC8BKg47mA3uuBD/sBWmwPfLwv7O9uk0L6l7ctECjHADqeC+i9HviwH6DF9sDH+8L+7jIp5NexWCBQjgF0PBfQez3wYT9Ai+2Bj/eF/f3WTwpvl/ydfp8ut1Dwcc3Pf7o8rh+hCPSB11HodLnd/fn77TKc++Lz58clfiYNYxXPx5XPR7tcHx+i/HH/eFw5Pqjsdg1jDGO6c+6/a2zv4+N+e954skxA98f3Stw/Ph63K90zXU+O9AWZbFdCtwmxH9oNZXEyyONxO7LgA7tMXK/zaevaeN6GORt9K/3NcxcUKW2SpM+U2GiRdK7F4rhsiv5Ho6QFmEdt/UO87wv7+62TQuZGm3D8zJCoKRG8uw073+TBaxl0NCZYrl085qROcBOa3l05JztBbxcTovqH64Pbf7hFaOiKEhM5mGP+eLGMky9KPM0kx12Xtcg4SjG8ZPHJ748S39R3VubOXt110mHyeTjnP4m68t6J/HrL98WkeUv9u/vKfFdvCwL2Jtn2/Vxqethlz7+G3rG1AEux4grxvi/s75MkhY4TfpvtmaSjm2BOv6TM3es5PqZ6IYFh8kQlJTMtretJ4YLxRhTKKFnMxkqUYvgpSWF2H+k4TxAZ+9r53u02dL7+JDPpHfrPE05x704P+cS10uXpMDdJFVMUM/Qk9uL0Ck86kp/D0+7oa2rnfWxpXd7wSmUt/Y+GqQVYjBVXiPd9YX+fJyk0ngiB1yF1zLRykzfTSeimExKZpPkngbHeSHtFWCyErRxPQ+NbC0ZtISnFcLrO+j1J9P2NxiQfu3uxr6WUFKbrsJuVE14i6R37F35O954S1kBI0Cfe9uGx1j4rpvy56Fv/1FrokvuzpHXZ58Wyhv5Hw9ICLMeKK8T7vrC/kRSCl5DpWEnERgmjKMx+p/Sakol2UijGUHGxZDwJ/Vi5FGfUvnRdtYUpoJ+olsl9SInV2B/l8UoLZ+hT6zNAi6TRjkl6p/65r+FalL+JlpZnwl77xjGVa5Trmev+5E2yov/RsLQAy7HiCvG+L+zv8ySFxoYDXofWMUxsPWkpoRGJGFk24eNicFeJT0PrbBHJksKF40Wo32tl3HVJ4bQ6RL5IOgx/lPsqLZyqT01jkUx6i/6j74drMa4TSWECm2Q/WFqA5VhxhXjfF/b3SZLCsIlXNzWwKyMdKSHQiZbxdFcuALmmbsIPv/yr9b77dtxVtojIMVaOJ5tSTA5VI9aPPphxDNOTQTfe8JdX3LW5RchunZMvku7a3LjqtozxmNLCKfskVymtaJHUgwiS3nn/dK2X4VpCWRqG/Fq6zvNhrX32j9NUnAp/Dzr6Lzb5lx6m5vNiWUP/o2FpAZZjxRXifV/Y32+dFHqRrac6JJg8P+P3scA+jCe8S4Lk3+iiBI31i+LRgsB6fvUlf04JDyUq6Z8QoGQo/fIxP8ELdegc1XMLSOwj++dvZo73tbzWwYzFxFhIrBge1reJ/8yNJN1fMkp005qZzw25wOq2+X2m87qcIF+pW8tgvdP98mJNvst1x180sbE2SR1TeXzHjZCOuY6rH2KV5oTz9VCW5kIy3mxrZYGW/kfD1ALMprb+Id73hf3dbVJYApPxGJxTR5X4Hob2fWHersf2YQ8xddS4LoN43h7E+76wv5EUgpdwVh3pm23t9w7fEvo23rgnzNv1lHz48piaoP/RQDxvD+J9X9jfSArBS4CO5wJ6rwc+7AdosT3w8b6wv5EUgpcAHc8F9F4PfNgP0GJ74ON9YX8jKQQvATqeC+i9HviwH6DF9sDH+8L+RlIIXgJ0PBfQez3wYT9Ai+2Bj/eF/f2JPsBgMBgMBoPBzms+KfT/fyP4wsF7Ax3PBfReD3zYD9Bie+DjfWF/IykELwE6ngvovR74sB+gxfbAx/vC/kZSCF4CdDwX0Hs98GE/QIvtgY/3hf3dZVIoXy+jQaAcA+h4LqD3euDDfoAW2wMf7wv7u7ukUCeC+hiBcgyg47mA3uuBD/sBWmwPfLwv7O83TgrHL62mF/9n5/2xeEn25eZbgtfjdaSXm7N28bVB6QXnnx5ffP4cX2ZONn4hOdfzdrk+PuSbh+4uDgbdXdktvppoGJPeXZliJYTK7XnjyTIB3Z98RdL94+Nxu9I90/XkSF+QTXm1km7jXwQfL2Yoi29yl8fjdmTBB3aZuN4Zr7kLczH6Vvobc7NJaZMkfabERoukcy0Wx2VT9D8aJS3ATCrrJuJ9X9jf3SWFGhJGkgUKbSpxgyM+nJB0SIKK0x46d7J1q2sGHY0JpvXzx5zUCW6XpOndlXOy447cQpMvMBQb3P7DJWFDVyqGiPnjxTJOvijxNJOc8ovUb3S98TND17Fk8cnvjxLf1HdW5s5e3XXSYfJ5OOc/ibry3on8etsviE/zlvp395X5rt4WBOxN8vkv56/pYZc9/xp6x9YCzKW2biLe94X93XVSqBNCIgsUvaHHBEMnFUS+GYJXk3R0E8xNvCQNPdm1jqleSGCYPFFJyQzHQYl6UrhgvBGFMlr0dGBGrMXnaUlhdh/p2J4T9rXzvZfmET1JrV1r0jv0L/vJ7t3pIZ8cVLo8HeYmqWKKYoaexF6cXuFJR/JzeNodfU3tvI8trcsbXqmspf/RMLUAK8nXHsT7vrC/u00KSUCLLFD0k0K30fhDFwBeMB8IIUhqwoP9kTpmSTxpJzSVGuuERCZp/klgrGd9KZCExULYyvE0pWSutpBY8RkWPL7O+j1J9P2NxiQfu3uxr6WUFKbrsJvli7Um6R37F35O9x7KUvchQZ9424fH2iStmPLnom/90xehS+7PktZlnxfLGvofDUsLsA69biLe94X93WVSSJtPiSxQaGOxNr8omE8SnV1uerMBr2akY5xgOhEbJYyiMCUqzq5J33ZSKMYQYxNLxpPQj5VlfxJqX7qu2sIU0E9Uy+Q+pMRq7I/yeKWFM/Sp9RmgOWe0Y5LeqX/ua7gW5W+ipeWZsDZJK6ZyjXI9c92fvElW9D8alhZgOda6iXjfF/Z3d0khbbg1skBRG/pAPO8F9Z+vZjCA16EnfJjYetJSQiMSMbJswsfF4K4SHyO5kGSLSBZDC8eLUL/XyrjrksJpdYh8kXQY/ij3VVo4VZ+axiKZ9Bb9y3lKx8Z1IilMYJPsB0sLsIzSuol43xf29zGTQi++CzQvWtzosbN0xWjCU0KgEy1DX7kA5ImK03z45d+QtKWye1h4YlfZIiLHWDmebEqLyVA1Yv3ogxkvPvRk0I03/BK2uzYXz3brnHyRdNfmxlW3ZYzHlBZO2Se5SmlFi6QeRJD0zvuna70M1xLK0jDk19J1ng9rk7R/nKbiVPh70NF/scm/9DA1nxfLGvofDUsLMJf6uol43xf2d5dJoTZJtrnIevkO5cs4eGgDK23G4DWMJ7xLguTf6KIETWlLC0LQ+/L46kv+nBIe0jn9EwKUDKVfPuZvoqEOnaN6KYayf/5m5nhfy2sdzFhMjIXEL1SynUyKJv4zN5J0f8ko0R2a0jXIMjEvdNv8PtN5XU6Qr9StZbDe6X55sSbf5brjL5rYWJukjqk8vuNGSMdcx9UPsUpzwvl6KFPraawT/F8rC7T0PxqmFmAejXUT8b4v7O/uksIWmIzH4Jw6qsT3MLTvC/N2PbYPe4ipo8Z1GcTz9iDe94X9jaQQvISz6kjfbGu/d/iW0Lfxxj1h3q6n5MOXx9QE/Y8G4nl7EO/7wv5GUgheAnQ8F9B7PfBhP0CL7YGP94X9jaQQvAToeC6g93rgw36AFtsDH+8L+xtJIXgJ0PFcQO/1wIf9AC22Bz7eF/Y3kkLwEqDjuYDe64EP+wFabA98vC/s70/0AQaDwWAwGAx2XvNJof//G8EXDt4b6HguoPd64MN+gBbbAx/vC/sbSSF4CdDxXEDv9cCH/QAttgc+3hf2N5JC8BKg47mA3uuBD/sBWmwPfLwv7O8uk0L5ehkNAuUYQMdzAb3XAx/2A7TYHvh4X9jf3SWFOhHUxwiUYwAdzwX0Xg982A/QYnvg431hf3f5pFBSTgrHL62mF/9n5/2xeEn25eZfZC3b0Ev3P+Iba9LLtaVdH19zH659erlNOucaihd7j1+cnfVXGC+8XDtd+9FfG+V1pJebq/uVPvni8+dFfvXcnS8H3V3ZLb6aaBiT3l2Z/B1CZZmOHj2eLBPQ/Ult7x8fj9uV7pmuJ0fH45SYGMfwxd1baDeUxTe5y+NxO7LgA7tMXO+M19yFuRh9K/1N8whUKW2SpM+U2GiRdK7F4rhsiv5Ho6QFmMvdhU+MLbVuIt73hf39xkmhgzaVuMERH05IOiRBxWkPnWMdb5f0+e6SBd4kCVlG3ChQ6QMFgisbqupjhx+Xkw9BbTyaELI6HfMmfmQGHY0JpvWb79e7S9DyBYZig9tnPlcxRCzR0Zdx8uXuyU5yyi9SH+JMQNehr2EK+f1R4pv6zuONEtnwRSf5PJzzn0Td4rzwtF8Qn+Yt9e/uK/NdvS0I2Jvk81/OX9PDLnv+NfSOrQWYi9zvaN2U6wLifV/Y310mhSFDD6bJAkVv6DHB0EkFUd7g0iZIcFm+eTp8wKagpXpXH9D+0EFPDq/u/y5g4kbL1MZL47j2WX/HJulI/iK/MexHZoFfjURTkmk7SgqX6ZhTKKNksSCwtfg8LSnM7iMdj2LcY197cV5E6Elq7VqT3qF/2U92704P+cS10uXpMDdJFVMUM/Qklr6whjU0+Tk87Y6+pnbex5bW5Q2vVNbS/2iYWoBVTEoKEe+bwf4+1pNCt9H4QwouEswHQggSKa7c3P0TJNHH8KNmEVye2Kfv5yOMmyWf4lr0xlkbL9SlftV4B0fqmPmR/Cz8s8SvWX8GYbEQtnI8DY1vLRi1hcRafMKCx9c5/QuDvr/RmORjdy/2tZSSwnQddrN8sdYkvWP/ws/p3lPCGojzLR6dHWuTtGLKn4u+9U+thS65P0tal31eLGvofzQsLcBCaC2gtcXFloxkxPu+sL/fPymMG1+2+UXBfJLo7HLLN5u0wTm72k+DdEJAffr+qe+4QcvkY5TYiMa18fwGToFHP67MNsRjM9IxOk/7fYlfszYG2RhibGKpjgz9WFn2J6H2peuqLUwB/US1TO7D8IVDj1ser7RwFuYFQ/PCaMckvVP/3NdwLcrfREvLM2FtklZM5Rrleua6P3mTrOh/NCwtwDqmPClEvG8H+/tQTwoH4nkvqP98VYESgyg+oZNdDGWa6oZF/YiEgWzieDKgz7QB6gkf/KAn7UK/GlpJskUki6HlOhLU77UyrrWgMbWFiZlSh8gXSYfhj3JfpYVT9alpLJJJb9G/nKd0XJ1jAJtkP1hagPXI+EK87wv7u7ukkDZiiT7OAqWUFHrx3WbiRYsbvaiXb3CurvilUb35DZtSbcMyrkMGam28LKCpn5MsrKMJT/4lzaQbF/s1JG2pLPwNN+5q5HMuWDmebEqLyVA1Yv3ogxkvPvRk0I03/BJ2iA27dU52f3Rtblx1W8Z4DM0da+GUfZKrlFa0SOpBBEnvvH+61stwLaEsDUN+LV3n+bA2SfvHaSpOhb8HHf0Xm/xLD1PzebGsof/RsLQAc9FrXEi0OHQR7/vC/u7ySaF8UqPJNhdRLxcolHHw0AbGn/2Pa2MbbkLl9Aupv/J/ij6jffUrtyHzcWyU+vnG4xvFssvjqy/5c308LuPAzcP+eIwnvFsgRLLsE7Tom7l+DYeUDLF/XQIjYiGco3ophrJ//mbmeF/Lax3MWEyMhcTrLdtJ7Sf+MzeSdH/JKNEdmtI1yLK0mo7a5veZzutygnylbi2D9U73y4s1+S7XHX/RxMbaJHVM5fEdN0I65jqufohVmhPO10OZWk9jneD/Wlmgpf/RMLUA86mscYj3fWF/d5kU1sBkPAbn1FElvoehfV+Yt+uxfdhDTB01rssgnrcH8b4v7G8kheAlnFVH+mZb+73Dt4S+jTfuCfN2PSUfvjymJuh/NBDP24N43xf2N5JC8BKg47mA3uuBD/sBWmwPfLwv7G8kheAlQMdzAb3XAx/2A7TYHvh4X9jfSArBS4CO5wJ6rwc+7AdosT3w8b6wv5EUgpcAHc8F9F4PfNgP0GJ74ON9YX9/og8wGAwGg8FgsPOaTwr9/98IvnDw3kDHcwG91wMf9gO02B74eF/Y30gKwUuAjucCeq8HPuwHaLE98PG+sL+RFIKXAB3PBfReD3zYD9Bie+DjfWF/d50U0utlNAiUYwAdzwX0Xg982A/QYnvg431hf3ebFPI7BzUIlGMAHc8F9F4PfNgP0GJ74ON9YX+/bVIYXnwtX6ofX1x9ueXH2Yus4wuzXZ30khpxbni5trRzvdNzL7yO9HLz6Gd+bZDU4IvPnws6hheScz1v6mXqoxet3+KriYYxSdf04nP/cvNi3CwYT5YJ6P7kK5LuHx+P25Xuma5nzIcr89eUxWyZcQxf3L2FlkNZfJO7PB63Iws+sMvE9c54zV113oIqpU2S9HnGa7eSzuNYrJVN0f9olLQAywjxlccW4n1f2N9dJoUkhvxTkgKFNmEXHHGDI260GcfPBAl75WSAIUFdu6GZOr65z7K67hM8h0FHY4J53YTTTR0dUqu7K+dkxx252HC6SdldH9yeEq2hK0pM5GCO+ePFMk6+3D3ZSU75RepWnNEY6ZZuk9/3md8fJb6p76zMnb3GZDP5PJzzn0Td+rxovyB+zrwFNvYm+fyX89f0sMuefw29Y2sBlhHWHL9mxzME4n1f2N9vnhTe1MYlhaIngFf3fydg3Pg8lIRcyUJN2uyurg/eo3jzyzdP8GySjqQP6cSwbkxBR0eeqKRkxmtcES9PmnRSuGC8EYUyShazsRJ57Abyc7XxcvL7C+3SfaRjO8btcVrzgp6k1nw+ed5S8iueuFa6PB3mJqliipJ7ehJLX3S9D8UT7/C0O/qa2nkfW1qPY5EplbX0PxqmFmAR/IVUxxbifV/Y390lhSQcIz8zenORm3omoDifbWQuOEhMX/cj1ElPSagPCqQ8uMDzkRNe+t/rMxw4Sjo6ZJLmnwTGell/BmGxELZyPA2Nby0YtYXEWnz0udICpdH3NxqTfOzuxb6WUlLI/RXmhVqsNdPmbShL3cd5Go/OjrVJWjHlz0Xf+qfWQpfcnyWtyz4vljX0PxqWFmABpf3bgXjfF/b3+yeF9Clu3lLAUaLBgcSfSVS3wVGdPCkMfemEADyXbMJXErGijo6UqDi7pmSinRSKMcTYxJLxJPQjX9mfhNqXrstafPS52uIlyX1IidXYH+W+SgtnY17QfDLaMZPmrfI30dLyTFibpBVTuUa5nrnuT94kK/ofDUsLMB8Zqzq2EO/7wv7uMinUJrE2F97Yk4C0Eap+uG5j45FPg8B26AkfJraetBUdHYNWd5X4GBpLskUkSwoXjhehfmu/92ctaIy1+OTnwo+zp5Avkg7DH+WFsLRwqj41jUVy0rxtzM2zg02yHywtwHxq6y3ifV/Y390lhRIKEo25uTgoMC4soHr6QwyB09h49OaHTWkbRhOedNGJVk1HR66Vi4fhl39D0pbK7r4dd5UtInKMlePJprSYDFUj1o8+GGvxoaeONz5J11Zoq8nuj67NjatuyxwvUFo4ZZ90OUorWiT1IIJJ8zaWpWHIr6XrPB/WJmn/OE3FqfD3oKP/YpNvwkzN58Wyhv5Hw9ICrEPHFuJ9X9jfb5sUpm8YLLrbNN0m/bX/M5ZF0SiQQt1vPL5RLLs8Pn/mX1bN7URr3W6MJ/w9/xtdVR0vj6++5M9JH0pU0j8hQMlQ+uVjfoIX6tA5qucWkNhH9s/fzBwvi7nBjMXEWEisb8pyyaOEzjpfIt1fMkp0h7Z0DbJMLLC6bX6f6bwuJ8hX6tYyWvN2aOqO8RdNbKxNUsdUHt9xI6RjruPqh1ilOeF8PZSluZCMN9taWaCl/9EwtQALEfElggjxvi/s766TQgtMxmNwTh1V4nsY2veFebse24c9xNRR47oM4nl7EO/7wv5GUghewll1pG+2U/+9wbeBvo037gnzdj0lH748pibofzQQz9uDeN8X9jeSQvASoOO5gN7rgQ/7AVpsD3y8L+xvJIXgJUDHcwG91wMf9gO02B74eF/Y30gKwUuAjucCeq8HPuwHaLE98PG+sL+RFIKXAB3PBfReD3zYD9Bie+DjfWF/f6IPMBgMBoPBYLDzmk8K/f/fCL5w8N5Ax3MBvdcDH/YDtNge+Hhf2N9ICsFLgI7nAnqvBz7sB2ixPfDxvrC/kRSClwAdzwX0Xg982A/QYnvg431hf3eXFOavlgkmQaAcA+h4LqD3euDDfoAW2wMf7wv7u8uksAYC5RhAx3MBvdcDH/YDtNge+Hhf2N9vmxSmF2FLCy+ttsviuwrphdri/NFeav0ueB2FFvzaIKndF58/x5eZk41fSM71vF2cvvLNQ/ePx5Vfjk5lt/hqomFMiof04nMfB/fb88aTZQK6P/mKpPvHx+N2pXum61FM7FMyjv2Lu7fQcCiLQS+Px+3IJswnYsJrn3jehhfWR99Kf19uvhyUKW2SpM8zXruVdB7HYq1siv5Ho6QFmIdeW2QcId73hf391klh2Nto4wwbyofbXFmr2yXf1G+0qcbPsg14DcOENyZY0jbgjzmpE0iN766ckx135PR1eovqH64Pbi/jxDV8XORgjvnjxTJOvijxNOOr/CL1PD4D0/ock98fJb6p76wszgM6XDef2i+ITws89e+0yHxXbwsC9ib5/Jfz1/Swy55/Db1jawHmQutOKcFCvO8L+7vLpFCaZhwodoLHm1i+CTJ2G7AfSUc3wdzESxLd/UQcH1O9kMAweaIiNG18k6snhQvGG1Eoo8ROJaBMbWEKTI/ZUVKY3Uc6njM36vOJzuff8jVJ79C/7Ce7d6eHfDpa6fJ0mJukiinaZOlJ7MXpFdbQ5OfwtDv6mtp5H1tal2OxVNbS/2iYWoDZzE4KEe+bwf7u/kmhPh4HSmkTo4DIgyRhtwH7IXVMT6kcbvJmSZpI2nRCIpM0/yQw1sv6MwiLhbCV42lKC11tIaktTERt8dTo+xu1Ix+7e7H7WzKfHGqx1iS9Y//Cz+neQ1nqPiToNb+cCWuTtGLKn4u+9U+YhS65P0tal31eLGvofzQsLcB8QlKX1hYZQoj3fWF/d5cUaihYJONAKQkdNq85T0PAfmQ6VhKxUcIoClOi4uyakol2UijGEGMTS8aT0I+VZX8Sal+6rtrCVOvTIvchJVZjf5THWzKfHLRIVuZU0jv1z30N16L8TbS0PBPWJmnFVK5Rrmeue0nrciwWyxr6Hw1LC7CW/KdGiPd9YX8fPim0UW2MzQhsi9YxTGytJSU0IhEjE+WDxneV+DT0zBaRLClcOF6E+r1Wxl2SFLb6tMgXSYfhj/JCuGQ+ORqLZNJb9B99P1yLcZ1IChPYJPvB0gKsR8YX4n1f2N/dJYW0EUv08ThQSkLnm1i+uag2xmYEtmWkI2mgEy31FI+QC0CusdN0+OXfkLSlsrtvx11li4gcY+V4siktJkPViPWjD2a8+Ezr0yJfJF0/blx1W8Z4zJL55KBFUg8iSHrn/dO1XoZrCWVpGPJB6TrPh7VJ2j9OU3Eq/D3o6L/Y5F96mJrPi2UN/Y+GpQWYCz0ZdPE4/GU6t/6K+Y943xf2d5dPCuWTGo0MFNqYZF3WSJ/PyklMowxJ4b6MJ7xbIOTf6KIEjfWJwtKCEPS6PL76kj9r3bkPSobSLx/z07YUG1TPLSCxj+yfv5k53tfyWgczFhNjIfELlWzHi+LUPhVW7FOim9bMPP5l3Ou2+X2m87qcIF+pW8tgvdP98mJN95nrjr9oYmNtkjqm8viOGyEdcx1XP8QVzQnn66EszYVkvNnWygIt/Y+GqQWYT+Wf3UK87wv7u8uksAYm4zE4p44q8T0M7fvCvF2P7cMeYuqocV0G8bw9iPd9YX8jKQQv4aw60jfbub8j2D30bbxxT5i36yn58OUxNUH/o4F43h7E+76wv5EUgpcAHc8F9F4PfNgP0GJ74ON9YX8jKQQvATqeC+i9HviwH6DF9sDH+8L+RlIIXgJ0PBfQez3wYT9Ai+2Bj/eF/Y2kELwE6HguoPd64MN+gBbbAx/vC/v7E32AwWAwGAwGg53XfFLo//9G8IWD9wY6ngvovR74sB+gxfbAx/vC/kZSCF4CdDwX0Hs98GE/QIvtgY/3hf2NpBC8BOh4LqD3euDDfoAW2wMf7wv7u8ukUL5eRoNAOQbQ8VxA7/XAh/0ALbYHPt4X9nd3SaFOBPUxAuUYQMdzAb3XAx/2A7TYHvh4X9jf3SeFGr7w9CJsadfH14/4UuzLzX1i0jnXML4gmyx/yTWRXtgfjdoQ9CJucf5ML3/fAq+j8Cm/Nkjq+sXnz0Wt6IXkXM+bepn66EXrt/hqomFMendlevG517MSG7PHk2UCur/8FUl313e8Z6MdlflryuK5zHheXNy9hZZDWQxeeTxuRxZ8YJeR/yITXvvE8zbMr+hb6W+eZ6BIaZMkfZ7x2q2ks9A2Uiubov/RKGkBluD2Z14DKb5iKCHe94X9/bZJIXG75Bv3jTZV+kCiubIhcdPHDhL9yomCwdBXBm382LyewaCjMcG8NhO0kvrfXTknO+7I6ZQWF+LD9cHtKdEauqLERA7mmD9eLOPky92TneSMX6RO1zIkbeQL0SeNkW7pNvl9n/n9UeKbxszKYjzTYfJ5inFZtzjXPO0XxKd5S/07LTLf1duCgL1JPv/l/DU97LLnX0Pv2FqA+VBCeB3WTgnifV/Y310mhdI0MlB4o8o3OoffXNMGS/WufvP1hw56cnh1/3fixk1RYwcDksJnkXQkDUgLhrVhylrliYrQxkg0JXnSpJPCBeONKJRRspiNlaOTwjwGp8feKCnM7iMdj+aNxx6nONci9CS15vOkd+hf9pPdJyW/4olrpcvTYW6SKqYouacnsfQlOKyhyc/haXf0NbXzPra0Lm94pbKW/kfD1ALMx8VhaUlEvO8L+7v7J4X6WAZK+lGv2qhcAJBgXtCPsOmnJyEOkQiUNjk7GKZvzKCO1DHThrQTk76mlUzS/JPAWC/rzyAsFsJWjqeh8a0Fo7iQ0Jh0HS7mZKmOwdriJdH3NxqTfOzuxV7USkkh92fPF+qzlvAmvWP/ws/pvkJZ6j7O4Xh0dqxN0oopfy761j+1Frrk/ixpXfZ5sayh/9GwtADz8T8NoQc4cW3hn5oQiPd9YX+/eVIYNqhRYucE84FDwvlAo+BLicIoCVFBRtjBYAcVmE824SuJWE2r7Pc/rymZaCeFYgwxNrFkPAktcrI/CbWvXVf9SWEpJsfkPqTEauyPcl+lhbMw1xiaa5W5kfRO/XNfw7UYc7Gl5ZmwNkkrpnKNcj1z3Z+8SVb0PxqWFmA+4Qusi6kYr/fbbYgvxPu+sL8PkRSOqG4utEmKzZ1scqCooDLGAdPQEz5MbD1p61oN+t9V4tPQJVtEsqRw4XgR6rf2e3/WgqaRcZfHYPhx9hTyRdJh+KO8EJYWTtWnprFIJr1F/9H3w7VU5y3AJtkPlhZgPvrJH32p5kPE+76wvw+VFA4bSG1zUU+GiNEm6rCDQQWVMQ6YxmjCky91otXQKtffaTP88m9I2lJZ+Bu+3FWmtxxj5XiyKcXPUDUy/tEHJXquT/UXVLiGXyC5T7q2rG2ZPJ7dtblx1W3561OnIqWFU/ZJl6O0omvXgwiS3nn/dK2X4VpCWRqG/Fq6zvNhbZL2j9NUnAp/Dzr6Lzb5lx6m5vNiWUP/o2FpARZA69ow52mdrj8pRLxvB/u7u6SQkE9qNHzhtCnJemxf/coFGR9H0cIjarJvPL5RLAvB4wOH65BxEFEQyPPRkBQuYzzhXYI0JFkOWizYz4ZWX33Jn1PCE2KC+6BkKP3yMT/BS3FD9dwCEvvI/vmbmeN9La91MGMxsRaSxj9lQwldKLN/XK2x5gUlukNbFccyfnXb/D7TeV1OkK/0rUlY7zS/eLEm3+W64y+a2FibpI6pPL7jRkjHXMfVH35/6+Z8PZSluZCMN9taWaCl/9EwtQCL8L9yE2NKxhDifV/Y310mhTUwGY/BOXVUie9haN8X5u16bB/2EFNHjesyiOftQbzvC/sbSSF4CWfVkb7ZTv33Bt8G+jbeuCfM2/WUfPjymJqg/9FAPG8P4n1f2N9ICsFLgI7nAnqvBz7sB2ixPfDxvrC/kRSClwAdzwX0Xg982A/QYnvg431hfyMpBC8BOp4L6L0e+LAfoMX2wMf7wv5GUgheAnQ8F9B7PfBhP0CL7YGP94X9/Yk+wGAwGAwGg8HOaz4p9P9/I/jCwXsDHc8F9F4PfNgP0GJ74ON9YX8jKQQvATqeC+i9HviwH6DF9sDH+8L+RlIIXgJ0PBfQez3wYT9Ai+2Bj/eF/d1dUpi/WiaYBIFyDKDjuYDe64EP+wFabA98vC/s7+6fFCIpPCbQ8VxA7/XAh/0ALbYHPt4X9vfbJoXpRdhs9DLt+OoZemn2qCwUuYbxBdnhvHxbzbjPVMcuO9f7Pp+J11HoxK8Nkn7+4vPnolb0QnKu5+3itBDlj/vH48ovR6cyeuk6dTCMSdqlF5/7+KjExuzxZJmA7k++Iun+8fG4Xeme6XrGfLgyf02X26PQZUZtXgxlcTLI43E7somxP+G1T6N5a1wDqFPaJMmHz3jtVtJ5HIu1sin6H42SFmAOaf0dTKwDiPd9YX93nRSSKBoZKLRhDtrQpiwEJFFTfN3dhp1v8r6cE4VIakMb/M2fk2PcVB832vzjZzCPQUdjguXa2VoRUo+7K08LCunttBHVP1wf3D6PG5cIysEc88eLZZx8UeIZ4yen/CJ1K5ZojHRLt8nv+6zNi6wsxjkdrov99gvii/NWXAOoY2+Sz385f21ds8uefw29Y2sB5pHWGo9aixHv+8L+PlZSKDYXnVi4ymKTv3ux7ySuuSGpYI3wxphvamAJSUfSgLRgWBumrFWeqAjNGt/k8rjRSeGC8UYUyihZzMZKWItPfq42Xk5tXnA/dGzHsT1OK/bpSWrN5/kCX74GmrfhG7ozun/ZpXoa6xP/WHQGzE1SxVTwn/sC5PQKfkz+DU+7o8+onfejpXXZr6Wylv5Hw9QCrELv2Yj3fWF/v3lSSKInkyKNkkK5+YvP8zZGHsveGMF0pI6ZVm7yZklaRSuZpPkngbHeSHuFjpssUVswnobGtxaM2kJiLT76XG3xktTmhYd87O7FvpaFsa8Wa81ogbeuwfk+fxrqEvRrSmhJj+FXRNQT0DNgbZJWTPlzUQv/1FroksdQSeuyX4tlDf2PhqUFWIeOLcT7vrC/u00KaQOykIGSb9r0hCclA7WkcJSEqCArB08Yz04kwRyyCV9JxGpapUTFmUge2kmhGEOMTSwZT0I/8pX9Sah96bqsxUefqy1ektq8YMp9LYx9WiSNdoy1wOtrIN8P/h1MjEd6iPMlXx4V24fjmMo1yvXMff7kTbKi/9GwtAArUOswgXjfF/b3gZJCh9jER4nBUEabpNx0nI3ErW+MYD16wgcttd/rWg163FXiI+LAIoubbDFaOF6E+q393p+1oDHW4pOfCz/OnkJtXjDlhXBh7DcWSXuBV9fQ0E1y/3C6ufGm1T4G2CT7wdICrMCY+4j3fWF/H+tJ4TUFTJ4Uhk3c1zW+kYw20WLw5PVaT6RAmdGEp0VBJ1oNrXI9nGbDjxOF3p67b8ddZXrLMVaOJ5vSYjJUjVg/+mCsxYeeOt74JF1boa0mj+d8XjDlhXBh7NMiqQcR2Au8vgYa250zbzP6m8vIH+46p3nkGFg+tH+cpuJU6Dno6L/Y5F96mHJsVMoa+h8NSwuwnDxmA4j3fWF/v21SaP2oiTZ0HxskWFYWNzDaSPhcFJSCjOtQ8Oh+WXdrPFkO5jGe8Pf8d8QaWn31JX/WGnEflAyxZk7/uGokHakeJRqhj+yfv5k53tfyWgczFhNjIfELlWynEh1K6KzzJaw4HeYFoeaGXGB12/w+03ldTpCv1K1lZHpXrsEN5hZ1LqPf2+T7DgmjLKuNd0SsTVLHVB7fcSOkY67j6odYpTnhfD2UpbmQjDfbWlmgpf/RMLUACwmJnAgnD+J9X9jf3SaFJTAZj8E5dVSJ72Fo3xfm7XpsH/YQU0eN6zKI5+1BvO8L+xtJIXgJZ9WRvtlO/fcG3wb6Nt64J8zb9ZR8+PKYmqD/0UA8bw/ifV/Y30gKwUuAjucCeq8HPuwHaLE98PG+sL+RFIKXAB3PBfReD3zYD9Bie+DjfWF/IykELwE6ngvovR74sB+gxfbAx/vC/kZSCF4CdDwX0Hs98GE/QIvtgY/3hf39iT7AYDAYDAaDwc5rPin0/38j+MLBewMdzwX0Xg982A/QYnvg431hfyMpBC8BOp4L6L0e+LAfoMX2wMf7wv5GUgheAnQ8F9B7PfBhP0CL7YGP94X93WVSKF8vo0GgHAPoeC6g93rgw36AFtsDH+8L+7u7pFAngvoYgXIMoOO5gN7rgQ/7AVpsD3y8L+zv904K7/Qi7fhC7Mv1cbs6u4fX4PhzmYV3FYYXZseXW99v8WXZzi43//qavM1leOl1rU96OXZ23l3Lx7ne+jQbr6PwN782SPr5i8+fkz7GC8m5njftcx8bouwWX000jEnapRefe51lPKwdT5YJ6P6sVySF+6ZrajOORYrT0OdQFgNXHo/bkYX7tMvE9ax8tRPP2+r8A1VKmyRp94zXbqUYGMdhrWxtbLwjJS3AXOS6eXvIKEK87wv7+42TwrsLJifYoM3dbThpI5efiRvV9Z9CInnhbM+RykIwpCIaY0qfedndJSC8KQObQUdjguUaxGNO6gRln+vYcMO4Prj9x1XoSImJ0mr+eLGMEzNKPM0kp/QidYrJW7jmeKZFfg+U3Ka2WVnsmw6TX8M5/0nUrcV3+dqnkeZtff6BMvYmuU4Xi5oedtnzr6F3bC3AXLK1Su0FiPd9YX93lxQSIUMPphkCpZGt8waXb5BE2BDzzTAJrBMSOU65z1QWSJsusEkT3k0w5//kTkrurWOql3+TLPq8ERuZfqOkcMF4IwpllCxmYwU45uwFyCa/hzBeutZ0bMVq6fpq8U3Q09KaX2skvcPYcozsvp0e8onrwuEOiblJqpiiWKInsRenZVhDk5/D0+7oa2rnfWzFQTkOS2VrYuMdMbUAs6mtxYj3fWF/v+2TwlHypgg/psqDJBA3RBGAUvhRv1m9Up9UJoLR9ZEnGkAjJ3zmczd5M98J/+tkpeTzVmyExULYyvE0NL61YJgLSSEOW+h7GPVLfnTXay9cpaSQ+8vve0AtyHNIetfmXyhLQ4cEfdmIx8PaJK2Y8ueib/1Ta6FZ7s9SHJR9XixbERvviKUFWACtA7ROUWJ3dbElQhnxvi/s70MkhfSZN0cWqvzUIwUGl0nhRwlFtnmV+qQy3lDpGvInTGBMNuEriVimh5uIckEo+XykoSIbQ4xNLBlPQj9Wlv1JqL0uktdSW5w0uZ/Cr07ovsv9lRbH0KcV3x5aCI12U0h6V+af8jfR0vJMWJtkK6akv4k8Jp68SS6MjXfE0gLM5/5xS4ng/eNxE8GFeN8X9vfbJoXWBiKDQz7VyRGBERMCKfxoExLjlPsUZXd7gwY5esIH7fSkJV+KRIwsm/AFnxuxIckWkSwpXDhehPq9Vsa1FrTaeDXyhdBh3HN5sSstjqpPzYqFMOldmX/GPSApTGCT7AdLCzAfiqc04108imBGvO8L+/t9k0IXSqO/TCCCQ29waXPJA4PaXITw+SYUNv92n7rMjXGyX7yey2jCU0LgfJhNePUUjyhrLH2e60bH1I67yhYROcbK8WTTfLELWD/6kNQWJ012DzS+61tdeqW/0uIo+yR3KD1oIdSDTCTpXZt/oSxdAvl1uk+OjrVJ2j9OU3Eq/D1o7L/Y2F9Caj4vlq2IjXfE0gLM50P+yNitv62kEPG+Hezv7pJCQj450WSBIv8ZkE9uA4uRQZuZ7IONNExPZjhYXCKgfxl1sLQp1vqkQJXHqX452M7OeMKrv9HldYl+jU5Nfr48vvqSP5d8TokSa2bFBtVz8RP7yP75m5njfS2vdTBD++JCkq5jykJjxSIls2ldzONYLqK6bX4v6bwuJ8gfEy7PhPWuzj+CNgau4xZkcemnx9okdUzl8R03QjrmOq5+iFWaE87XQ5mIwcF4s62VBdbExjtiagEWIPZwlYAh3veF/d1lUlgDk/EYnFNHlfi+FeuuHfN2PbYPe4ipd47rZSCetwfxvi/sbySF4CWcVUf6Zlv7vcNuoW/cK64b83Y9JR++PKZWxsY7gnjeHsT7vrC/kRSClwAdzwX0Xg982A/QYnvg431hfyMpBC8BOp4L6L0e+LAfoMX2wMf7wv5GUgheAnQ8F9B7PfBhP0CL7YGP94X9jaQQvAToeC6g93rgw36AFtsDH+8L+/sTfYDBYDAYDAaDndd8Uuj/DwAAAAAATszj8f/QT3Toq1TyQAAAAABJRU5ErkJggg==;" vertex="1" parent="1">
          <mxGeometry x="-40" y="850" width="570" height="160.84" as="geometry" />
        </mxCell>
        <mxCell id="_rLCLBlPRa0EdaRFuiWH-6" value="" style="shape=image;verticalLabelPosition=bottom;labelBackgroundColor=default;verticalAlign=top;aspect=fixed;imageAspect=0;image=data:image/png,iVBORw0KGgoAAAANSUhEUgAAApMAAAB4CAYAAACuCnmVAAAAAXNSR0IArs4c6QAAAARnQU1BAACxjwv8YQUAAAAJcEhZcwAADsMAAA7DAcdvqGQAACe0SURBVHhe7Z1Zsuu4zcfvsvpspHfQZw/3La+ZnLEyfdlGnx2k0m9JKk9xpZKnzMka/BGiIIIQQFKSJdPy/9eFtkVwkACQhGWfq0+///3vb5DXlf/9738QCAQCgUAgq+WTVdi7gOfnW9/61vgOAB/EyXZgw36AL/YHNj4WsjflZU+bTFrlkOcRnvCWDgJhQZxsF9iwH4Ev9hfY+Fghe9PraZLJX//617ef/vSnt//+978zHaQ/8SY8/AiRgjjZLthc+xHE8/4CGx8rZG96PUUy+c9//vP2ox/96Pad73wnK4f0K9aEhx8hWhAn28XbXCHHC+J5f4GNjxWyN72eIpn8xS9+cfvzn/98++1vf3v7wQ9+cPv3v/+d6S359OlTJrU6lk6XsdTql9qS6Lq1/jxZ2nbNOFJP7y2R9VmsCb/Ejy1jsFh63V6KVVeXeaL7ksJ63UaWy/osup4lss6Z5F5xYpVb760yS89S0knxxtCi9fJYim7HYtXVNmxpw2LpdXspVl1d5klLX5a06mW9pWWWnoV0nui6W+OZpTaOrmPpdBlLrX6pLYmuW+vPE6sfFllPyzPYmETql9a1ROv5WJbL9554dbhcC9mbXk+RTH7/+9+//eMf/xiC5Xvf+16ms8QyjC5beiyl1j+999prnVfXay9laVuvbqm+1Hn1LLEm/BI/6rFKY9fOa6veE6ud1xeX19p47c8q94iTNTat6VlKOim1Mayye4xLom2o224ZZ6teSu287jWWVa9WtqVvKVvjmaTl/JceS6n1T++99lrn1fXaS9H9eDotPdnY6sfSLa0r9Vq8vrx2rXW99mRven36ZPJnP/vZ7Q9/+MPt73//++1Pf/rT8Mnjcrlk9aV4BpHSYvRSP5ZOt/Xaax2/1/W99lKWtC3VtepbOq+eJXrC38OPpbLSubXoSnU88drocnlstanpzyz3ihNtt5pNa3qWko6F6+i6VltZVuq7pNOibVgbV5etPY+W9lKserKs1k/LOFxH17XayrKWvklq9fZY97R4dVqvx9Lptl57reP3ur7XXorVjxSvj55sXKq3pa7Ua2G9rue1s8pby0jI3vT69MnkT37yk9vvfve7KVDo/TNMRl3mldfqlmRJ21rdlnJdpyR6wt/Dj6Wy0rm16Ep1PPHa6HJ5bLWp6c8s94oTbbeaTWt6lpKOhevoulZbWVbqu6TTom1YG1eXrT2PlvZSrHqyrNZPyzhcR9e12sqylr5JavX2WPe0eHVar8fSWW11Pau8VrckVj9SvD56s7Gua5WvqetJrS8tVnltDClkb3p96mSS/jKLflT7y1/+8vavf/3r9te//nX4FPLtb3/bvZXdYqQWo5f6sXRWW13PKm9570lr29Ixv/fq6LqWsF6KnPD38qMuqx0vLffqeVKqz7qWMWQZvbdE1j+T3DNOWt5bZZaepaQj0XrdrxavrhbdjsWqqzdXq54uqx0vLffqSbHqyDJ6b0lJzzrWe8dap8ssvSW1enuse1q8Oq3XY+mstrqeVd7y3pNafa+P3mys61rlS+taotuU3ksplXs6KWRvej3Fbya/+93vToFC76VOS4txWoxe6sfSeW35fU1feu9Ja9vSsfW+pm8RvcGRbPWjLqsdLy336nlSqs86awwtWi+Pzy73jJOW91aZpWcp6Ui0vtZvTc9S0mnRNqyN23K8tNyrJ8WqI8tqfSzV1/qu6S2p1dtj3dPi1Wm9HkvnteX3NX3pvSe1+l4fPdqY39f08n1LXUuWtmvpr1SH7E2vSCYNaTF6qR9L57Xl9zW9PtbllrS2pWMtUqff1/QtsseE12V0rEXqZT2vXItVz5NafUu/ps2Z5d5xwsey3LJpTc9S0pGQXovUybq6zNKzlHRatA1r4/KxFqmX9bxyLVY9KVYdWVbro0WvRepkXV1m6S2p1esx0dFi6by2/L6m18e63JJSP14ZSY825vc1vXzfUtcSrbf6k1Lrj8WrR/am16dOJum3ED/84Q+HW9h/+9vfhkChW9j0l1vP8DVBy7Gn0+WWtLT1+rHq1o69viyRE/5efmw5l1q7Ulmp3JJa3SXjsiwZ/wxy7zjhY1lu2bSmZ1mj43JLL8vW9G2J3lzXjltrVyorlbPU+lrTnsXTcbmll2WlvqXU6u2x7mnx6rRej6UrtS0dezpdbkmpH6+MpFcbl4631NXitfXaWeWtZSRkb3p9+juTP/7xj4cg+ctf/jII/cCW/h0pWV9Li6GWHkup9b+kb68vq1xLS1uvHy7X+tKx15cleoNb6scl51Urby0rlVtSq7tkXJYl459B7h0nXCbLvTrWey1rdFxu6WXZmr4t0TbUbWvHpfLWslI5i9bXjrWU9J6Oyy29LCv1LaVWb2s8k9TOdc2xlFr/S/r2+rLKtZT6KbXv1cal4y11tVh6KvPaefVbykjI3vT69Mkkfcqgv86iACH55ptvhk8dsr4lbFyWWp2SToqn123lsRapt+rqPvlYCpdzHV1XHku9Lvf0LLovS2R9Fj3hl/qxNoY3bmvdWnt61eLV9WRtG0usumeQe8SJVabLuaxFx9Kik/2wSL0WXc+Smk6LtmGtjddPa91ae3rVYpXLtl47EqmX9aV4Ot1eiq5niazD9XSZlK3xzFI7D12npJPi6XVbeaxF6q26uk8+lsLlXh0ut6QnG+syKVK/tK4lVl1ZZpWzziuXYtUhIXvT6yl+M0l/5v/HP/5xEO/WNaQv0ROeBH6EaEGcbBfLhpDHCOJ5f4GNjxWyN72eIpn8+c9/fvvNb34zCAUNldGPbWUdSF9iTXj4EaIFcbJdLBtCHiOI5/0FNj5WyN70eopkkoT+Qqv2V1qQfsTb4OBHiBTEyXbxbAg5XhDP+wtsfKyQven1NMnkr371q+lHtf/5z39mekhf4k14+BEiBXGyXTwbQo4XxPP+AhsfK2Rvej1NMgl5LsEGB2kRxMl2gQ37Efhif4GNjxWyN70+ZTJJQhcAeW6BHyEtgjjZLrBhPwJf7C+w8bFC9v40pPBPBJ00eH7gR9AC4mQ7sGE/wBf7AxsfC9sbySR4CPAjaAFxsh3YsB/gi/2BjY+F7Y1kEjwE+BG0gDjZDmzYD/DF/sDGx8L27jaZpH9x3QKBcg7gR9AC4mQ7sGE/wBf7AxsfC9u7y2SSH99jgUA5B/AjaAFxsh3YsB/gi/2BjY+F7f20dyYvb5Rwvt0u13BwvdzexgT009tl0N+uH7f3oQ6Vvd8+qB7ohsGPH+/RP0HeBkeSK9+msi8+f05+ZV+PfLxz+Sjax9r/l/c4xjRmKAv/vY/t3z+ojYijreNJnYCuj691oNLu4z3UH3SXm9NlhrRflLdwbbHlpBsuNj+etyOJNrB1ZL+RYNPsmu5I83wHLt7mSn69h99SfIiYGCnp9oybXvF8AZZx/fi4XcLaaMUV4v1Y2N5Pm0wGz4RNOATHuDESF9qMh3fXIUmYNlFy4qQDPTD50ZhgNCGFW+MxJ4OCS/A/F12DnpOkwf8qMfsQCwklaFNXlJjIwQLLxxt1It7sJIfiMo/DUjsaI13SJZxTfj4e+fVRwpzGzHTDHIpJarJ5LBveibry2ok014j5dd2LtvkOStib6/19VvKHrdsvbnrF9gVYixVXiPdjYXs/eTJ5URve6KiGBAU8luTHMMGC35K3roMf58dUL787lyc4KQmy/C8pJ5Mrxpvh6ChZLAZh3i5fkErj5cySyew60nGeWDL2OHztdhsqT3eX70nTfCco2RZ3eHc4lafF3FxVLNL6SHd+34Kf452VZOd4Vz6trdHGVoz4G6Wn2ytuesX0BViNFVeI92Nhez99MimTAXagmTiGoHilRat35ITP/EV+ks4T/tWJjEzuhjuPY73aB4e4WAjZOJ6GxrdirbaQ6HZ6QSotXhJ9fbMxycbhWuxz8ZJJ7i+3yYRarO9Fy3xnXTqt+IHg/mfznFibqxWLQ9lo2+EuufBnbk8vRnybu7qd4qZXLF+A9VhxhXg/Frb38yeT9G7c9NmBSCb7J5vwhQRulmgKZUpwgrynZKKeTIoxxNjEmvEk9NW07E9C7b3zstrpBam0eElyG1JiNbeH35e3cMY+tX8maJE02m2lZb5rPxG1GHglrM3VisXct3kc5PFy5811h7jpFcsXYD1WXCHej4XtfYpkkhOCyYHYXLpHT/g4sfWkpURIJHAk2YQfF4OrSpgM/0uyRSRLJleON0L9ln7X6CWTXrt8QYpfu7eQL5IBwx7+QugtnKpPzU6LJOb7drC59oPlC7AeK64Q78fC9j5HMhmgwEh/ZEM/dKXgiZGCP8Dpj9mEH3ykEgB115CQC0Ce4IR4mH7cHJO9pLsO7birbBGRY2wcTzalxWSqOjL/qqXcju5WXlhH55a19cmuj8YI46rLGsZRRSPewin7pNNRvqJFUg9yB9rme9Sl0yO7Yr4z1uZqf+2n4lvYe/L/8EEq/5DFlGzu6naKm16xfAHWY8UV4v1Y2N5Pm0wODh7uHrHTw2Yr/1Kq8Z9qAY9hPuHpA4D0H/lz9N84+WhBYJ9/9SW/T4kSJTjpn2SgJCr9uJrv/MU6VEb1QoyMfWT/DNHC8b6W5zqJuBZGLyQN7SgRHMqzZMknXV8SSpCntnQOUicWWN02v85UrvUE2Uoe34v2+Y4/wPGwNlcdi/m8GDdQOuY6oX6MVZpLwdaTLs2hJLxJl3SRveKmV0xfgMWk9WAUsT4i3o+F7d1tMumByXgOXtOPKmE+DftdF+b7dmwb9hCLZ50PPojn/UG8HwvbG8kkeAiv6kf6RNz670U+DfQpfqdrwnzfjmfDh8fijnHTK4jn/UG8HwvbG8kkeAjwI2gBcbId2LAf4Iv9gY2Phe2NZBI8BPgRtIA42Q5s2A/wxf7AxsfC9kYyCR4C/AhaQJxsBzbsB/hif2DjY2F7I5kEDwF+BC0gTrYDG/YDfLE/sPGxsL0/0RsIBAKBQCAQCGSpDMnk8P8ngk8cPDfwI2gBcbId2LAf4Iv9gY2Phe2NZBI8BPgRtIA42Q5s2A/wxf7AxsfC9kYyCR4C/AhaQJxsBzbsB/hif2DjY2F7d5lMyscRaRAo5wB+BC0gTrYDG/YDfLE/sPGxsL27SyZ1AqmPESjnAH4ELSBOtgMb9gN8sT+w8bGwvZ82mUwPapeSHqpuPQieKLajh8GLcvlAdrvdaz1X9p4MfhT25sdMSTt/8fnz+LB9kvkD87neIG/BF/JJVdeP2zvHAOku46OspjHJd+nB/IOvr5f7jSd1Arq+7JFalXYf76H+oLvcdJclncU8ht/CdceWk24Menk8b0cS7WPryLYjGx8hxvM9zufRJ9JP47wGPt7mSr67x+PdUgwIv4+UdFtj4xnxfAEWUlg3Ee/HwvbuLpnUkGMkfOLktLjvUVDFDYU2V+2rCwXa+J6ot0vlmstb3r/uG7QzTXhjgiUfRYZjTgYF0h/XoOdEKBwFH+YLzEfog9tn/qbERA4WWD7eqOPEjBJWM4bmD/ovtaMx0iVdsufKlnQl8msPsS7Ox5oHdFibM+V5Mb/mJaSNgcYOPsxsvr7fV8LeXLf5xaLkD1t3/3PoHdsXYCmldRPxfixs766TSZ1IEvNA8ZM/wne4187vjzfNfNMFa0h+DBMs+CiZ8zr4bH5M9fI7cHkSI/xW+QRYTiZXjDfD0dGil42lydvlsduuKzFLJkO7dI3p2I5xe5zavKC7uiV/lEhxEseWY2Q2oIRa3KlYOdwpMTdXFYv0gYHu/L4FX8Y7K8nO8a78aGtqN9jYigNvrfV1W2LjGTF9ATaSr0uI92Nhe3ebTJIDLeaBYm9wjO9wr53fX/rq3N40QTvSj+nOVyBM3iy5E8meTlZkcjfceRzrZf0ZxMVCyMbxNDS+tWDUFhLdTseuPC7pSuhrn50P2T9cp32e9tyozgu1kC8hxck4tvBPuuaoS0PHDwTrRjwf1uZqxeJQNtp2uNsjfJbb04sD3+aubkNsPCOWL8A29LqJeD8WtneXySRtTB7zQLEdzfgO99r5/dXuwIB2Mj8WErhZoimU2e9i31MyUU8mxRhibGLNeBL6+ln2J6H23nlZ7XTsyuOSrkRuX0q65rZaOmeq84IW0MIcLZHiJI3N40znqfxE1GLglbA2VysWc//lvs5jwosDPwZd3YbYeEYsX4D1WOsm4v1Y2N7dJZOlRJKYB4rtaMZ3uNdOlYuNSt6ZAtvQfowTW/uEkh2RwJEI/eSPq0qKjORCki0iWTK5crwR6rf020UvmfTa5bEbv3ZnSroS+QIaMGy1dM5U58WGBTTFiRh79Nl0nsY1IJlMYHPtB8sXYB3euol4Pxa2N5LJGapcbFR608SGtZ6ZH8nOOkFTdw0JuQDk/gh+m37cHJO9pLsO7birbBGRY2wcTzaluJuqjsy/aim3o0/dF9bRuYm2JV2JfAEN44dzUpc8nIMqGrHnTG4XOh3lR1pA9SCNpDjJx6breJvOM+qEdQrX8HpYm6v9tZ+Kb2HvycfDB6n8QxZTsrmr2xAbz4jlC7CU8rqJeD8WtneXyaQWiQwU2rRkvTy48j5kMLjtyNGinIWCULdheaF18K7MJ/w1/0s3SpDYzqORaUGIdn+7ffUlv08+iD7iPihRSj+u5k+wyY9ULywgYx/ZP0O0cLyv5blOYiwmeiFpaEfJ3lAe4jdfCss6CyuGKXlO62ke/3nymrfNbZDKtZ4gO8rjJXCcpPnMizzZLo8X/AGOjbW56ljM58W4gdIx1wn1Y6zSXAq2nnRpDiXhTbqki2yJjWfE9AVYRmXdRLwfC9u7u2SyBibjOXhNP6qE+SXYds2Y79uxbdhDLL7efEA87w/i/VjY3kgmwUN4VT/SJ+LWfxPyFNAn/A3Xi/m+Hc+GD4/FjbHxjCCe9wfxfixsbyST4CHAj6AFxMl2YMN+gC/2BzY+FrY3kknwEOBH0ALiZDuwYT/AF/sDGx8L2xvJJHgI8CNoAXGyHdiwH+CL/YGNj4XtjWQSPAT4EbSAONkObNgP8MX+wMbHwvb+RG8gEAgEAoFAIJClMiSTw/+fCD5x8NzAj6AFxMl2YMN+gC/2BzY+FrY3kknwEOBH0ALiZDuwYT/AF/sDGx8L2xvJJHgI8CNoAXGyHdiwH+CL/YGNj4Xt3WUyKR9HpEGgnAP4EbSAONkObNgP8MX+wMbHwvbuLpnUCaQ+RqCcA/gRtIA42Q5s2A/wxf7AxsfC9u7yzqSkmExeP27v/ID2t/fbx0U8rkjrxuL4QPfx4evygfFvF/Hwdymxrq2Lz9lc2+crM/iRHr4/2oT9Ju31xefP4oH+8wfmc71BhI8HvNiYxiTfpQfzDw/fl77bOp7UCej65CO1rh8ft8s7XTOdz5yPoBvOiWJpLGPW6izmcfoWbBJbTrrBSPnxvB1Jfc4MNDxejOd7aY6BMt7mSv6p2b+F5Od5DJd0Lf4/G54vwFKuwxoX14B8vUW8Hwvb+4mTyWvYvPMg+piChR6oTglCVF7JiVR3OKJNP9QbN0biMuooEGIx1YmbFAUs+/8S2slY4HZb+nxVJj8aEyzZLDIcyw8KI9If16DnZCccFWJD2Z8SEzlYYPl4o07Em53k+A/6T7GUoDHSJV2y58qu1ZXI7RLiVZxrHrMxlulw/ZwhfHswab77cwyUsTfXuu2XUvKHrbv/OfSO7QuwFFpjsv1drAuI92Nhe3eZTMbMPopmCpRSll9MUOKml2942sFpY5TwxphvrMT6Pl+VNOHDBAu2Sua8DrabH1O9/C5bnqgI+5ZiI5D5b5ZMrhhvhqOjJDMbKzGPF12W97lWVyK3S2yXrj8dz+OfsMfx50yE7viWfJXiJPbvzjFKmsWd4UKXL4e5uapYpPWR7vy+BX/FtTfZOd6VH21N7QYbW76WcZfj6Wr+PxumL8AmmpJJxPtusL2f9s5kSg7nmDoKuMGJ46Ynkoi5472NkYIsD7zI+j5fFTnhM3+phUHaVCckMrkb7jyO9UqxQcTFQsjG8TQ0vrVglBYSa/HRZfJ4ra6EtsvsXMk3wQb2NSydMyNqkdekOCnNsahL3ccPBC3X/ApYm6sVi0PZaNvh7rrwS25Pz9e+zV1dxf9nw/IFWAmtBbS2hNiSkYx4Pxa29+smk0NR3ODmjveCJ9af32VZ3+erkk34QgI3SzSFMiUqQd5TMlFPJsUYYmxizXgS+opZ9ieh9t55WYuPLpPHa3UlcttTQja3o9/X0jkzQotrYV6kOCnMMeUnohYDr4S1uVqxmPso92fud8/Xfpy5uor/z4blC7CNljuTiPf9YHs/bTJpbSATxc1FBMaYSMwd7wWPsyFu6PNV0RM+TmxtI0poRAJHIvSTP64q8SnFRiBbRLJkcuV4I9Rv6feJ25LJ+LU7s1ZXIl9cA4YdrfOMLJ0zI5XFNcVJYY4V5zvA5toPli/AdmR8Id6Phe3dXTJJG7hEH6dAiRt6Cob4110xYMIGGtr5f4CTnEltko7xgiffGM0ENbCkz1dlNuEHH6kEQN01JOQCkPsj2Hf6cXMpNvI+sjE2jieb0mIyVR2xvmphrMWH7nJeuJDOTbRdqyuR2YWuKZyvMod5npGlc2aEFlc9iCDFSWmORZ2wQOE8Xw9rc7W/9lPxLew9+XH4IJV/yGJKNnd1Ff+fDcsXYCn0ATnEo/qDRw5dxPuxsL27vDMp7wxp8kChDS/9gDa7K+T8Uy1DYIz1Y7CEzVb8hRVtdjw2Cftdl0v92j5fmfmEpw8AYgIONhxtNhqMFgS281df8nvtI+7Djo3kC6oXYmTsI/tniBaO97U810nEtTDGQpJiZxSxKBKU0FnlxFqdhRXflFhPbencpU7MNS++rT6lniAbK5NkcJzU5hgd4w9wbKzNVcdiPi/GDZSOuU6oH2Oc5lKw9aRLcygJb9IlXaTm/7Nh+gIsp/BPsSHej4Xt3WUyWQKT8Ry8ph9Vwvzy1O2B+b4d24Y9xOLrzQfE8/4g3o+F7Y1kEjyEV/UjfSJu/XcfTw99+q/YAvN9O54NHx6LDf4/G4jn/UG8HwvbG8kkeAjwI2gBcbId2LAf4Iv9gY2Phe2NZBI8BPgRtIA42Q5s2A/wxf7AxsfC9kYyCR4C/AhaQJxsBzbsB/hif2DjY2F7I5kEDwF+BC0gTrYDG/YDfLE/sPGxsL0/0RsIBAKBQCAQCGSpDMnk8P8ngk8cPDfwI2gBcbId2LAf4Iv9gY2Phe2NZBI8BPgRtIA42Q5s2A/wxf7AxsfC9kYyCR4C/AhaQJxsBzbsB/hif2DjY2F7d51M0uOINAiUcwA/ghYQJ9uBDfsBvtgf2PhY2N7dJpP8bEsNAuUcwI+gBcTJdmDDfoAv9gc2Pha299Mmk/TAdK4ziHjYe3qIuxTxTEz1kPj3t/Fh7PQw+KzNW3oo+/UyPvg9lsunItnjxTrVc3lRBj8Ke/NjpqS9vvj82bV5yf8Dyscfl/FRVtOY5IP0YP7BzwUfLx5P6gR0ffKRWtePj9vlna6ZzmfOR9AN5/R2uekuSzqLeSxSfMeWk24MeHk8b0fSGN8bHyHG8/0y2Hb0ifRTuHZQxttcyXf3eLxbioF5DJd0W2PjGfF8AdYR4yuPLcT7sbC9u0wmyRnyVSID5cJJYOAakgXeCAmpIy60wYv3k+56Vf2IBJIezK76GfScmIykNpRQxM2NNnquUjqXV2XyozHBch/YNid8/5Pfgo1F9Y/QB7eXvgkNb29ysMDy8UYdJ2aUsJpJjv+gfysmaIx0SZfsubIlXYn82imZTuNmujGW6XBbfPvX3EKa7zR28GFm8/X9vhL25rrNLxYlf9i6+59D79i+AOuI69Gw1o8lBOL9WNjep0km5UZHsC7fICNy49foRCZ0IJIKSjzfw/9DUIwbbU5+DkzpXF6V5EeyJdmUYRszvs1d/1c+AeYJlU4mV4w3w9FRkpmNlbAWn7xMx7evK5Ffe2yXrjEd27Fqj1OLb7qrW/JHiRQncWw5RmYDSqjFneGVw50Sc3NVsUjrHt35fQu+HGwo7szHu/KjrandYGMrDuYxzHi6LbHxjJi+AKvgvVrHFuL9WNje3SWT5DhGvmdkoMjNfbjzJIIlfi2WB8mE+kpS6mfJpEw2xPtlm23hXF4U6cfM5mHyZsldweae/2c+VMTFQsjG8TQ0vrVglBYSa/HRZfK4pCuhr312PmT/cJ32ea6Mb7WQLyHFyTi28E+65qhLQ8cPBOtGPB/W5mrF4lA22na4uy58ltvTiwPf5q5uQ2w8I5YvwArMdSCCeD8WtveTJ5NiY3y37yJ5d0sm1Fd9pWRylvTMOvaCrvFcXohswhcSuJLNPf/Xk0kxhhibWDOehL5+lv1JqL13Xtbio8vkcUlXIrcvJV1zW/l9rYxvWkCNdi2kOElj8zjTeRpzsRYDr4S1uVqxmPsv93UeE14c+DHo6jbExjNi+QIsR8aqji3E+7GwvbtMJrVIZKBMd4rG3z3KYJl0Dcigmm1C00ZFY6hzmwWFF3Tt5/Iq6AkffaDtV7a5638juZBki0iWTK4cb4T6Lf120VrQGGvxycvi1+5MSVciX0ADhq38RXJlfG9YQFOciLFHn03naVwDkskENtd+sHwBllNapxHvx8L27i6ZlFCQaGSg5JtYcLi4w6g3uGlzoY0oODPkAyP5b/byTSgmDUM/6g4WMduY3aBzzuWFmU14SgiCnTK7VGzu+1/4beA6tOOuMr/JMTaOJ5vSYjJVHbG+amGsxYfucl64kM5NtC3pSuQxG847nJO6ZPNcIivjmxZQPUgjKU7ysek63qbzjDphncI1vB7W5mp/7afiW9h78vHwQSrfvJmSzV3dhth4RixfgG3o2EK8Hwvb+2mTSQoO/lTCvqFNjH44+3/Da9Jn9WjjDY6efjMpf+dFjs7ajJsiteGycbA0fmwfx+YyfU6pXOtflfmED0m9+DBQs/lXX/L7uf/jISVKbPvgx9HJyR9ULywgYx/ZP0O0cLyv5blOYiwmxkJifcKe1rcAJXtWOVHSWVixSMnz1FbFf5685m1zG6RyrSfIjuqym+E4SXbiRZ5snscL/gDHxtpcdSzm82LcQOmY64T6McZpLgVbT7o0h5LwmlrSRbbExjNi+gKsRMSXCCLE+7GwvbtOJi0wGc/Ba/pRJcwvwbZrxnzfjm3DHmLx9eYD4nl/EO/HwvZGMgkewqv6kT4Rt/6bkKeAPuFvuF7M9+14Nnx4LG6MjWcE8bw/iPdjYXsjmQQPAX4ELSBOtgMb9gN8sT+w8bGwvZFMgocAP4IWECfbgQ37Ab7YH9j4WNjeSCbBQ4AfQQuIk+3Ahv0AX+wPbHwsbG8kk+AhwI+gBcTJdmDDfoAv9gc2Pha29yd6A4FAIBAIBAKBLJUhmRz+/0TwiYPnBn4ELSBOtgMb9gN8sT+w8bGwvZFMgocAP4IWECfbgQ37Ab7YH9j4WNjeSCbBQ4AfQQuIk+3Ahv0AX+wPbHwsbO/uksn8UURRJAiUcwA/ghYQJ9uBDfsBvtgf2PhY2N5dJpMlECjnAH4ELSBOtgMb9gN8sT+w8bGwvZ8zmaSHto93LfnxROnB7bFsenA7y9tlqDdw/bi9s/7tPbxPD2P32sn+k8R2tm58Bqc41yhvp3vQ+xo4AKO9R/tfL+PD9YMEuydfBFtK3Refoy7USQ+nGn1OZTN/kM3ncZIk+ooewp+Vh9gYm82gfvJHY11D+7HvWTsZb/Kc61Cfw3Xrdi/yKDqOk8lv4+TRx8DH21znMbyONKfGNU9Q0r1KDEs8X4BlpLiKIuMI8X4sbO/nvTNpOIYcqfeWC23s43uGyqamV0pCUjLJ6Hapb0oMYoJJGz23033I9vl5XbPk9VVJE57sGSa5cFyyXbI1M+nI/6Hd1EwdS98MHx7E5C75Suqul/BBQJxXYv7AfhpvSljpXES77FwWLCg0/tRNSKbz58rOz+GMyI0hs2O4coqNNku+Nvbmev/40WumxNa9RgxLbF+ApdCe6q2jiPdjYXt3mUxK0aRACY4JDkvhREmhPI5YTh0SBu+W04gfKPMEh+AkJN/wIrMkd0FCcVaSH6M9pd2S7SvJ5HtK2sj+70NCNxzmfhjuRKfEo+QrmUxa4w+EsUt3xIrJJN1hLbSV5DE4Pxe6k3r2OMo3huRH7TuaY9O6QXaTZpl9E+HN7XNibq4qhqP9wgYd4j/aMdk33rFP8y7a0VoDfbt6uleIYYnpC7CYxckk4n032N7d35nUxzJQsiRNbeCM6VS1uVi+9QPFTjDSV7L5Jkdk50ksSCjOSvLjaE9hk2T7ua0nHfk7GHo4/ohtpZ3jgpBETuCSr2Qy+UELluEnd0Hgr+LDOWVaKg/9vtHiFRLgyueYCR2Ds5hUC+QZmW0M5HeypbR/sK++a3t5Tx8eKPHku8bD3MfdMDOGh7IxnugDkYytPPa8NdC3q6t7gRiWWL4Ay4nJYFrHZQgh3o+F7d1dMqmhYJFkgSISEOsuE1Fy+ICzufjtvMCK41vngWRyTvJjsifbLtl+butJR0lFNPi0mOTJpPRD/CkD68p3JnmBCiISEgnVKblP35m8hmR3SiBDvF0KbSU6BmcxSdduxOKZsDYGbYd8Y2ERviV/iPKS786IbcN5DOfzIZ97uc29NVDFp8DVvUAMSyxfgK3k31Ii3o+F7f3cyWQgBoTtbKLkcMZOKrx2XmDN+2BmySRtbl7lFyH5UdhzTLKT7bWtxzuR9NawoZ9MBkT9kq8m3fhbWr0AEbVkkpDxQ+/TcOGaao1H8hikBVPF3QtsxPbGoObmgvlEif1bsFlb7XOAzbUfLF+A7cj4QrwfC9u7u2RSJ4+1ZHLYSJxNn5g5dfjKMWwmUxDp315G/EDxAitPUGRikyeTMUlp3PtOS/Jjbk+a4G/C9nRs/mGLkUD4ySR97ZkWk5Kvcl04N+Ou9fwrE4qh0E6cJy0YXONDfrVNX8mmYBig/uy/DHxPdzEpbtX1kg1e7mvuwHxuUgwJG2eMPhT2RzIZY07HU3lzHXXDh6wQr+YaOI9hpri5njyGJZYvwFL0epvPacT7sbC9u7wzGb+OiqKZB0oILPNr6tTHIBwMw2ZCP8JnnQyoQrsAJR1SxzGhyzM9BU9WLhPL14X9mOzNkzf4J/MnTfKxDk/Qoc5YNhozJmQkb7fPn+f+oCQ0du/7KvWhfaviy1oQ1O9w88TGuIYJit9QrvsboSQ4tpsnQHS+TrPTkM13NZeyzSHEhJzTb9NPFMj2+Xw/u8001uaqYzjNC4rPcQOlY64T6sc5F+x3CbaedMG+Q7kUXlNLusgrxLDE9AVYTmG9RbwfC9u7y2SyBCbjOXhuP9ofYFYxJMb5gtPGHc+hYzDft2PbsIf4eY0YliCe9wfxfixsbyST4CE8ux/pk23+F8QrUZ+Ym6FPzvcYv3Mw37fj2fBuMbyWF4lhCeJ5fxDvx8L2RjIJHgL8CFpAnGwHNuwH+GJ/YONjYXsjmQQPAX4ELSBOtgMb9gN8sT+w8bGwvZFMgocAP4IWECfbgQ37Ab7YH9j4WNjeSCbBQ4AfQQuIk+3Ahv0AX+wPbHws0d632/8DAQ1Xhm+r7ywAAAAASUVORK5CYII=;" vertex="1" parent="1">
          <mxGeometry x="564.27" y="726.64" width="535.73" height="97.55" as="geometry" />
        </mxCell>
        <mxCell id="_rLCLBlPRa0EdaRFuiWH-7" value="" style="shape=image;verticalLabelPosition=bottom;labelBackgroundColor=default;verticalAlign=top;aspect=fixed;imageAspect=0;image=data:image/png,iVBORw0KGgoAAAANSUhEUgAAApQAAAC2CAYAAABnNB0oAAAAAXNSR0IArs4c6QAAAARnQU1BAACxjwv8YQUAAAAJcEhZcwAADsMAAA7DAcdvqGQAADoiSURBVHhe7Z1L0js50e57Sd+ZtVdxZr2D9h7eGVPgw1yD22Eb/e6AgBlBMMJBwIg7rMFHKSlLqVRKpXK5ynL5+RHJ36VLXTIfSVllv11f/PSnP73997//fTkDr8+3vvWt+AmAOtDJeuDDcUAstgc+3hfyN+VlL51QWuWw1zEe9FYdDMYGnaw3+HAcQyy2N/h4XyN/07+HSih/9atf3X7yk5/c/vOf/xR1sPGsNugRR5g06GS9YYEdx6Dn7Q0+3tfI3/TvYRLKf/zjH7cf/vCHt+985ztZOWxcswY94gjTBp2st9oCC9vfoOftDT7e18jf9O9hEsqf//zntz/96U+33/zmN7fvf//7t3/9619ZvWVffPFFZnNtrDpdxjbXvtWXTLed21/Nlva95ziynj5bJtuzWYN+SRx7jsFm1ev+0qy2uqxmel/SuF73keWyPZtuZ5lscyR7lE6scuuzVWbVs7XqpNWOoU3Xy21puh+b1Vb7sKcPm1Wv+0uz2uqymvXsy7LeetluaZlVz0Z1NdNt1+qZbe44uo1Vp8vY5tq3+pLptnP7q5m1HzbZTtsr+JhM1i9ta5mu521ZLj/XrNaGy7WRv+nfwySU3/ve925///vfvWD+93//N6uzzHKOLlu6LW1u//S51l/X1drW+ktb2rfWttVe1tXaWWYN+iVx1MdqHXvuvNbW18zqV9sXl8/1qfU/qj1CJ/f4dK6erVUnbe4YVtkjjkumfaj7rjnO2nppc+f1qGNZ7ebK1uxb2lo9k/Wc/9JtaXP7p8+1/rqu1rbWX5reT61O20g+tvZj1S1tK+u11fZV69fbttaf/E3/HiKhpGv4/e9/f/vb3/52++Mf/+jvQC6XS9ZeWs0p0noc39qPVaf71vrrOv6s29f6S1vSt9XWam/V1dpZpgf9I+LYKmudW09dq03Nan10udy2+szVH9kepRPttzmfztWzterYuI1ua/WVZa19t+q0aR/OHVeX3XsePf2lWe1k2dx+eo7DbXRbq68s69k32Vy7LeY9bbU2vddj1em+tf66jj/r9rX+0qz9SKvtYyQft9qtaSvrtXG9blfrZ5X3lpGRv+nfQySUP/7xj2+/+93vJrHQ51cYkLqsVj7XtmVL+s617SnXbVqmB/0j4tgqa51bT12rTc1qfXS53Lb6zNUf2R6lE+23OZ/O1bO16ti4jW5r9ZVlrX236rRpH84dV5fdex49/aVZ7WTZ3H56jsNtdFurryzr2TfZXLst5j1ttTa912PVWX11O6t8rm3LrP1Iq+1jNB/rtlb5PW1rNrcvbVb53DGkkb/p35dPKOkvtuiHtr/4xS9u//znP29/+ctf/N3It7/97epj7R5H9Ti+tR+rzuqr21nlPZ9r1tu3tc2fa210W8u4Xpoc9I+Koy6b215aXmtXs1Z7rus5hiyjz5bJ9keyR+qk57NVZtWzterIdL3er7ZaW226H5vVVi+wVjtdNre9tLzWTprVRpbRZ8ta9VzH9bVtXafLrHrL5tptMe9pq7XpvR6rzuqr21nlPZ9rNte+to/RfKzbWuVL21qm+7Q+S2uV1+qkkb/p38P8hvK73/3uJBb6LOu09Tiox/Gt/Vh1tb78ea6+9blmvX1b29bnufoe04sc2do46rK57aXltXY1a7XnOusY2nS93D66PVInPZ+tMquerVVHpuvn9jtXz9aq06Z9OHfcnu2l5bV20qw2smxuH0vr5/Y9V2/ZXLst5j1ttTa912PV1fry57n61ueazbWv7WNEH/PnuXr5uaetZUv79eyv1Yb8Tf8ioaxYj+Nb+7Hqan3581y93tbllvX2pW1tsk5/nqvvsS0GvS6jbW2yXrarlWuz2tVsrr1Vf0+fI9ujdcLbstzy6Vw9W6uOjOq1yTrZVpdZ9WytOm3ah3PH5W1tsl62q5Vrs9pJs9rIsrl99NRrk3WyrS6z6i2bazdisqPNqqv15c9z9Xpbl1vW2k+tjGxEH/PnuXr5uaetZbre2p+0uf2x1dqRv+nfl08o6bcRP/jBD/zj7L/+9a9eLHRN9Bddr/CVQc92rU6XW9bTt7Yfq+3cdm1flslB/6g49pzLXL9WWavcsrm2S47LtuT4R7BH64S3Zbnl07l6tnvquNyql2X37NsyvcDee9y5fq2yVjnb3L7u6c9Wq+Nyq16WtfYtba7dFvOetlqb3uux6lp9W9u1Ol1uWWs/tTKyUX3c2l7TVlutb62fVd5bRkb+pn8P8YTyRz/6kRfKn//8Z2/0o1v670zJ9tp6nLV0W9rc/pfsu7Yvq1xbT9/afrhc17e2a/uyTC9yS+O45LzmynvLWuWWzbVdcly2Jcc/gj1aJ1wmy2ttrM/a7qnjcqtelt2zb8u0D3Xfue1WeW9Zq5xN189ta2vV1+q43KqXZa19S5trt1bPZHPnes+2tLn9L9l3bV9WubbWflr9R/Vxa3tNW21WPZXV+tXa95SRkb/p30MklHQN9FdbJBKy3/72t/7uQ7a3jB3MNtemVSetVq/7ym1tst5qq/fJ29K4nNvotnJb1uvyWj2b3pdlsj2bHvRL4zh3jNpxe9vO9ad/tdXa1uzePpZZbY9gj9CJVabLuaynjq2nTu6HTdZr0+0sm6vTpn0416e2n962c/3pX21Wuexb60cm62V7abU63V+abmeZbMPtdJm0tXpmmzsP3aZVJ61Wr/vKbW2y3mqr98nb0ri81obLLRvJx7pMmqxf2tYyq60ss8q5rlYuzWpDRv6mfw/zG0r6TwD84Q9/8FZ7jA0by/SgJ0McYdqgk/Vm+RD2HIOetzf4eF8jf9O/h0kof/azn91+/etfeyPhUBn9AFe2gY1l1qBHHGHaoJP1ZvkQ9hyDnrc3+HhfI3/Tv4dJKMnoL7fm/noLNo7VFjnEESYNOllvNR/C9jfoeXuDj/c18jf9e6iE8pe//OX0Q9t///vfRT1sLKsNesQRJg06WW81H8L2N+h5e4OP9zXyN/17qIQS9lqGRQ7WY9DJeoMPxzHEYnuDj/c18jf9+7IJJRldBOy1DXGE9Rh0st7gw3EMsdje4ON9jfztE8pXg04cvD6II+gBOlkPfDgOiMX2wMf7wv5GQgmeBuIIeoBO1gMfjgNisT3w8b6wv5FQgqeBOIIeoJP1wIfjgFhsD3y8L+zvoRNK+i+zW0AsxwBxBD1AJ+uBD8cBsdge+Hhf2N/DJpT8qh8LiOUYII6gB+hkPfDhOCAW2wMf7wv7+6WfUF5OlHSebper27hebqeYhH5xuvj62/XzdvZtqOx8+6R2YBh8HD/PIT7OTj6QFMrTVPblx0eKK8c68nnm8mg6xjr+l3M4xnRMV+b+d479z5/UR+ho7fFknYCuj6/VM9Pv8+za+7rLrbLLDOm/YCd3baHnVOcvNt8u+5EFH9h15L+I82l2TQ+ke7yDKrUFluL6iLglfQhNRFp1W+pmVGqxAMu4fn7eLm5utHQFve8L+/vFv/KmhdgJJC6OxIUWZP/p6hOFaSGlQE51YASmOBqDjAalCGvY5oRQcHHx56Krq+dEycdfJWefYjKhJG3aFSUn8mCO5ceLdUJvdqJDusx12OpHx0iXdHHnlJ9Pjfz6KGlOx8zq/BgKiWryeSjzn0Rbee1EGmtEeV2Pom+8gxb2Avv4mLXiYddtp5tRsWMB7sXSFfS+L+zvAySUF7XoxWB1JCnguaQ4ukHm4paidfVxLLepXf6ULk9yUiJkxV/STijvOF5BpY4SxqYI8375pNQ6Xk6RUGbXkbbz5JKxj8PXbveh8vSU+ZF0jXeCEm7xpHeDU3lZzAVWaZHmR3oCfHJxDk9Ykp/D0/k0twYfWxqpL5a1uq10MypmLMDdWLqC3veF/X2IhFImBBxEM3l0wniniWt05KDP4kVxksET8dXJjEzw/BPI2G7u5iFMGMJWHk9Dx7e0NjeZ6H56UmpNYBJ9fcUxycfuWuxzqSWUvL/cJxNqwn4UPeOd69JphZuCx5/Na2ItsJYWfVn0rX9aLuKZ+7OmkbrPq3Ub6WZUrFiA+7F0Bb3vC/v7GAklfYoLPwcRCeX4ZIO+kcQVyaaoTEmOs3NKKOYTSnEMcWzinuNJ6GtquT8J9a+dl9VPT0qtCUyS+5CSq9If9X3VJs+wTx2fCZoojX5r6RnvOk7EnAbeCWuBtbSYxzbXQa6XBy+wG+hmVKxYgPuxdAW97wv7+zAJJScFUxCxwAyPHvRhcOuBS8mQSOLIskEfJ4SrSpqM+EuyiSRLKO88XoT22/qdYy2hrPXLJ6XwFXwP+UTpMPxRnwxrk6fap2ajiRLjfT1YYMfBigW4H0tX0Pu+sL+Pk1A6SBzpD2/ox68koKAW/FHOeBSD3sdIJQHq6SEhJ4E8yXF6mH7wHBK+VHf1/XhX2UQij7HyeLIrTShT00j5tUu7Hz21vHAdnVvWt052fXQMd1x1Wf44qihSmzzlPul0VKxootQHeQB94z3UpdMjv2K8M9YCa38FqPQt/D3F399M5TdaTMvn1bqNdDMqVizA/Vi6gt73hf390gmlD7J/isSBdwuu/Auqzv+MC3gO5aCnmwAZP4pnjF8cgDQpcMy//oo/p2SJkpz0n2ugRCr94JqfAIY2VEbtnEbiPrL/RNHC430jz3UycS2Mnkw6+lEy6MuzhKlOur5klCRPfekcZJ2YZHXf/DpTua4nyFdy+1H0j3f8UU4Na4HVWszHRVxEaZvbuPZBqzSWnK+nujSGkvFC3aoLbKWbUTFjARaT5oNoYn6E3veF/T10QlkDA/IYvGccVdJ8GLa7Loz39dg+HEGLRx0PdaDn7YHe94X9jYQSPI13jSPdGff+9yRfBrqb3+iaMN7XU/Ph07W4oW5GBXreHuh9X9jfSCjB00AcQQ/QyXrgw3FALLYHPt4X9jcSSvA0EEfQA3SyHvhwHBCL7YGP94X9jYQSPA3EEfQAnawHPhwHxGJ74ON9YX8joQRPA3EEPUAn64EPxwGx2B74eF/Y3z6hpA0YDAaDwWAwGGypTQnlq8EnD14bxBH0AJ2sBz4cB8Rie+DjfWF/I6EETwNxBD1AJ+uBD8cBsdge+Hhf2N9IKMHTQBxBD9DJeuDDcUAstgc+3hf297AJpXx1kQZiOQaII+gBOlkPfDgOiMX2wMf7wv4eMqHUSaTehliOAeIIeoBO1gMfjgNisT3w8b6wv188oSxfxH4SL3aX5fJl7Oml8NLOt29EH349kmz7P//3/0yfk8X3cjaOB2x8HGd8/uXHR3xBP1n5kn1u5+3kYiHfanV1+uAX/lPdJb72ajomxS5pyMfsennc8WSdgK4ve/3WTL/Ps2vv6y63yi4zSn2f3LWFnlNdFKjcLvuRBR/YdeS/iPPpVq8U4/HeOnfQprbAkg8fEbekD6GJSKtuS92MSi0WYCGNeRN63xf290v8hpKCI8nEQgmAWFA+XTDTJgnuEj/nXE55snAhQdIHI+AkEN5ntZ+nfjxQMsVxxueE3+aEUCDjcXX1Kbm4uljkkwxpg/tTkjbtSmmIWH68WMeJm7smSgBL3HmpiabVj46RLunS/R7a/PqcLsUxs7qoWdpMPk86lm3b2i+v61HI8V47d9DGXmAfH7NcEzl23Xa6GRU7FmAprXkTet8X9vfwCaVOJolMLDoZyJKTeoLHi2O+QBEu4E4IqejqhcHb9X5E/XigJMWx7fO0Te3yBCJPcoT/jSRVksWvSCjvOF5BpY4mvuxYmrxfPin16yu/vtAvXUfaXqLjtvapPD1lfiT54lA/d0qIw5OB8olF8EGq8zcbseodMBdYpcXgP3fT5eIc/Jj8G57OR59RP+9HSyN1v9bqttLNqJixACvJ5yzofV/Y30MnlBREi0ws+gmlW2TSpr0wEhdeXISImPSkxuHEJPff6tc6HiiRcWz5XMZYJxEywfNPIGO7bH8GYcIQtvJ4Gjq+NWnMTSa6n56UWhOYRF9fcUzysbsW+1xsHbe171AT9qMoFgfr3F3M8qe37qbgnJLoMC/ELfXE9h2wFlhLi74sxtA/9RHxzLVX00jdr9W6jXQzKlYswDr0vAm97wv7e9iEkhauGplYaPGvLpz1BK/5tKUjoTD7NY4HSoo4VnxeJJuiMiU5zkQCMZ9QimOIYxP3HE9CX1PL/Umof+28rH56UmpNYJLch/TEtfRHfV+1ybOlfQdNlBvo31oc9LlTzKa4TCbOk+IoymsxOCq2D0st5rHNdZD7/MEL7BvNm1YswP1Y8yb0vi/s75f4oxxNJhaVDOQoEYjkQD5psghCK0XU7lc/HijRg972OSVDMklwJuqneFxV0jTj+2wiyTR05/EitN/W7xxrCWWtXz4pha/ge8iujzD8UZ8Ma5On2qdmo4nSXhzUuS8Ya9dPF293nn2tjwEW2HGwYgHuozZvQu/7wv5GQhkpnmhRWyNhaPerHw+UFIPe8rkRXzkJ5PFw/p++ygwJX6q7+n68q2wikcdYeTzZlSaUqWmk/Nql3Y/uvi9cR+eW9a2TT5TuGO646rL8cVRRpDZ5yn3S6ahY0USpD/IA7MVBnzudsysz3RPjlJyKhNJhfwWo9C10MMXf30zlN1pMXVONuo10MypWLMBS2vMm9L4v7O9hE0ptkiQWWihEOxkkCpqsi0aCsr8e0wvutfidVbNf43jAphz0yue08LMvY3BoUgi+Pd2+/oo/p9iFGPE+KJFKP7jmO9kUR2qXNJT9J4oWHu8bea6TGROKnkw6+lEy6Ms7kyBLp5Qkp3kz16rUqO6bX2cq1/UE+UpuP4pMJ41zJ19Of3jj4nWafpJACwX9IU6q2+I8R8ZaYLUW83ERF1Ha5jaufdAqjSXn66lOzcOxTQhNqy6wlW5GxYwFWMbMvAm97wv7e+g/yqmBAXkM3jOO5Y3KMdjuujDe12P7cAQtHnU81IGetwd63xf2NxJK8DTeNY50Z9z6neVLQnfzG10Txvt6aj58uhY31M2oQM/bA73vC/sbCSV4Gogj6AE6WQ98OA6IxfbAx/vC/kZCCZ4G4gh6gE7WAx+OA2KxPfDxvrC/kVCCp4E4gh6gk/XAh+OAWGwPfLwv7G8klOBpII6gB+hkPfDhOCAW2wMf7wv72yeUtAGDwWAwGAwGgy21KaF8NfjkwWuDOIIeoJP1wIfjgFhsD3y8L+xvJJTgaSCOoAfoZD3w4TggFtsDH+8L+xsJJXgaiCPoATpZD3w4DojF9sDH+8L+HjahlK8u0kAsxwBxBD1AJ+uBD8cBsdge+Hhf2N9DJpQ6idTbEMsxQBxBD9DJeuDDcUAstgc+3hf290t85V1PKMsXsZ/4revZy+PLl7PLPl+czrfPWB9eEB/by32cLqHB1R2TXyIv+oHlcBxbPp9e2E/vP5V1X36EOtcmhSC+4J/Kphf/s51u5xisso4svF+1pQ0N7Sd/jdbV9Y/7LvpJ3chznof26a9b93uT19b16AS0qS2wpYbvI42pMI4krbp30bCkFguwlPp8C73vC/v7xRNKBy0snEQ6Pl0wxaYP7vlSBvFySknm1dV/MXWihd+JTuzkQmL1n+jF7l+kxITEMdWBpaQ4tnxOdXnCMNV5/4t4q22abKaw042AGOAy/kQ6Xl6Xa0NSvuSfjpdpQ/TLzmXBpELHn3bjtJ6/h7Y8hyPSpxPQwl5gH6+fVjzsuvfQsMSOBVhKa76F3veF/f36v6FUCWW+WNMTq7P7fxdE9XQnTyhk0hI+ywRgEoaRCPiE9Wjq2IkUx4bPs9gEsnic00RCMT37ScZvZvsLT5aTBjj+WZtIXRsCd2w70Qw0E0qt2Qb5pFSeCz1RPeIdr6RPJw5KuKenwOciru+MucAqDYcnKy5hd/oPc2/yc3hyn8Zd8HE5LnK95tTq3kHDEjMWYBVdCSX0vhns7+M9oRQJhazTiYNMGuipZtpHXLRFXxaGmTySkN9oMnwkKY51n091gqku+t5vf4a+MkZhUkgm45S+Ss91QdS1kahOCnQNtF93Tlktlbv9nmgCc0lw/nV4HT0p6W3yQSuxPQJLdJLcGnURt94da4G1NOzLom9pkZbayv1Zjkui5fNq3RtoWGLFAtxJZb6F3veF/X2MhNInBsGkYLIE0AXRTiicneVClITDSSgLAwnlY0lxrPtc1jFTHfueBqhL1Cg2eUIpk0VKMFJd+wllTRsJalNoQaDvmK8u4Z2SyOvn7dLoK9GTUjFJ0bUbE92R6NKJMQ7N8fqmWAuspeF8PORjL9deOS6JQp+Cat0baFhixQKso+cJJfS+Hezvwz2hTMQ/0ODEgCwTSxTSNU80MuHEfU/CwKL1UFIcGz6XdR7x5GkmHkWyKNrLp5CaujYScwklIScU+pwO566pUzRyH3TtxaR2wMlJ06UTjM0mWGDHwYoFWI/UF/S+L+zvIRNKnUDelVAa5VI8eULhxDL9UDYXDvVJf3hDP6glUYaO/q6oISjQJsWx5fOwbf74eiaJyCcLlxye04SiE0rZr66NRPn1CSV7rp84T5o0uMWn/JrbaVMnlLQ/+y8Gz+lpJmlaXS/54O2+8o7kOgl1yTvixgOYC6z9FaDSvvB3fqOV36Azdy+wB9ewxIoFWEp7voXe94X9/eJ/lEOLfWo3BYkWXlUWFmyy0+3rr/hzSjAooaAFffpRP/+2zu9LCAP/2aCHwXH0g7Xlc4qz9DkVzcT444N/aJ2MEtGw+7KOjHaT9lFqI52Pw5oUmtowrmEi3KjUJhlKhEO/8ut3Ot9Kt8PQrRO3LX2cFgpgLbBaw2lckE/jIip16dqHMeduvi7O11Odmodjm+D/Vl3gHTQsMWMBltOYb6H3fWF/v8RX3hoMyGPw2nGkJFAnhnfiE6N80unjgecwMBjv67F9OIJ+3kPDEuh5e6D3fWF/I6EET+PV40h3uPl/F/JOrKedPdAd9COOPzgY7+up+fBhGr6XN9GwBHreHuh9X9jfSCjB00AcQQ/QyXrgw3FALLYHPt4X9jcSSvA0EEfQA3SyHvhwHBCL7YGP94X9jYQSPA3EEfQAnawHPhwHxGJ74ON9YX8joQRPA3EEPUAn64EPxwGx2B74eF/Y3z6hpA0YDAaDwWAwGGypTQnlq8EnD14bxBH0AJ2sBz4cB8Rie+DjfWF/I6EETwNxBD1AJ+uBD8cBsdge+Hhf2N9IKMHTQBxBD9DJeuDDcUAstgc+3hf29/AJJb26SAOxHAPEEfQAnawHPhwHxGJ74ON9YX8PnVDyuzA1EMsxQBxBD9DJeuDDcUAstgc+3hf290snlOnl7tLSO5Gnl72znS6+vNmPXoMnyuUb8ex+7/Ue2kfi4yj8za+kkn7+8uMjvqCfrHzJPrfzdnKxkG+1un7ezqwBqrvE115Nx6TYpZf5+1j792rHPmuPJ+sEdH3y9VvXz8/b5UzXTOdT8unq/Dk5/epdtuosSg2f3HWHnlNdFL3cLvuRBf/YdeJaVr5urBjvxvmBNrUFlnz4iFfBJQ2UGm7VrdXGK1KLBbiPoK9cW9D7vrC/h00oKSDyX4lcYMJaQgt5SBZpgdXxutDiHj8T8/1SueZyyvev9w36mQa9MchSjAJ+mxNCgYzH1dWn5OLqYuhiI5p/un1w/yzelESqpGT58WIdJ2eUtJoacudlTTQOS0t0jHRJl+w9tK26Fvm1U0KdjmuNA9qcGzPtcVG/5h7k4lA7P9DGXmDXxcWiNR/adY8/h9GxYwHuI8wBfq6PJQT0vi/s75dOKBNpkbOoB73Wr74/XjjzhQ3cQ4qjG2QuRsmdVx+zcpva5QlEnsiIuM3cCeZJlU4o7zheQaWOEs3sWAlLp3lZvs9WXYv82kO/dI1p29a4fZy5cUFPd1vxaJGP9/r5UdIbngw4I9/Iw6mnx3oBOjrmAqu0GPznbrpcLIMfk3/D0/noM+rn/WjpoO7XWt0abbwiZizAXfCNrtYW9L4v7O8hE0oKHiM/M6VY7EWOqQe91q++v/Q1ur1wgn5kHNMTMIcbwFmCJxI+nUTIBM8/gYztsv0ZhAlD2Mrjaej41qTRmkwsneoyud2qa6GvvTgf8r+7Tvs87bExOy7UZL6EYrxb51c8oXU3BeeUKFMc+at9/VT2HbAWWEuLvizGyT9lFzHL9VXTQd2v1boV2nhFrFiAOxDztNYW9L4v7G8klGa/+v7mnsSAfrI4NpK4ItkUldnvZEUCMZ9QimOIYxP3HE9CX0XL/Umof+28LJ3qMrndqmuR+5eexpa+qu+rNrHOjAuaRBtjtIW1OOjzo5hNcZlMnAvFUZTXYnBUbB+WWszjl8c693lNB3UNVutWaOMVsWIBliO1qrUFve8L+3vYhFKbpBSLHWymHvRaP1Uukgr5hAqsQ8cxDG4dE0p4lB5E/RSPq0qMRMwssokkSyjvPF6E9tv6LeO6hDJ8Bc+06lrkk6jD8NXSMTM7LlZMovbioM5vJt6S66eLtzuXvtbHAAvsOFixAMtpzdPQ+76wv4f9DSVDQtGUYrGDzdSDXuunysVipRfOuSdhoE4RR/KzTtLU00NCTgJ5PFzcpq8yQ8KX6q6+H+8qm0jkMVYeT3Yl3U1NI9bXLoylU3raeeFCOjfRt1XXIp9E3Xm7c1KXbJ5LwB4zs+OCJlF9kE7sxUGfH52XKzNdEOPEdeQrdw193joGlg/trwCVvkWspxj7m6l8AWfqumnUrdDGK2LFAqxDawt63xf298snlPqrLhmn1h1MtR8FW5SzkRDtr9XKxRj0UQ76a/7bNlr42c/RyTQpBL+fbl9/xZ9TDEKMeB+ULHHMXIITZ44UR2pHyUbYR/afKFp4vG/kuU5mTCjGZGLpVE57lPBZ5USrzsLSMCXQU1+l/zyBzfvmPkjlup4gP6rL7ibTSeP83Im4BYHr6Pet7JOQbMq6e8/lVbEWWK3FfFzERZS2uY1rHzROY8n5eqpLYygZL9StusAabbwiZizAnQh9CRFB7/vC/h4+obTAgDwG7xlHlTS/BeuuGeN9PbYPR9Di+40H6Hl7oPd9YX8joQRP413jSHfGvf/NyENAd/orrhfjfT01Hz5diyu18YpAz9sDve8L+xsJJXgaiCPoATpZD3w4DojF9sDH+8L+RkIJngbiCHqATtYDH44DYrE98PG+sL+RUIKngTiCHqCT9cCH44BYbA98vC/sbySU4GkgjqAH6GQ98OE4IBbbAx/vC/vbJ5S0AYPBYDAYDAaDLbUpoXw1+OTBa4M4gh6gk/XAh+OAWGwPfLwv7G8klOBpII6gB+hkPfDhOCAW2wMf7wv7GwkleBqII+gBOlkPfDgOiMX2wMf7wv4eMqHMX1sUTAKxHAPEEfQAnawHPhwHxGJ74ON9YX8Pm1C2gFiOAeIIeoBO1gMfjgNisT3w8b6wv18/obx+3s78UvfT+fZ5Ea820nWxOLwEPr6w/XqJL4CnNhfxwnhpoa1dF97Lee8+3xkfR3phf/QJx03668uPj+RL4yX73M6biLGnpo3pmBS79DJ//8J+Gbu1x5N1Arq+7PVbM/0+z669r3NaimXMvXUWpU5Pzieh51TnnZRvl/3I5seMp+NVZDzeW+cA2tQWWPLhnP97SHEWsY206nrifzRqsQDLSLoKJnUEve8L+/vFE8qrW4hd0ER8PifB0EvYKUkIlVcKJLX1W7SAu3ZiIbrEOhJDKKY2F/rgF2bWwMX1k3rgfmv2+a5McTQGWfJZwG/Lm4WIjMfV1afkoqUN5X9KIuXBHMuPF+uE3iiRKyFdsmYCrX50jHRJl+w9tPfWtcj94vQqzjXXbNAybd4/ZojSHxq5ONTOAbSxF9h53y8lj22OXff4cxgdOxZgKTTv6PmZgd73hf39Er+h1ExiaWX7zSQlLET5oqeDnBZHCS+O+cJG3L/PdyUNejfInK+SO6/ed+U2tcsTiDxZEf5tacORxa9IKO84XkGljhLG7FiavF+uocfUtcj9Evql60/bpf4J+zj1MROgJ7+tWOWLQ/0caHxP8wZdv9ylegrsbzZi1TtgLrBKi8F/bpF28Qp+TP4NT+ejz6if96MV67pfa3Vz8T8aZizAYhYnlND7ZrC/X+IJpd7mk08JYolZ54QRAhkXPpFIlMGvLY4ktFx8gfv3+a7IQZ/Fi+Ikgyd8qpMImeD5J5CxXUsbRJgwhK08noaOb00ac5OJ7qc1JLfvrWuh/VKcK8XG+cC+hqVjJqImek2xOFjn4GKWP4V1NwXnlAxTHPnbCv3k9R2wFlhLi74sxsI/LRdxyTVUi3Xdr9W6mfgfDSsWYDk0V6a5Kp/vofd9YX8PmVBqSDASPvlW0mDW0ULkBZXEwQlDGfyagEJ7nWis2ee7kg36RhKXxXKKYSAlK85EAtHSBpEdQxybuOd4Evq6uZZoUv/aeVn9tIbk9r11LXLf05Pa0o/1fS0dMxGaYBvjwloc9DlQzKa4TCaOR3EU5bUYHBXbh6UW8xjl8cx9Xot1XWfVupn4Hw0rFmAt+bdc0Pu+sL9fOqH0i4S5QjmMupQoCHHEZKIMfk1AlUVxxT7fFT3ow+DWPqKkRiYJzkT9FI+rSn5a2nBkE0mWUN55vAjtt/V7xVpCWeuXayh8Bc/cW9cin2Adhh9LXTNLx0xkZoK1Fwd1DjPxllw/Xbzd8fpaHwMssONgxQKsR+oLet8X9vdLf+VNC2W+WF29QIJo3CLq+tX/KCcFlPqkOqYmoHxxNJNUx5J9vivFoPcxUkmaenpIyEkgj4fz7/RVZksb+T6yY6w8nuxKE8rUNFJ+7dLuR08tL1xH5yb63lvXIvMLnZs7X+UOf36qKLJ0zERogtUHEdiLgzW2XJl5mTFOXEf+cOfZ55FjYPnQ/gpQ6VvEc4qjv5nKb7SYujYadTPxPxpWLMBS6CbZ6XFa3/MxDb3vC/t72CeU8gmRJhcLLXrpR7XZUx71Q3xeULw4YvsgGCdG8Zsq/fUZx97+Wi3U37vPd6Yc9HQTIAah92H0WXQYTQrs56+/4s86RrwPWxspFtSOko2wj+w/UbTweN/Ic51MXAujJ5OOfpTU+XIxYTL31llY+qbkeupL5y7rxFir6dvap6wnyMdyW5PppHEO5MtpvLt4naafJNA8QH+Ik+paxzsi1gKrtZiPi7iI0ja3ce2DVmksOV9PdWkMJeOFulUXmIv/0TBjAZZTWd8J6H1f2N8v8ZW3BgPyGLxnHFXS/PbM+wPjfT22D0fQ4vuNB+h5e6D3fWF/I6EET+Nd40h3xq3fWb4V9BRgxhcY7+up+fDpWuyI/9GAnrcHet8X9jcSSvA0EEfQA3SyHvhwHBCL7YGP94X9jYQSPA3EEfQAnawHPhwHxGJ74ON9YX8joQRPA3EEPUAn64EPxwGx2B74eF/Y30gowdNAHEEP0Ml64MNxQCy2Bz7eF/a3TyhpAwaDwWAwGAwGW2pTQvlq8MmD1wZxBD1AJ+uBD8cBsdge+Hhf2N9IKMHTQBxBD9DJeuDDcUAstgc+3hf2NxJK8DQQR9ADdLIe+HAcEIvtgY/3hf09bEIpX12kgViOAeIIeoBO1gMfjgNisT3w8b6wv4dMKHUSqbchlmOAOIIeoJP1wIfjgFhsD3y8L+zvl0goNf7k6UXv8Qkmv8oovew9lE0ve2c7XXw7j3qx/PmUXuBe6yf3nyz0s+viOzvFuQY7He7l8PfAIgz+jv6/XuIL+Z05v6dYOF/Kui8/Qp1rk15kFWNOZUU8yOelTpKFWNGL+7Nyp43YrYD2k79G6+r6x30X/aTe5DnPQ/v01637vclr61gnU9zi4NHboE5tgS01fB9pTMU5T9CqexcNS2qxAPfg5nyec/0aEUqh931hf79uQkkYwaFg6vXlQot7/MxQ2dT1SolISigZ3S/tm5KDkGTSYs/99D5k//y8rlkC+66kQU/+dANdBC75Lvmameoo/q7f1E1ty9j4GwgxwFuxknXXi7sZEOeVKF/yT8ebklY6F9EvO5cFkwodf9qNS6jz99CW53BE5OKQ+dFdOWmjz5Pvjb3APl4/es6U2HXvoWGJHQuwHEom3Tpu3PFD7/vC/h42oZSmSWJxwXFBS3KixFBuB6zA+qSh9ugpUhdLmeQQnIjki16gSHQXJBVHJcUx+FP6Lfl+JqF0EwonbuT/s0/q/GYeB/9EOiUfrVjJhNI6vscdu/VkrJlQ0pPWRl9JrsHyXOiJ6tF1lC8OKY46dunJgDPym3RL8Y1EbWwfE3OBVRoO/nM3dk7/wY/Jv+HJfRp3wY/WHFj3a63uHTQsMWMBluN0WJtGofd9YX+//G8os0TNBd5aqM3AqgXGim9dLHaSkb6ezRc6okgoFyQVRyXFMfpT+CT5vvT1VEfxdo7225+hr/RzmBSSyUHcipVMKD/d/qw4VScF/lrenVNWS+VuvyeawFwSPHMvM6E1WGhSTZJHpFgcKO7kS+l/51/99PZyTjcQlHzy02M/9vFUzNSwL4t6opsiqa1ce7U5sO7Xat0baFhixQIsx397Qw8U4jw+jW8H9L4v7O/X/6MckYRYT5uIVtA9lQWm3q8mrnB86zyQUJakOCZ/su+S70tfT3WUWASHxwkl93Meh/CzBq5rP6HkZNOZSEok1KYVPv2E8uoS3mm+c3q7NPpKtAYLTdK1G1o8EtbioP1AcZ9iNpmILcVDlLdid0RsH5YazsdDPvZyn9fmQKVPQbXuDTQssWIBlkPJoPzd5PXi5tjwEXrfGfb36yeUjiAKO+BEK+iMnVjU+tXEVe6DKRJKWuBqjd+EFEfhz5hoJ99rX8cnkvTR8GE9oXSI9q1YTXXxt7V6EiLmEkpC6oc+p8O5a5rrHMk1SD/xULp7g8XYXhzU2Fwwnii5Pzmf9bU+Blhgx8GKBViOfuJITyx5E3rfF/b3IRJKCpD8YwxNEVj/9aNbUCYh6d9iBupiqYkrT1JkcpMnlCFRkW3fkRTH3J80yE/C97Rt/rGLkUTUE0r6CjRNKK1Y5XXu3Iyn1+XXJ6Qh10+cJ00a3OJTfs1NX88mMXimu+24zfhJkgtJt+p6yQdv95W3oxybpCHh44wYQ+F/JJRBc1pP7QU21vkbLadXcw4sNcw0F9iDa1hixQLcQTaO6b+w0X5CCb1vB/t7yISSCF9NBdOUYrH/csqLQOxnEoQXIv0wn+ukqBr9HJR4yDrWhS7P6klAWblMLt8XjmPyNw9gF58snjTQYxsepL5NLIvODEkZ2en28VHGgxLRsPt6rNI+dGyVvqxJQf0uN09ujGuYIP26cr2/CCXCoV+ZBNH5Vrodhmy8q7GULRBOE3JMn6afK5Dv8/F+dJ9prAVWaziNC9JnXERpm9u49tPv1S7O11Od868vl8Zzaqsu8A4alpixAHdBN9zpN5Sx0AG97wv7e9iEsgUG5DF47TjaNzF34ZPjfNLp44HnMDAY7+uxfTiCft5DwxLoeXug931hfyOhBE/j1eNId7j5Xxbfibpz7obuoB9x/MHBeF9PzYcP0/C9vImGJdDz9kDv+8L+RkIJngbiCHqATtYDH44DYrE98PG+sL+RUIKngTiCHqCT9cCH44BYbA98vC/sbySU4GkgjqAH6GQ98OE4IBbbAx/vC/sbCSV4Gogj6AE6WQ98OA6IxfbAx/vC/vYJJW3AYDAYDAaDwWBLbUooXw0+efDaII6gB+hkPfDhOCAW2wMf7wv7GwkleBqII+gBOlkPfDgOiMX2wMf7wv5GQgmeBuIIeoBO1gMfjgNisT3w8b6wv4dMKPPXFgWTQCzHAHEEPUAn64EPxwGx2B74eF/Y3y/xhBIJ5TFBHEEP0Ml64MNxQCy2Bz7eF/b3ayeU/h3I/BSzfBfy9LJ3ttMlVNCr7mQ5vfz9nV4mOwg+jiIW/Eqq9NL+L25ffnxUY0wv2ed23k7n26fUwPXzdmYNUN0lvvZqOia9UzW9zN9roKGpxceTdQK6Pvn6LXm9ZPrVXJ9n197v83Kr7DJD7y/oO/Sc6qLg5XbZjyz4wK4j/0U2fKUYj/cwnmNMZJx4XIMqtQWW4vqIuCV9CE1EWnVb6mZUarEAS0jz9mRiEYfe94X9PXxCSYHRaLFQAM+cLBhcaHGPnxnfZyq8ukSgTEjBtkxxNAZZHp96jC8ibldXnyYViqmLu2j+6fbB/SlJm3ZFyYk8mGP58WIdJ26UtJqJjjsvNdHQsWrapWOkS7p0v4c2vz6afNMxszpXeo6JavJ5KPOfRFt57UQ+rsrrehRpvNN5OV9lPt/mmEfDXmAfH7NWPOy67XQzKnYswDLSHOVRczj0vi/s7wMklFcfuCsFKi6MGiuwOmGxkhqwLSmOFDuKIcMxZeoxzpMcMcnMxLOdUN5xvIJKHSWa2bHo8PWEMtdu63g5RUKZXUfazpNLxj4OX7vdh8rLp6uPIOkknFee5Ar/UMItnhBvcCovi7nAKi2SDukJ8MnFOTxhSX4OT+ejr6mf97GlkfpiWavbSjejYsYCrEKv59D7vrC/Xz+hFMlAbaGzAlsklEVSAbZGxjGLhxvAWSwaMZYJnn8CGdsV8VWECUPYyuNp6PjWpGFNJmFi43PJz1trtzWBSfT1FedCPnbXYk9stYQynaPdrUyWH0HSSTwvEZ/kj5QkB8JNwePP5jWxFlhLi74s+tY/ZRfxzP1Z00jd59W6jXQzKlYswDq0tqD3fWF/D51Q0uJlIcVSJCLGSmcFtkg4kFDuTjboG0lcK8bZ72TPKaEo4qvIjqFif8/xJPQ1dU1L1L91Xq63m7jS01mt3dYEJsl9SMlV6Y/6vmqTZ9injs8ETZRGv7UknaTz4nOYrsEY+3MaeCesBdbSYh7bXAe5Xh68wG6gm1GxYgFWYKzd0Pu+sL9fPKGkhVIs8GSdQS8WG2NBAtuiB30Y3HrgtmM8PTG8qqRpJp7ZRJJNSHceL0L7bf3O0ZrUNFKvuXbDV/A95BOlw/BHfTKsTZ5qn5qNJsqkE3FeMWbTNRjXh4QygQV2HKxYgBUYYx963xf292snlMadSbGQOqzA5otNSA50P7AtxaCniUEnaTMxzuPmBv30g2cd06vvx7vKdCKPsfJ4sivpbmoaKb92oSTR7XP6Yx53fDfZcAt62nnhfdK5ZX3r5OPAnZs7rrosf36qKFKbPOU+6XRUrGii1Ad5AEkn+XnRNZ6mawh16fQoHrXrez+sBdb+ClDpW/h7ir+/mcpvtJiWz6t1G+lmVKxYgPvJNRuA3veF/f26CSUtrvwEKQaHBBOeKgUheBFwGzIWBAVUlqvfrYF9KAe9S67kX8DNxPjrr/hzSpYoyUn/uQZKpNIPrvnJYWhDZdTOTSJxH9l/omjh8b6R5zqZMaFYk8nMf26IksFQZ3/FrknXl4yS5Kmv0r+cZHXf/DpTua4nyFf60h4B6ySNZ57oyee5XvBHOTbWAqu1mI+LuIjSNrdx7YPGaSw5X091aQwl44W6VRfYSjejYsYC3ElIAvVQh973hf09/B/lWGBAHoP3jKNKmg/DdteF8b4e24cjaPGo46EO9Lw90Pu+sL+RUIKn8a5xpDvj3v+e5MtAd/MbXRPG+3pqPny6FjfUzahAz9sDve8L+xsJJXgaiCPoATpZD3w4DojF9sDH+8L+RkIJngbiCHqATtYDH44DYrE98PG+sL+RUIKngTiCHqCT9cCH44BYbA98vC/sbySU4GkgjqAH6GQ98OE4IBbbAx/vC/vbJ5S0AYPBYDAYDAaDLbUpoXw1+OTBa4M4gh6gk/XAh+OAWGwPfLwv7G8klOBpII6gB+hkPfDhOCAW2wMf7wv7GwkleBqII+gBOlkPfDgOiMX2wMf7wv4eNqGUry7SQCzHAHEEPUAn64EPxwGx2B74eF/Y30MmlDqJ1NsQyzFAHEEP0Ml64MNxQCy2Bz7eF/b3SyeU9JJ1qpvsdL59xrcapRe/SxPv0LzSS+Vjuet3PsUXuNML5LM+p/Qi9+slviw+lMs3KNnHC21mz+VN8XEU/uZXUkl/ffnxUfV5K/4eFePPS3zt1XRMikF6mb+PcyPGi48n6wR0fdnrt2b6fZ5de193uVV2mVHqjTQcek51UdRyu+xH1qnhDV8pxuO9de6gTW2BJR8+Im5JH0ITkVbdlroZlVoswFLkvJnPjdD7vrC/X/4J5YUTQcfVJQxycZF1xIUWa/F5qrte1X5EEkkvc1f78fWcnERSHxL5xZdRIsBNWufyrkxxNAZZHgPb50Q9/hQ352PR/NPtg/vL2LiOt5M8mGP58WIdJ26UtEYd5LjzUhNNqx8dI13Spfs9tPn1UdKcjpnVRb3S5joNl9f1KOR4r507aGMvsI+PWWtes+u2082o2LEAS8nmArWGQO/7wv5++d9Q5otcWggJrssXoYBcxDU6mcnFSsnn2f2/E4a5mOXnwLTO5V1JcSRfkk8Z9jFT93k1/kaSKsniUCSUdxyvoFJHCWN2LI3WsJx8WsfLya8v9EvXkbZtPdrHmdMwPcFt+fxe8sWhfu40bqd5g/wmT0U9BfY3G7HqHTAXWKXF4D930+XiHPyY/BuezkefUT/vR0sjdb/W6rbSzaiYsQCLac3h0Pu+sL8P9YTSP4ESgrnwAiKEMqEWGFlfJJRSrOLzssW4cS5vioxj5nM3gLMEr+HzWvyLGCrChCFs5fE0dHxr0pibTHQ/PSm1JjCJvr7imORjdy32udypYTVhP4picbDO3cUsf3rrbgrOKYmmOPLX/vqJ7TtgLbCWFn1ZjKF/Wi7imWuvppG6X6t1G+lmVKxYgDugeZrmAUoKz05bQsrQ+76wvw+QUIqFUywgxNwTlQm1wLQSyiLxKXZcE17nubwR2aBvJHEtn9fiX8RQkR1DHJu453gS+ppa7k9C/WvnZfXTk1JrApPkPqQnrqU/6vu6U8M0URr91mItDvrcKWZTXCYT50lxFOW1GBwV24elFvPY5jrIff7gBXYD3YyKFQuwnOvnJSWRbg2/CHFB7/vC/j7OE8r4O0gpmKmuAymsIhmZkgo6hlywnBXCaC/GIKEHfYiB9l/b59X4TzGzySaSLKG883gR2m/rd47WpEbU+uWTUvgKvofs+gjDH/XJ8E4NbzRR2ouDOveZeEtoITq58+xrfQywwI6DFQuwHNJTGsNOj0LM0Pu+sL8P9ZW3D7p40qgXwClR9I/K3YIy1eW/4csTypA4+P2oJ1lEsXBXhVc5lzemGPSUFDg/ZX6Z8Xk9/iJunqvvx7vK4iaPsfJ4sms+4QXKr13a/eip5XTnTeeW9a2T69Idwx1XXZY/jiqK3Klhmij1QR6AvTjoc6dzdmWme2KcklORUDrsrwCVvoUOpvj7m6n8Roupa6pRt5FuRsWKBVjOp/ya243puYQSet8O9vdL/1EOCYTbcHxokaMf0/4//2+qz9r5BYV+mM/lQlQU7KxPXDSpD5fFg6Xjh/7h2FymzymV6/p3pRz0LrEXNwRzPv/6K/5cxj9sUiLFvndxjEFO8aB2lGyEfWT/iaKFx/tGnutkxoSiJ5OOfpQM+vLOJMjSGyXJU1+lcTnJ6r75daZyXU+Qr+T2o8h00jh38qUc06fpJwkh2ZR1W5znyFgLrNZiPi7iIkrb3Ma1D1qlseR8PdWlMZSM59RWXWAr3YyKGQtwBzSuo6ZU8ga97wv7e9iEsgUG5DF4zziqpPkwbHddGO/rsX04ghaPOh7qQM/bA73vC/sbCSV4Gu8aR7oz7v3vSb4MdDe/0TVhvK+n5sOna3FD3YwK9Lw90Pu+sL+RUIKngTiCHqCT9cCH44BYbA98vC/sbySU4GkgjqAH6GQ98OE4IBbbAx/vC/sbCSV4Gogj6AE6WQ98OA6IxfbAx/vC/kZCCZ4G4gh6gE7WAx+OA2KxPfDxvrC/fUJJGzAYDAaDwWAw2FKbEkoAAAAAAADuBQklAAAAAABYwe32/wFc/TUn/db04wAAAABJRU5ErkJggg==;" vertex="1" parent="1">
          <mxGeometry x="564.27" y="854.84" width="535.73" height="147.73" as="geometry" />
        </mxCell>
        <mxCell id="_rLCLBlPRa0EdaRFuiWH-8" value="" style="shape=image;verticalLabelPosition=bottom;labelBackgroundColor=default;verticalAlign=top;aspect=fixed;imageAspect=0;image=data:image/png,iVBORw0KGgoAAAANSUhEUgAAApUAAAB5CAYAAABoSNp3AAAAAXNSR0IArs4c6QAAAARnQU1BAACxjwv8YQUAAAAJcEhZcwAADsMAAA7DAcdvqGQAACcGSURBVHhe7Z1Zsuu4DYbvsvpspHfQZw/3La+ZnLEyVbbRZwep5K2TylNcqeQpc7IGhyBFEYQAkpJMmZb/rwrdEsFBAkASln2uPv3sZz+7/f73v4e8sPzvf/+DQCAQCAQC2SU+qdQUowt4fr71rW9NRwDYIE72AxuOA3zRH9j4WMjeMTd76qRSK4c8j8SJr+kgkCiIk/0CG44j8EV/gY2PFbJ3PD5VUvnrX//69tOf/vT23//+d6GDjCfWxIcfIVwQJ/sFm+w4gnjuL7DxsUL2jsenSSr/+c9/3n70ox/dvvOd72TlkHFFm/jwI0QK4mS/WJss5HhBPPcX2PhYIXvH49Mklb/4xS9uf/7zn2+//e1vbz/4wQ9u//73vzO9Jp8+fcqkVkfTybIotfqltiSybq0/S9a23TIO19OxJrx+FG3ir/FjyxhRNL1sz0WrK8sskX1xiXrZhpfz+lFkPU14nTPJveJEK9eOtTJNH6Wk42KNIUXq+TkX2S6KVlfasKVNFE0v23PR6soyS1r60qRVz+utLdP0UUhniay7N56j1MaRdTSdLItSq19qSyLr1vqzROsnCq8n5RlsTML1a+tqIvXxnJfzY0usOrFcCtk7Hp8mqfz+979/+8c//uGD5nvf+16m00QzkCxbe86l1j8dW+2lzqprteeytq1Vt1Sf66x6mmgTf40f5VilsWvXtVdvidbO6iuW19pY7c8q94iTLTat6aOUdFxqY2hl9xiXRNpQtt0zzl49l9p13WssrV6tbE/fXPbGM0nL9a8951Lrn46t9lJn1bXac5H9WDopI9lY60fTra3L9VKsvqx2rXWt9mTveHyKpJLu4Q9/+MPt73//++1Pf/qT/yRyuVyy+lwsw3BpMX6pH00n21rtpS4ey/pWey5r2pbqavU1nVVPEznx7+HHUlnp2lp0pTqWWG1kOT/X2tT0Z5Z7xYm0W82mNX2Uki5KrCPram15Wanvkk6KtGFtXFm29Tpa2nPR6vGyWj8t48Q6sq7Wlpe19E1Sq9dj3ZNi1Wm9H00n21rtpS4ey/pWey5aP1ysPkaycanenrpcLyXqZT2rnVbeWkZC9o7Hp0gqf/KTn9y++eabOWDo+BkmpSyzymt1S7Kmba1uS7msUxI58e/hx1JZ6dpadKU6llhtZDk/19rU9GeWe8WJtFvNpjV9lJIuSqwj62pteVmp75JOirRhbVxZtvU6Wtpz0erxslo/LePEOrKu1paXtfRNUqvXY92TYtVpvR9Np7WV9bTyWt2SaP1wsfoYzcayrla+pa4ltb6kaOW1MbiQvePx0yeV9Jdc9OPbX/7yl7d//etft7/+9a/+U8m3v/1t8xF3i7FajF/qR9NpbWU9rbzl2JLWtqXzeGzVkXU1iXoufOLfy4+yrHa+ttyqZ0mpftS1jMHL6FgTXv9Mcs84aTnWyjR9lJKOROplv1KsulJkuyhaXbnJavVkWe18bblVj4tWh5fRsSYlfdRFvXUudbJM02tSq9dj3ZNi1Wm9H02ntZX1tPKWY0tq9a0+RrOxrKuVr62riWxTOuZSKrd0XMje8fg0v6n87ne/OwcMHXOdlBYjtRi/1I+ms9rG45q+dGxJa9vSuXZc07eI3OhI9vpRltXO15Zb9Swp1Y86bQwpUs/Pzy73jJOWY61M00cp6UikvtZvTR+lpJMibVgbt+V8bblVj4tWh5fV+lirr/Vd02tSq9dj3ZNi1Wm9H01ntY3HNX3p2JJafauPEW0cj2t6ftxSV5O17Vr6K9Uhe8djJJWGtBi/1I+ms9rG45penstyTVrb0rkUrpPHNX2L9Jj4sozOpXA9r2eVS9HqWVKrr+m3tDmz3DtO4jkv12xa00cp6UhIL4XreF1ZpumjlHRSpA1r48ZzKVzP61nlUrR6XLQ6vKzWR4teCtfxurJM02tSqzdiwiNF01lt43FNL89luSalfqwykhFtHI9ren7cUlcTqdf641LrL4pVj+wdj58+qaTfSvzwhz/0j7b/9re/+YChe6K/9HqGrw9azi2dLNekpa3Vj1a3dm71pQmf+PfyY8u11NqVykrlmtTqrhk3yprxzyD3jpN4zss1m9b0UbboYrmm52Vb+tZEbrJbx621K5WVyqPU+trSPoqli+WanpeV+uZSq9dj3ZNi1Wm9H01Xals6t3SyXJNSP1YZyag2Lp3vqSvFamu108pby0jI3vH4FE8qf/zjH/tg+ctf/uKFfohL/w4Vry+lxWBrz7nU+l/Tt9WXVi6lpa3VTyyX+tK51ZcmcqNb68c111Urby0rlWtSq7tm3Chrxj+D3DtOYhkvt+pox1K26GK5pudlW/rWRNpQtq2dl8pby0rlUaS+di6lpLd0sVzT87JS31xq9fbGM0ntWrecc6n1v6Zvqy+tXEqpn1L7UW1cOt9TV4qmpzKrnVW/pYyE7B2PT5FU0j3QX3NRoJD87ne/859CeH1NopGj1OqUdFwsvWzLz6VwvVZX9hnPucTyWEfW5edcL8stfRTZlya8fhQ58df6sTaGNW5r3Vp7+r8Uq64lW9tootU9g9wjTrQyWR7LWnRRWnS8nyhcL0XW06SmkyJtWGtj9dNat9ae/i9FK+dtrXYkXM/rc7F0sj0XWU8TXifWk2Vc9sZzlNp1yDolHRdLL9vycylcr9WVfcZzLrHcqhPLNRnJxrKMC9evrauJVpeXaeVRZ5Vz0eqQkL3j8Wl+U0n/PMAf//hHL9YjbchYIic+CfwIkYI42S+aDSGPEcRzf4GNjxWydzw+TVL585///Pab3/zGCwUPldGPcnkdyFiiTXz4ESIFcbJfNBtCHiOI5/4CGx8rZO94fJqkkoT+oqv2V12QccTa6OBHCBfEyX6xbAg5XhDP/QU2PlbI3vH4VEnlr371q/nHt//5z38WeshYYk18+BHCBXGyXywbQo4XxHN/gY2PFbJ3PD5VUgl5LsFGB2kRxMl+gQ3HEfiiv8DGxwrZOx4/bVJJQjcCeW6BHyEtgjjZL7DhOAJf9BfY+Fghe5P4pPLZoAsHzw/8CFpAnOwHNhwH+KI/sPGxcHsjqQQPA34ELSBO9gMbjgN80R/Y+Fi4vZFUgocBP4IWECf7gQ3HAb7oD2x8LNzeQyeV9C+4ayBgzgH8CFpAnOwHNhwH+KI/sPGxcHsPm1TG1wJpIGDOAfwIWkCc7Ac2HAf4oj+w8bFwez/1k8rr5W1OPpO83S7X2+3ylo5dxdtb1L9dfNvb9eP27utQ2fvtg+qBQ4l+LPkq6EjIR0z3xeegc3WS666pbBEbb7f3ycl63Lj+ne7jXZQXYoP6efMXHbm69lPfi3Y83vg116E+/X3Ldh/vYvxz0hInoIy1yS5jeBtpToV5xCnpXiWGOZYvwDquHx+3i19vl3GFeD8Wbu+nTyrfvddoww4bC23AwWdU5gIoVPBcaKP3R9fbu+t7TjLI0bMOHEUKxJKvkm8js877LcbA8jzFgoM+RLBJfnH1+NxO4+W66+X99oldV4JiKI8ZGi+LKdYuu5YVCwuNP3fjEqn3rN3yGs5IW5yAEvome//4KflD171GDHN0X4CtaHGFeD8Wbu+T/KZymXjEMr6Zz05WNvWUoIKjSH4s+ErxbebH95S8UTL47hM7f5r1F55Mpyd9MXHM6kzkCacWWw43tp5sBopJJT1lawy2fGFaXgs9WT37k562OHFQ0j0/DX5f+PWVUTdZEcPhCYtL2l38hyctyc7hCX6ad8HGy3mRx2uOpXuFGOaovgCb0eIK8X4s3N6nTyr5Bh6drCaQlARgFzqU5EfbV5pvZ93kM3/+Edpy34aFIQn3b/panSeQAZ5Ufrj+tATQXBjoHqhfd02Zlspdv2+0iLlE2PpKXSIXJnlONiglt2dgTZwks05xMZ29Otomq8WwL5tsSx+MeGzl9lzOS6Jkc1P3AjHM0XwBtqPFFeL9WLi9z59U0tH0ZCM6GUnlGCQ/2r7iusisiz6jSeqSNfJpnlTyhJGSjKQrP6lMieind/33j1SntC7IJ5VXl/TOieT143YptOXIhWmxUNG9K4vdmWiKE2X+qvP8RdE2WS2G8/mQz7089pbzkljEJ8PUvUAMczRfgO1ocYV4PxZu75dIKuOTjdnJ2ICGIPmx4KuFb9kTqIofFwkjq59/xZ0z6655IsqpJZUEX1ToOA3n7qkx2HgfdO+LOH+BDbkpTjCni2CTHQfNF2A7Wlwh3o+F2/s1kkoHBU/6Yxz6sSwFWIgm/1SpEBygD8mPJV+Fc/UPYCqJRL5guATxPS0qMqnk7XKduzblh9XLr1Io4XPt2HXSwhFrfPCvvF1CJJNK6k//S8L39FSTEilxv2SDl/v6eyKPk6BL1sHX3xxtk9W/DixtspPOf9iin3jINXfHJnvyGOZovgDb0eIK8X4s3N5Pn1RSMjB/VekTxVDug8CXxcBwGzLftPFPCj2c6Meqr/xkZ76iIl9nKpucHhIzkrfb5895XJBQMhq6X+pIqJvUR4qlUF8sENrCUIwp5R5mwocca6GhZDi0W34VT9drNDsNzXHizvGHOjraJitjOM0Lsum0kfK4dPXDnHMfwC7O1rPOxbYv5xI365Iu8AoxzFF9AVaT1oNJ2PqIeD8Wbu+hk0oLTMpz8Nx+vOM/DeGTo3zhaeOO1zAwmO/70W04Qvy8RgxzEM/9QbwfC7c3kkrwMJ7dj/RJN/93IzeiPfVsgT5J32P8wcF8349lw7vF8FZeJIY5iOf+IN6PhdsbSSV4GPAjaAFxsh/YcBzgi/7AxsfC7Y2kEjwM+BG0gDjZD2w4DvBFf2DjY+H2RlIJHgb8CFpAnOwHNhwH+KI/sPGxcHsjqQQPA34ELSBO9gMbjgN80R/Y+Fi4vX1SSQUQCAQCgUAgEMhaieBJJXgY8CNoAXGyH9hwHOCL/sDGx8LtjaQSPAz4EbSAONkPbDgO8EV/YONj4fZGUgkeBvwIWkCc7Ac2HAf4oj+w8bFwew+bVPLXHEkQMOcAfgQtIE72AxuOA3zRH9j4WLi9h0wqZSIpzxEw5wB+BC0gTvYDG44DfNEf2PhYuL2fOqlML4TnEt6h3KSbXo2Xny9fCP8m62XyWu+tvSfej/SKwsmW8fVV3M5ffP48vdSfZPli/ljPy5vzBX8D1tX58o3pLtMrsuYxyXfJ397N/j3cU5u943Edg+4ve1VXpd3Hu6vvdZeb0WXGMk7f3L2Flnms5+fLdiSl+UT2m+j4+rE43y/eRpNPuJ+cXUAZa5Mlv97Dbyk+WExMlHQ942ZULF+AlRTWTcT7sXB7P8VvKslBnHgD5LywN1JwhY2FNmDyWUknj2Od+ZQ2rGnTJT7mvmhj4+3oXAkc0MQciMpES/4L+POYFDK4P65On96hfXU+zRca8mNsn/lf+JtYP96ki8kbJa5qsuOuSyw2pXY0RrqlS/N7a/P7c/HNxrRivzZnyrG/vK97kRYsui7nw8zmfcY8G/ome3+flfyh6/rFzajovgBrKa2biPdj4fYePqmUCSWxDJi0CS6xdGkzzTdZh0wyWNITN9ZFG7Ca5Ec30dwETOa8+gm5PKd6+dO6PNFhvlYSVU6edMmkcsN4CwwdLX7ZWJK8Xb4wlcbLye8vtEv3kc71ONbHqcU+Pckt2XwrKU7CdfHxM/tQ0s2eXHS4lKdF3WRFLNKHCnoS/Ob8HJ60JDuHp/STramdt7EWI/aGael6xc2oqL4AO8nXLMT7sXB7D51UkiM1lgGjb4KBgs4FCwXUwsEiyaBNLJ6Gr+DyAATb4H5MT8kc5Bdmf+4PmdDwJM8/iZzqZf0phEWDyc7xJDS+tnDUFhTZTi5MpUWMI+9vMaYV+x4rqYz9GbEvFu17keJkui7mn2SPoEuXFT4Y3P9qnhNtk9Vi0ZdNtvVPf5g/c3taMWLb3NR1iptR0XwB9iHXTcT7sXB7D5tU0uZlsQwY3eGBks5wPG1axoZce1oD2sn8WEjkFgln5o/kp0/vKamoJ5VsDDY2sWU8Dn1lzfvjUHvrurR2Mj5LixgntyElWEt72H1ZC2gl9mmxLMy1raQ4SdcVr2G+B+EnohYDr4S2yWqxmPs2j4M8XqwYsePT1HWKm1HRfAG2o62biPdj4fZ+ij/UkSwDRnd4oKQzHC+SDA5/UgX2If0YJrj0FyVELJEjYfrZH1eROClJBidbTDJ/bxxvgvot/e7RSiqtdnl8hq/jW8gXS4diD3tBtBZQ0aek02KZ4oRd1+Sz+R6U+0NSmcAmOw6aL8A2rHUT8X4s3N5IKjXHr0gqsXFtZ+FHSgxkoqb4gi8EuT+cr+cfQYekL+muYQGausoWEz7GzvF4U4qtuerE8iuYcjv6FH6JOrq2rK1Nvli6Mdy44rb8OKJowlpAeZ90OcJXtFjKQe5AipP8uuge3+Z7CLp0eWRX6/5eD22T1b8OFPHN7D3733+gyj9sRUo2N3Wd4mZUNF+AtZTXTcT7sXB7D5tUSuHwG6CNjdfjvirpvGOZLgWbCyxWzp0v+4tysvg4jOXEF38ZR0lUtPNkZFoYgt3fbl99GY+TD4KPYh+UTKUfYcdPtMmPVC/5O/vni1aO9zW/1lmURUUuKA3tKCH05VnSZKPFKSXKae20Yn/ZNr/PVC71BNmKn9+LGCd+YffjxsWebJfHC/5QR0fbZGUs5vNi2kjpPNZx9UOs0lxytp51Ys2c6gT7l3SBXnEzKqovwDoq6ybi/Vi4vYf+Qx0LTMpz8Jp+FInzaeh3X5jv+9FtOEIsnnU+2CCe+4N4PxZubySV4GG8qh/pE3Lrvzf5NNCn+k73hPm+H8uGD4/FjnEzKojn/iDej4XbG0kleBjwI2gBcbIf2HAc4Iv+wMbHwu2NpBI8DPgRtIA42Q9sOA7wRX9g42Ph9kZSCR4G/AhaQJzsBzYcB/iiP7DxsXB7I6kEDwN+BC0gTvYDG44DfNEf2PhYuL19UkkFEAgEAoFAIBDIWongSSV4GPAjaAFxsh/YcBzgi/7AxsfC7Y2kEjwM+BG0gDjZD2w4DvBFf2DjY+H2RlIJHgb8CFpAnOwHNhwH+KI/sPGxcHsPm1Ty1xxJEDDnAH4ELSBO9gMbjgN80R/Y+Fi4vYdMKmUiKc8RMOcAfgQtIE72AxuOA3zRH9j4WLi9n+LrbyupDC+An17Wzl8w/3bx+tv14/YeXxL/9n77eK23gQ2P9yO95H/yW3x9VXrR/6fbF58/J78qL+aP9bxIH0v/X6ZXZM1j0jtYXZ2pvX/JP4+jveNxHYPuL3tVV6Xdx7ur73WXm9FlBrdfkDd3b6HlrPM3m58v25EEG+g6st/EAa9prM53YGJtsuTXe/gtxQeLiYmSrmfcjIrlC7CWq18bwxqQr5uI92Ph9n7qpNJ5yG3GLkimDZK4UHD5I3pxOyUKwYFXcuasAyMw+1GZaDQxmVvDeUwKGRfn/1h0dfqYLHn/i4Xmgy0otBjNXVGCwgdzrB9v0rF405Mdiss8DkvtaIx0S5fm99bm90eJcxoz0/k5FJLVZPNQ5o9YXX7vRJprxPK+7kXbfAcl9E32/j4r+UPX9YubUdF9AdZCa1O2v7N1AfF+LNzeT/6byrD55Rvf5LCGRAU8luRHN9Gc35K3rt6Py3Oqlz+tyxOdlAxp/ufkSZdMKjeMt8DQUdJYDMK8Xb4wlcbLye8vtEv3kc6zejP6OPHe9TZUnp4235Om+U5Q0s2e+Ha4lKdF3WRFLNL6SE+C35yfw9qb7Bye0qe1NdhYixF7w7R0veJmVFRfgF00JZWI925we5/gSaVzNEsKoiPVBJICDzvNMPBAzPwlFgjuX5nQ8CTPP4mc6tU+QIRFg8nO8SQ0vhZrtQVFtpMLU2kR48j7W4xJNnb3ol+LlVTG/nKbzIhF+160zPeoS5cVPhjc/2qeE22T1WLRl0229U/NmT9ze1oxYtvc1HWKm1HRfAE2QmsBrUkutngkI96Phdv7HEklHU2bf3QkksrxySZ+IZFbJJxMmRIdJ+8pqagnlWwMNjaxZTwOfWXN++NQe+u6tHZyYSotYpzchpRgLe1h92UtoKFP6Z8ZWiyVdntpme/ST0QtBl4JbZPVYjH3bR4HebzceZPtEDejovkC7KPlSSXivR/c3qdJKmNiMDsSm8zwyIkfJricvJQQsUSOJJv406JwFYmT4n9OtphkSeXG8Sao39LvHq2k0mqXL0zh6/gW8sXSodjDXhCtBVT0Kem0WGK+7web7DhovgD74fGFeD8Wbu8hk0rayDnyXN1kHBQg6Y9x6AexFEQhYvwnmUIAgONZTHzvI5EIiKeIBF8I8kTHxcP8I+iQ9CVd+EvB2FW2mPAxdo7Hm9KiMledWH4FU25HTy8vUUfXlrW1ye6PxnDjitvy44iiCWsB5X3S5Qhf0WIpB7kDbfM96NLlkV0x3yPaJqt/HSjim9l79r//QJV/2IqUbG7qOsXNqGi+AGuhD9guHsUfOMbQRbwfC7f3U/+hjne0rxOd7zZd/pdVjf/EC3gMy4lPHwS4/8ifk/+mSUgLQ/T5V1/G45QwUaKT/ikHSqbSj7Djk8BQh8qonouRqY/sny9aOd7X/FpnYfcSkQtKQztKCH05WzRLpPtLQony3JaugevYQivb5veZyqWeIFvx83vRPt/xhzoW2iYrYzGfF9NGSuexjqsfYpXmkrP1rEtzKEncrEu6QK+4GRXVF2A9hf0d8X4s3N5P8fW3BJPyHLymH0XifBr63Rfm+350G44Qi2edDzaI5/4g3o+F2xtJJXgYr+pH+oTc+u9NPg30qb7TPWG+78ey4cNjsWPcjAriuT+I92Ph9kZSCR4G/AhaQJzsBzYcB/iiP7DxsXB7I6kEDwN+BC0gTvYDG44DfNEf2PhYuL2RVIKHAT+CFhAn+4ENxwG+6A9sfCzc3kgqwcOAH0ELiJP9wIbjAF/0BzY+Fm5vn1RSAQQCgUAgEAgEslYieFIJHgb8CFpAnOwHNhwH+KI/sPGxcHsjqQQPA34ELSBO9gMbjgN80R/Y+Fi4vZFUgocBP4IWECf7gQ3HAb7oD2x8LNzewyeV9JojCQLmHMCPoAXEyX5gw3GAL/oDGx8Lt/fQSWV8d6YEAXMO4EfQAuJkP7DhOMAX/YGNj4Xb+6mTSnoxe6zjRbxU3nrh/PzieHoH5/UyvTSe6lzYS+a5hBfC67rzvcfzKLwf6SX/ky3j66u4nb/4/Dn5R3kxf6znpeb/y/SKrHlM8p2rM7X3L/nn8bB3PK5j0P3xV3XJuJKv8fp4d/V9ny4+p7ISyzh9c/cWWs46f7P5+bIdSWPsH/CaxtK1gzLWJks2vIffUnywmJgo6XrGzahYvgDbCPGVxxbi/Vi4vYdNKskp/P8cfgOXt7TxX13SkDYYenE7JQpBeSVn0kbvz2jzv/ijyGXSUUCELlId2tTjGHw8IrYD65n9qEy05IeAP49JIaPof5HYfbg+YnvuU9fw9iYSk/XjTToWb5QELqG4zGOGxrIWGhoj3dKl+b21+f1R4pzGzHRTnNPpvthf3te94PPdunZQRt9k7++z0nqo6/rFzajovgDbCGuAX+unEgLxfizc3qdKKvlm6HafQqLC6k0sA2BZh4jj5Zsb2ELyo5tozv7JnFfvj+U51cuTiDX+5+RJl0wqN4y3wNBRspmNRcPbSWUel6XxcvL7C+3SCOlcj2N9nFrs05Pcks23km8Q9rWTHcMTAidkN34p4imy3ITOjrrJilgM9nOx6Pwc7JjsG57STzajdt6OWozYdrV0veJmVFRfgE3EPV3GFuL9WLi9h0wqyYERfhzhN8A3ef8kagqaGGwZLjiCM5eb5jIArI2Vgi0PQLAN7sfMX+Qn7jyW9MlEYpX/GWHRYLJzPAmNry0c2oISFrd4Lfl1y7gsLWIceX+LayEbu3vRF7eNsS8W7Xux2CC0a188xXUfDN5TIk1+jN9ayCe3r4C2yWqx6MsmH/qn7cyfeexZMWLb1dR1iptR0XwBNsDWaRlbiPdj4fY+QVLJNk+2ifRLKsOGaj2tAe1kE7+QyC0STqZc5X9GNgYbm9gyHoe+sub9cah96bpcaxd36SmtjMvSIsbJbUhPXpf2sPvaGPu0WCrt9qJtEPLa88Q8CrtO8iMrL/vgfOg2XMZi7ts8DnKb33mT7RA3o6L5AqyHx6qMLcT7sXB7D5tUSuHwG5ifHF3FximSASIlCzJAwtedeQBYQcSDEOxBTvwwwTXfiHhg+jX+52SLSZZUbhxvgvot/e6xnlRSnRSLeVyGr+NbyBdLh2IPe0HcGPudFkt9gxDXXvE35/rh/O2us632OcAmOw6aL8B6Sus04v1YuL2H/U1lhIJFwm8g3+ic4+evtdwG7Nrqf6gTginTLXZ6K4jyjbX2RAzYLCa+95Gwp3iKSPCFoOT/XHedfB7OssWEj7FzPN6UFpW56sTyKxhKFF2fcyzmCQ899bzEPunasrY22f3RtblxxW356xNFExtjnxZLOcgd0DcIee10za5MNc/kp2RUJJUO/etAEd8sDmb/+w9U+SYe2bzJdoibUdF8AfYhYwvxfizc3k+dVFKQxE8p0Ufha7DJmeLH+fmGI3RTKSG/Ssv7TuVSD9axnPj0QYD5gjb/aOfJyMnnb7evvozHhv99MhV95hKgafVIfqR6lHCEPrJ/vmjleF/za50ljyuPtqAU49QtTvEaGhMhLU4pUZ7b0jVwHVtoZdv8PlO51BNkK3lr9yCLk8K1u4tMdnT+ept/nkD2pT/OSboe1zky2iYrYzGfF9NGSuexjqsfYpzmkrP1rEtzKEncrEu6QK+4GRXVF2AjLL5YECHej4Xbe/ikUgOT8hy8ph9F4nwa+t0X5vt+dBuOEItnnQ82iOf+IN6PhdsbSSV4GK/qR/qE3PrvTT4N9Km+0z1hvu/HsuHDY7Fj3IwK4rk/iPdj4fZGUgkeBvwIWkCc7Ac2HAf4oj+w8bFweyOpBA8DfgQtIE72AxuOA3zRH9j4WLi9kVSChwE/ghYQJ/uBDccBvugPbHws3N5IKsHDgB9BC4iT/cCG4wBf9Ac2PhZub59UUgEEAoFAIBAIBLJWInhSCR4G/AhaQJzsBzYcB/iiP7DxsXB7I6kEDwN+BC0gTvYDG44DfNEf2PhYuL2RVIKHAT+CFhAn+4ENxwG+6A9sfCzc3kMmlfkrjoJwEDDnAH4ELSBO9gMbjgN80R/Y+Fi4vYdNKksgYM4B/AhaQJzsBzYcB/iiP7DxsXB7P39Sef24vccXwb+93z4u7DVIUueLpxfHv13cUYSVzS+Z5xLe1RleOD+9HP56mV4278Rsl79IHuR4P9JL/id7Rb9xW37x+XOys/Ji/ljPy+zjCSs25jHJr67O1N6/5J/7de94XMeg+8te1VVp9/Hu6nsdj9nAVp3GMobfnE1Cy1nnjZSfL9uRBNvpOrL7RMNry+J8L10DKGNtsmTDmv1bSH5mvp0o6Vr8fzYsX4B1pLgKwuMI8X4s3N5PnlRe3WbsHMd89DEHDb24nRKFoLySM6kunfhj2jC9anF+ccfc75fYzv333ene2CYWdRRIoZjqXOjAdYukssTsR2WiJXsG/Dn/wDDBfXV1+pRglGJD+IYSST6YY/14k47FGyVzSyguYzwFSu1ojHRLl+y9tVt1JXK7UMKdrjWP5xDndFqLfXs+EUt7SPiCZV0DKKNvsnXbryX3bY6uu/81jI7uC7AWWnfk+hxBvB8Lt/dT/KZSMt+AkozMlBIV0r2TBNfSpvfuNqu4CcdNMN/AiLCJ5RumDJC0sYIyKRDdRHN2TKamJ8faOdXLk4g8YWG2L8WGI/PtIqncMN4CQ0dJYzaWJG+Xx9d9dCVyu4R26f7T+XJuEPo49nwK0BPgkq/yDcK+Bprf87pB98+7FE+D/QeOSfUKqJusiMVgP7dRO38FOyb7hqf0k82onbej5mvbrpau5v+zofoCrGZ1Uol47wa391M8qZTn8QbmJFFB1bng8M6c/u+d/hESCl4/fM2dB1lg2jRZErIMHH1jBUt4IGb+Iv9w5zF7y0SCJ3n+SeRUrxQbRFg0mOwcT0LjawtHbUGR7WR88fOtuhLSLotrJd84G+j3YCWVsT85nyZo0S44a7FBaNeweBrr5vd7SojJj/FbC/kE9hXQNlktFn3Z5Av/1Jz5JY8hy9e2XU1dxf9nQ/MFWA+tlWmtytd7xPuxcHsPmVRKKGg48QZKiYOqo82Igor9PwYjr28/WUmBFXXLwNGDDyzJJn4hkct8GX03kRIWJyyJKMUGkY3Bxia2jMehr56tZJPaW9eltZPxxc+36krktqcPXks72n1ZC2/oczmfJmgeFuaMtkHIayCfzX6ZhY1HfmTllg/Oim7DZSzmPsr9mdv8zpvsC62Zmi/AXvJvuxDvx8Lt/dRJpd8o1F3KoejmZKGkc/CnUTkssKZEZBk4evCBJXLihwku7UeJDU8UnDD97KurSIBKseHIFpMsqdw43gT1W/r9opVUWu3y+Apfx0e26krki6xDsaO5WBqxb8+nCTfG3qRSu06LK3074cZrq30OsMmOg+YLsB8eX4j3Y+H2fuqvv2mzzDesqw+SEDhuI3XtzD/UERtQKalMujywaKy5zxk9+MCSxcT3Pkp+8IiniARfCHJfOdvPX2uWYiPvIxtj53i8KS0qc9WJ5Vcw5Xb09PISdXRtrO1WXYnMLnRt7nqFOfz1iaIJa+HlfdLlCB/TIisHYegbhDbvXJl6m5Ofoo7s4a6zzSLnQLOh/nWgiG/mz9mP/gNV/mErYsdGQVfx/9nQfAHWQh+UXTzO+3s+pxHvx8LtPeyTSv6kSJIHDG186Ye22dMe8eN8H3+0ocS+J8dSsMX2nz9rX6OFjdUHlj+PwUZ9pcChzVK2ATbLiU8fBNhErPjqqy/jcbJ18EHsQ4+N5CeqRwlH6CP754tWjvc1v9ZZ2L1E5ILS0I4SO1/OFs3IVp2GjF8SSrDntnTtXMfmmhX7Wp9cT5CN+bkki5PCNZAt5/nu/PU2/zyB1gH645ykK413RrRNVsZiPi+mjZTOYx1XP8QqzSVn61mX5lCSuFmXdIGa/8+G6guwHm1/n0C8Hwu391N8/S3BpDwHr+lHkTi/PHV7YL7vR7fhCLH4evMB8dwfxPuxcHsjqQQP41X9SJ+QS7+7fCnoaUDFFpjv+7Fs+PBYbPD/2UA89wfxfizc3kgqwcOAH0ELiJP9wIbjAF/0BzY+Fm5vJJXgYcCPoAXEyX5gw3GAL/oDGx8LtzeSSvAw4EfQAuJkP7DhOMAX/YGNj4XbG0kleBjwI2gBcbIf2HAc4Iv+wMbHwu3tk0oqgEAgEAgEAoFA1krgdvs/gMGUVC2Li4MAAAAASUVORK5CYII=;" vertex="1" parent="1">
          <mxGeometry x="-40" y="1040" width="570" height="104.34" as="geometry" />
        </mxCell>
      </root>
    </mxGraphModel>
  </diagram>
</mxfile>
